M48
; DRILL file {KiCad (6.0.0-rc2-14-ga17a58203b)} date Tue 07 Jun 2022 10:02:52 PM CST
; FORMAT={-:-/ absolute / inch / decimal}
; #@! TF.CreationDate,2022-06-07T22:02:52+08:00
; #@! TF.GenerationSoftware,Kicad,Pcbnew,(6.0.0-rc2-14-ga17a58203b)
; #@! TF.FileFunction,Plated,1,2,PTH
FMAT,2
INCH
; #@! TA.AperFunction,Plated,PTH,ViaDrill
T1C0.0236
; #@! TA.AperFunction,Plated,PTH,ComponentDrill
T2C0.0469
%
G90
G05
T1
X2.45Y-2.75
X2.61Y-2.75
X2.81Y-2.65
X2.81Y-2.81
X2.81Y-2.96
X2.97Y-3.45
X2.97Y-3.51
X2.99Y-2.65
X2.99Y-2.81
X2.99Y-2.96
X3.17Y-2.65
X3.17Y-2.81
X3.17Y-2.96
X3.38Y-3.0075
X3.51Y-3.48
X3.54Y-3.0075
T2
X3.315Y-2.7208
X3.415Y-2.7208
X3.59Y-2.7208
X3.69Y-2.7208
T0
M30
