%TF.GenerationSoftware,KiCad,Pcbnew,(6.0.0-rc2-14-ga17a58203b)*%
%TF.CreationDate,2022-06-07T22:02:49+08:00*%
%TF.ProjectId,StepDown_DCDC,53746570-446f-4776-9e5f-444344432e6b,rev?*%
%TF.SameCoordinates,Original*%
%TF.FileFunction,Copper,L1,Top*%
%TF.FilePolarity,Positive*%
%FSLAX46Y46*%
G04 Gerber Fmt 4.6, Leading zero omitted, Abs format (unit mm)*
G04 Created by KiCad (PCBNEW (6.0.0-rc2-14-ga17a58203b)) date 2022-06-07 22:02:49*
%MOMM*%
%LPD*%
G01*
G04 APERTURE LIST*
G04 Aperture macros list*
%AMRoundRect*
0 Rectangle with rounded corners*
0 $1 Rounding radius*
0 $2 $3 $4 $5 $6 $7 $8 $9 X,Y pos of 4 corners*
0 Add a 4 corners polygon primitive as box body*
4,1,4,$2,$3,$4,$5,$6,$7,$8,$9,$2,$3,0*
0 Add four circle primitives for the rounded corners*
1,1,$1+$1,$2,$3*
1,1,$1+$1,$4,$5*
1,1,$1+$1,$6,$7*
1,1,$1+$1,$8,$9*
0 Add four rect primitives between the rounded corners*
20,1,$1+$1,$2,$3,$4,$5,0*
20,1,$1+$1,$4,$5,$6,$7,0*
20,1,$1+$1,$6,$7,$8,$9,0*
20,1,$1+$1,$8,$9,$2,$3,0*%
G04 Aperture macros list end*
%TA.AperFunction,SMDPad,CuDef*%
%ADD10R,3.600000X2.700000*%
%TD*%
%TA.AperFunction,SMDPad,CuDef*%
%ADD11R,1.500000X2.700000*%
%TD*%
%TA.AperFunction,SMDPad,CuDef*%
%ADD12R,1.100000X4.600000*%
%TD*%
%TA.AperFunction,SMDPad,CuDef*%
%ADD13R,10.800000X9.400000*%
%TD*%
%TA.AperFunction,SMDPad,CuDef*%
%ADD14RoundRect,0.250000X0.262500X0.450000X-0.262500X0.450000X-0.262500X-0.450000X0.262500X-0.450000X0*%
%TD*%
%TA.AperFunction,ComponentPad*%
%ADD15RoundRect,0.250000X-0.620000X-0.845000X0.620000X-0.845000X0.620000X0.845000X-0.620000X0.845000X0*%
%TD*%
%TA.AperFunction,ComponentPad*%
%ADD16O,1.740000X2.190000*%
%TD*%
%TA.AperFunction,SMDPad,CuDef*%
%ADD17RoundRect,0.250000X1.000000X-1.750000X1.000000X1.750000X-1.000000X1.750000X-1.000000X-1.750000X0*%
%TD*%
%TA.AperFunction,SMDPad,CuDef*%
%ADD18RoundRect,0.250000X0.250000X0.475000X-0.250000X0.475000X-0.250000X-0.475000X0.250000X-0.475000X0*%
%TD*%
%TA.AperFunction,SMDPad,CuDef*%
%ADD19RoundRect,0.243750X-0.243750X-0.456250X0.243750X-0.456250X0.243750X0.456250X-0.243750X0.456250X0*%
%TD*%
%TA.AperFunction,ViaPad*%
%ADD20C,1.000000*%
%TD*%
%TA.AperFunction,Conductor*%
%ADD21C,1.000000*%
%TD*%
G04 APERTURE END LIST*
D10*
%TO.P,L1,1,1*%
%TO.N,Net-(D1-Pad1)*%
X64262000Y-82210000D03*
%TO.P,L1,2,2*%
%TO.N,+5V*%
X64262000Y-90510000D03*
%TD*%
D11*
%TO.P,D1,1,K*%
%TO.N,Net-(D1-Pad1)*%
X71260000Y-85344000D03*
%TO.P,D1,2,A*%
%TO.N,GND*%
X76060000Y-85344000D03*
%TD*%
D12*
%TO.P,U1,1,VIN*%
%TO.N,+12V*%
X72565000Y-80385000D03*
%TO.P,U1,2,OUT*%
%TO.N,Net-(D1-Pad1)*%
X74265000Y-80385000D03*
%TO.P,U1,3,GND*%
%TO.N,GND*%
X75965000Y-80385000D03*
D13*
X75965000Y-71235000D03*
D12*
%TO.P,U1,4,FB*%
%TO.N,Net-(C3-Pad2)*%
X77665000Y-80385000D03*
%TO.P,U1,5,~{ON}/OFF*%
%TO.N,GND*%
X79365000Y-80385000D03*
%TD*%
D14*
%TO.P,R1,1*%
%TO.N,Net-(C3-Pad2)*%
X78740000Y-89154000D03*
%TO.P,R1,2*%
%TO.N,GND*%
X76915000Y-89154000D03*
%TD*%
D15*
%TO.P,J1,1,Pin_1*%
%TO.N,GND*%
X84201000Y-69108000D03*
D16*
%TO.P,J1,2,Pin_2*%
%TO.N,+12V*%
X86741000Y-69108000D03*
%TD*%
D14*
%TO.P,R3,1*%
%TO.N,Net-(D2-Pad2)*%
X92352500Y-88392000D03*
%TO.P,R3,2*%
%TO.N,GND*%
X90527500Y-88392000D03*
%TD*%
D15*
%TO.P,J2,1,Pin_1*%
%TO.N,GND*%
X91186000Y-69108000D03*
D16*
%TO.P,J2,2,Pin_2*%
%TO.N,+5V*%
X93726000Y-69108000D03*
%TD*%
D17*
%TO.P,C2,1*%
%TO.N,+5V*%
X87884000Y-84264000D03*
%TO.P,C2,2*%
%TO.N,GND*%
X87884000Y-76264000D03*
%TD*%
D18*
%TO.P,C3,1*%
%TO.N,+5V*%
X80772000Y-86868000D03*
%TO.P,C3,2*%
%TO.N,Net-(C3-Pad2)*%
X78872000Y-86868000D03*
%TD*%
D19*
%TO.P,D2,1,K*%
%TO.N,+5V*%
X90502500Y-91440000D03*
%TO.P,D2,2,A*%
%TO.N,Net-(D2-Pad2)*%
X92377500Y-91440000D03*
%TD*%
D14*
%TO.P,R2,1*%
%TO.N,+5V*%
X80518000Y-84582000D03*
%TO.P,R2,2*%
%TO.N,Net-(C3-Pad2)*%
X78693000Y-84582000D03*
%TD*%
D17*
%TO.P,C1,1*%
%TO.N,+12V*%
X64262000Y-77724000D03*
%TO.P,C1,2*%
%TO.N,GND*%
X64262000Y-69724000D03*
%TD*%
D20*
%TO.N,GND*%
X75946000Y-75184000D03*
X75438000Y-87630000D03*
X89154000Y-88392000D03*
X89916000Y-76390000D03*
X71374000Y-75184000D03*
X75438000Y-89154000D03*
X71374000Y-67310000D03*
X62230000Y-69850000D03*
X85852000Y-76390000D03*
X75946000Y-67310000D03*
X75946000Y-71374000D03*
X80518000Y-67310000D03*
X80518000Y-75184000D03*
X66294000Y-69850000D03*
X71374000Y-71374000D03*
X80518000Y-71374000D03*
%TD*%
D21*
%TO.N,+12V*%
X69904000Y-77724000D02*
X72565000Y-80385000D01*
X67564000Y-74422000D02*
X64262000Y-77724000D01*
X83432824Y-65532000D02*
X70168978Y-65532000D01*
X70168978Y-65532000D02*
X67564000Y-68136978D01*
X67564000Y-68136978D02*
X67564000Y-74422000D01*
X86741000Y-68840176D02*
X83432824Y-65532000D01*
X64262000Y-77724000D02*
X69904000Y-77724000D01*
X86741000Y-69108000D02*
X86741000Y-68840176D01*
%TO.N,GND*%
X85978000Y-76264000D02*
X85852000Y-76390000D01*
X64262000Y-69724000D02*
X62356000Y-69724000D01*
X75965000Y-80385000D02*
X75965000Y-71235000D01*
X66168000Y-69724000D02*
X64262000Y-69724000D01*
X76060000Y-87008000D02*
X75438000Y-87630000D01*
X87884000Y-76264000D02*
X85978000Y-76264000D01*
X79365000Y-80385000D02*
X79365000Y-74635000D01*
X76915000Y-89154000D02*
X75438000Y-89154000D01*
X66294000Y-69850000D02*
X66168000Y-69724000D01*
X90527500Y-88392000D02*
X89154000Y-88392000D01*
X87884000Y-76264000D02*
X89790000Y-76264000D01*
X75438000Y-87630000D02*
X75438000Y-89154000D01*
X62356000Y-69724000D02*
X62230000Y-69850000D01*
X79365000Y-74635000D02*
X75965000Y-71235000D01*
X89790000Y-76264000D02*
X89916000Y-76390000D01*
X76060000Y-85344000D02*
X76060000Y-87008000D01*
%TO.N,+5V*%
X80518000Y-86614000D02*
X80772000Y-86868000D01*
X64262000Y-90510000D02*
X65192000Y-91440000D01*
X87566000Y-84582000D02*
X87884000Y-84264000D01*
X93726000Y-78422000D02*
X87884000Y-84264000D01*
X80518000Y-84582000D02*
X80518000Y-86614000D01*
X65192000Y-91440000D02*
X81026000Y-91440000D01*
X80772000Y-91186000D02*
X81026000Y-91440000D01*
X80772000Y-86868000D02*
X80772000Y-91186000D01*
X80518000Y-84582000D02*
X87566000Y-84582000D01*
X93726000Y-69108000D02*
X93726000Y-78422000D01*
X81026000Y-91440000D02*
X90502500Y-91440000D01*
%TO.N,Net-(C3-Pad2)*%
X77665000Y-83554000D02*
X78693000Y-84582000D01*
X78693000Y-89107000D02*
X78740000Y-89154000D01*
X78693000Y-84582000D02*
X78693000Y-89107000D01*
X77665000Y-80385000D02*
X77665000Y-83554000D01*
%TO.N,Net-(D1-Pad1)*%
X74265000Y-83685000D02*
X72606000Y-85344000D01*
X64262000Y-82210000D02*
X68126000Y-82210000D01*
X74265000Y-80385000D02*
X74265000Y-83685000D01*
X72606000Y-85344000D02*
X71260000Y-85344000D01*
X68126000Y-82210000D02*
X71260000Y-85344000D01*
%TO.N,Net-(D2-Pad2)*%
X92377500Y-91440000D02*
X92377500Y-88417000D01*
X92377500Y-88417000D02*
X92352500Y-88392000D01*
%TD*%
M02*
