%TF.GenerationSoftware,KiCad,Pcbnew,(6.0.0-rc2-14-ga17a58203b)*%
%TF.CreationDate,2022-06-07T22:02:49+08:00*%
%TF.ProjectId,StepDown_DCDC,53746570-446f-4776-9e5f-444344432e6b,rev?*%
%TF.SameCoordinates,Original*%
%TF.FileFunction,Legend,Top*%
%TF.FilePolarity,Positive*%
%FSLAX46Y46*%
G04 Gerber Fmt 4.6, Leading zero omitted, Abs format (unit mm)*
G04 Created by KiCad (PCBNEW (6.0.0-rc2-14-ga17a58203b)) date 2022-06-07 22:02:49*
%MOMM*%
%LPD*%
G01*
G04 APERTURE LIST*
%ADD10C,0.150000*%
%ADD11C,0.120000*%
G04 APERTURE END LIST*
D10*
X94005447Y-64993828D02*
X94767352Y-64993828D01*
X94386400Y-65374780D02*
X94386400Y-64612876D01*
X86487047Y-65044628D02*
X87248952Y-65044628D01*
X86868000Y-65425580D02*
X86868000Y-64663676D01*
%TO.C,L1*%
X57745333Y-86812380D02*
X57269142Y-86812380D01*
X57269142Y-85812380D01*
X58602476Y-86812380D02*
X58031047Y-86812380D01*
X58316761Y-86812380D02*
X58316761Y-85812380D01*
X58221523Y-85955238D01*
X58126285Y-86050476D01*
X58031047Y-86098095D01*
%TO.C,D1*%
X72921904Y-88082380D02*
X72921904Y-87082380D01*
X73160000Y-87082380D01*
X73302857Y-87130000D01*
X73398095Y-87225238D01*
X73445714Y-87320476D01*
X73493333Y-87510952D01*
X73493333Y-87653809D01*
X73445714Y-87844285D01*
X73398095Y-87939523D01*
X73302857Y-88034761D01*
X73160000Y-88082380D01*
X72921904Y-88082380D01*
X74445714Y-88082380D02*
X73874285Y-88082380D01*
X74160000Y-88082380D02*
X74160000Y-87082380D01*
X74064761Y-87225238D01*
X73969523Y-87320476D01*
X73874285Y-87368095D01*
%TO.C,U1*%
X75184095Y-64730380D02*
X75184095Y-65539904D01*
X75231714Y-65635142D01*
X75279333Y-65682761D01*
X75374571Y-65730380D01*
X75565047Y-65730380D01*
X75660285Y-65682761D01*
X75707904Y-65635142D01*
X75755523Y-65539904D01*
X75755523Y-64730380D01*
X76755523Y-65730380D02*
X76184095Y-65730380D01*
X76469809Y-65730380D02*
X76469809Y-64730380D01*
X76374571Y-64873238D01*
X76279333Y-64968476D01*
X76184095Y-65016095D01*
%TO.C,R1*%
X77660833Y-91384380D02*
X77327500Y-90908190D01*
X77089404Y-91384380D02*
X77089404Y-90384380D01*
X77470357Y-90384380D01*
X77565595Y-90432000D01*
X77613214Y-90479619D01*
X77660833Y-90574857D01*
X77660833Y-90717714D01*
X77613214Y-90812952D01*
X77565595Y-90860571D01*
X77470357Y-90908190D01*
X77089404Y-90908190D01*
X78613214Y-91384380D02*
X78041785Y-91384380D01*
X78327500Y-91384380D02*
X78327500Y-90384380D01*
X78232261Y-90527238D01*
X78137023Y-90622476D01*
X78041785Y-90670095D01*
%TO.C,J1*%
X85213866Y-72604380D02*
X85213866Y-73318666D01*
X85166247Y-73461523D01*
X85071009Y-73556761D01*
X84928152Y-73604380D01*
X84832914Y-73604380D01*
X86213866Y-73604380D02*
X85642438Y-73604380D01*
X85928152Y-73604380D02*
X85928152Y-72604380D01*
X85832914Y-72747238D01*
X85737676Y-72842476D01*
X85642438Y-72890095D01*
X84972590Y-65476380D02*
X84972590Y-64476380D01*
X85448780Y-65476380D02*
X85448780Y-64476380D01*
X86020209Y-65476380D01*
X86020209Y-64476380D01*
%TO.C,R3*%
X93813333Y-88844380D02*
X93480000Y-88368190D01*
X93241904Y-88844380D02*
X93241904Y-87844380D01*
X93622857Y-87844380D01*
X93718095Y-87892000D01*
X93765714Y-87939619D01*
X93813333Y-88034857D01*
X93813333Y-88177714D01*
X93765714Y-88272952D01*
X93718095Y-88320571D01*
X93622857Y-88368190D01*
X93241904Y-88368190D01*
X94146666Y-87844380D02*
X94765714Y-87844380D01*
X94432380Y-88225333D01*
X94575238Y-88225333D01*
X94670476Y-88272952D01*
X94718095Y-88320571D01*
X94765714Y-88415809D01*
X94765714Y-88653904D01*
X94718095Y-88749142D01*
X94670476Y-88796761D01*
X94575238Y-88844380D01*
X94289523Y-88844380D01*
X94194285Y-88796761D01*
X94146666Y-88749142D01*
%TO.C,J2*%
X92122666Y-72604380D02*
X92122666Y-73318666D01*
X92075047Y-73461523D01*
X91979809Y-73556761D01*
X91836952Y-73604380D01*
X91741714Y-73604380D01*
X92551238Y-72699619D02*
X92598857Y-72652000D01*
X92694095Y-72604380D01*
X92932190Y-72604380D01*
X93027428Y-72652000D01*
X93075047Y-72699619D01*
X93122666Y-72794857D01*
X93122666Y-72890095D01*
X93075047Y-73032952D01*
X92503619Y-73604380D01*
X93122666Y-73604380D01*
X91456000Y-64476380D02*
X91646476Y-64476380D01*
X91741714Y-64524000D01*
X91836952Y-64619238D01*
X91884571Y-64809714D01*
X91884571Y-65143047D01*
X91836952Y-65333523D01*
X91741714Y-65428761D01*
X91646476Y-65476380D01*
X91456000Y-65476380D01*
X91360761Y-65428761D01*
X91265523Y-65333523D01*
X91217904Y-65143047D01*
X91217904Y-64809714D01*
X91265523Y-64619238D01*
X91360761Y-64524000D01*
X91456000Y-64476380D01*
X92313142Y-64476380D02*
X92313142Y-65285904D01*
X92360761Y-65381142D01*
X92408380Y-65428761D01*
X92503619Y-65476380D01*
X92694095Y-65476380D01*
X92789333Y-65428761D01*
X92836952Y-65381142D01*
X92884571Y-65285904D01*
X92884571Y-64476380D01*
X93217904Y-64476380D02*
X93789333Y-64476380D01*
X93503619Y-65476380D02*
X93503619Y-64476380D01*
%TO.C,C2*%
X94067333Y-80621142D02*
X94019714Y-80668761D01*
X93876857Y-80716380D01*
X93781619Y-80716380D01*
X93638761Y-80668761D01*
X93543523Y-80573523D01*
X93495904Y-80478285D01*
X93448285Y-80287809D01*
X93448285Y-80144952D01*
X93495904Y-79954476D01*
X93543523Y-79859238D01*
X93638761Y-79764000D01*
X93781619Y-79716380D01*
X93876857Y-79716380D01*
X94019714Y-79764000D01*
X94067333Y-79811619D01*
X94448285Y-79811619D02*
X94495904Y-79764000D01*
X94591142Y-79716380D01*
X94829238Y-79716380D01*
X94924476Y-79764000D01*
X94972095Y-79811619D01*
X95019714Y-79906857D01*
X95019714Y-80002095D01*
X94972095Y-80144952D01*
X94400666Y-80716380D01*
X95019714Y-80716380D01*
%TO.C,C3*%
X82383333Y-87225142D02*
X82335714Y-87272761D01*
X82192857Y-87320380D01*
X82097619Y-87320380D01*
X81954761Y-87272761D01*
X81859523Y-87177523D01*
X81811904Y-87082285D01*
X81764285Y-86891809D01*
X81764285Y-86748952D01*
X81811904Y-86558476D01*
X81859523Y-86463238D01*
X81954761Y-86368000D01*
X82097619Y-86320380D01*
X82192857Y-86320380D01*
X82335714Y-86368000D01*
X82383333Y-86415619D01*
X82716666Y-86320380D02*
X83335714Y-86320380D01*
X83002380Y-86701333D01*
X83145238Y-86701333D01*
X83240476Y-86748952D01*
X83288095Y-86796571D01*
X83335714Y-86891809D01*
X83335714Y-87129904D01*
X83288095Y-87225142D01*
X83240476Y-87272761D01*
X83145238Y-87320380D01*
X82859523Y-87320380D01*
X82764285Y-87272761D01*
X82716666Y-87225142D01*
%TO.C,D2*%
X93241904Y-91892380D02*
X93241904Y-90892380D01*
X93480000Y-90892380D01*
X93622857Y-90940000D01*
X93718095Y-91035238D01*
X93765714Y-91130476D01*
X93813333Y-91320952D01*
X93813333Y-91463809D01*
X93765714Y-91654285D01*
X93718095Y-91749523D01*
X93622857Y-91844761D01*
X93480000Y-91892380D01*
X93241904Y-91892380D01*
X94194285Y-90987619D02*
X94241904Y-90940000D01*
X94337142Y-90892380D01*
X94575238Y-90892380D01*
X94670476Y-90940000D01*
X94718095Y-90987619D01*
X94765714Y-91082857D01*
X94765714Y-91178095D01*
X94718095Y-91320952D01*
X94146666Y-91892380D01*
X94765714Y-91892380D01*
%TO.C,R2*%
X81113333Y-83510380D02*
X80780000Y-83034190D01*
X80541904Y-83510380D02*
X80541904Y-82510380D01*
X80922857Y-82510380D01*
X81018095Y-82558000D01*
X81065714Y-82605619D01*
X81113333Y-82700857D01*
X81113333Y-82843714D01*
X81065714Y-82938952D01*
X81018095Y-82986571D01*
X80922857Y-83034190D01*
X80541904Y-83034190D01*
X81494285Y-82605619D02*
X81541904Y-82558000D01*
X81637142Y-82510380D01*
X81875238Y-82510380D01*
X81970476Y-82558000D01*
X82018095Y-82605619D01*
X82065714Y-82700857D01*
X82065714Y-82796095D01*
X82018095Y-82938952D01*
X81446666Y-83510380D01*
X82065714Y-83510380D01*
%TO.C,C1*%
X57745333Y-74081142D02*
X57697714Y-74128761D01*
X57554857Y-74176380D01*
X57459619Y-74176380D01*
X57316761Y-74128761D01*
X57221523Y-74033523D01*
X57173904Y-73938285D01*
X57126285Y-73747809D01*
X57126285Y-73604952D01*
X57173904Y-73414476D01*
X57221523Y-73319238D01*
X57316761Y-73224000D01*
X57459619Y-73176380D01*
X57554857Y-73176380D01*
X57697714Y-73224000D01*
X57745333Y-73271619D01*
X58697714Y-74176380D02*
X58126285Y-74176380D01*
X58412000Y-74176380D02*
X58412000Y-73176380D01*
X58316761Y-73319238D01*
X58221523Y-73414476D01*
X58126285Y-73462095D01*
D11*
%TO.C,L1*%
X69562000Y-91660000D02*
X66362000Y-91660000D01*
X69562000Y-81060000D02*
X69562000Y-91660000D01*
X58962000Y-91660000D02*
X58962000Y-81060000D01*
X58962000Y-81060000D02*
X62162000Y-81060000D01*
X66362000Y-81060000D02*
X69562000Y-81060000D01*
X62162000Y-91660000D02*
X58962000Y-91660000D01*
%TO.C,D1*%
X70360000Y-83844000D02*
X70360000Y-86844000D01*
X76060000Y-83844000D02*
X70360000Y-83844000D01*
X70360000Y-86844000D02*
X76060000Y-86844000D01*
%TO.C,U1*%
X70765000Y-77560000D02*
X71715000Y-77560000D01*
X70765000Y-76060000D02*
X70765000Y-77560000D01*
X81165000Y-77560000D02*
X80215000Y-77560000D01*
X81165000Y-76060000D02*
X81165000Y-77560000D01*
X71715000Y-77560000D02*
X71715000Y-82685000D01*
X80215000Y-77560000D02*
X80215000Y-78660000D01*
%TO.C,R1*%
X78054564Y-88419000D02*
X77600436Y-88419000D01*
X78054564Y-89889000D02*
X77600436Y-89889000D01*
%TO.C,J1*%
X85941000Y-66078000D02*
X85941000Y-66678000D01*
X88121000Y-66078000D02*
X82821000Y-66078000D01*
X88121000Y-72098000D02*
X88121000Y-66078000D01*
X84451000Y-72098000D02*
X84451000Y-71098000D01*
X86491000Y-70568000D02*
X86741000Y-71098000D01*
X82821000Y-72098000D02*
X88121000Y-72098000D01*
X85001000Y-66678000D02*
X85001000Y-66078000D01*
X83401000Y-66678000D02*
X85001000Y-66678000D01*
X82531000Y-67108000D02*
X82531000Y-71108000D01*
X87541000Y-66678000D02*
X87541000Y-66078000D01*
X85941000Y-66678000D02*
X87541000Y-66678000D01*
X86741000Y-71098000D02*
X86741000Y-72098000D01*
X83401000Y-66078000D02*
X83401000Y-66678000D01*
X84201000Y-72098000D02*
X84201000Y-71098000D01*
X84201000Y-71098000D02*
X84451000Y-70568000D01*
X86491000Y-72098000D02*
X86491000Y-71098000D01*
X84451000Y-70568000D02*
X86491000Y-70568000D01*
X82821000Y-66078000D02*
X82821000Y-72098000D01*
X84201000Y-71098000D02*
X86741000Y-71098000D01*
%TO.C,R3*%
X91667064Y-89127000D02*
X91212936Y-89127000D01*
X91667064Y-87657000D02*
X91212936Y-87657000D01*
%TO.C,J2*%
X89516000Y-67108000D02*
X89516000Y-71108000D01*
X93476000Y-70568000D02*
X93726000Y-71098000D01*
X93476000Y-72098000D02*
X93476000Y-71098000D01*
X91436000Y-72098000D02*
X91436000Y-71098000D01*
X93726000Y-71098000D02*
X93726000Y-72098000D01*
X90386000Y-66678000D02*
X91986000Y-66678000D01*
X89806000Y-66078000D02*
X89806000Y-72098000D01*
X91986000Y-66678000D02*
X91986000Y-66078000D01*
X92926000Y-66078000D02*
X92926000Y-66678000D01*
X91186000Y-71098000D02*
X93726000Y-71098000D01*
X95106000Y-72098000D02*
X95106000Y-66078000D01*
X92926000Y-66678000D02*
X94526000Y-66678000D01*
X89806000Y-72098000D02*
X95106000Y-72098000D01*
X91186000Y-72098000D02*
X91186000Y-71098000D01*
X94526000Y-66678000D02*
X94526000Y-66078000D01*
X91436000Y-70568000D02*
X93476000Y-70568000D01*
X90386000Y-66078000D02*
X90386000Y-66678000D01*
X91186000Y-71098000D02*
X91436000Y-70568000D01*
X95106000Y-66078000D02*
X89806000Y-66078000D01*
%TO.C,C2*%
X93144000Y-84459563D02*
X93144000Y-75004000D01*
X85124000Y-87014000D02*
X85124000Y-85764000D01*
X93144000Y-75004000D02*
X89394000Y-75004000D01*
X83688437Y-85524000D02*
X86374000Y-85524000D01*
X92079563Y-85524000D02*
X93144000Y-84459563D01*
X83688437Y-85524000D02*
X82624000Y-84459563D01*
X82624000Y-75004000D02*
X86374000Y-75004000D01*
X84499000Y-86389000D02*
X85749000Y-86389000D01*
X82624000Y-84459563D02*
X82624000Y-75004000D01*
X92079563Y-85524000D02*
X89394000Y-85524000D01*
%TO.C,C3*%
X80083252Y-86133000D02*
X79560748Y-86133000D01*
X80083252Y-87603000D02*
X79560748Y-87603000D01*
%TO.C,D2*%
X89755000Y-90480000D02*
X89755000Y-92400000D01*
X92440000Y-90480000D02*
X89755000Y-90480000D01*
X89755000Y-92400000D02*
X92440000Y-92400000D01*
%TO.C,R2*%
X79832564Y-85317000D02*
X79378436Y-85317000D01*
X79832564Y-83847000D02*
X79378436Y-83847000D01*
%TO.C,C1*%
X59002000Y-68464000D02*
X62752000Y-68464000D01*
X60877000Y-79849000D02*
X62127000Y-79849000D01*
X59002000Y-77919563D02*
X59002000Y-68464000D01*
X68457563Y-78984000D02*
X65772000Y-78984000D01*
X69522000Y-68464000D02*
X65772000Y-68464000D01*
X60066437Y-78984000D02*
X59002000Y-77919563D01*
X60066437Y-78984000D02*
X62752000Y-78984000D01*
X69522000Y-77919563D02*
X69522000Y-68464000D01*
X68457563Y-78984000D02*
X69522000Y-77919563D01*
X61502000Y-80474000D02*
X61502000Y-79224000D01*
%TD*%
M02*
