M48
; DRILL file {KiCad 7.0.6} date Sat 08 Jul 2023 12:11:28 PM +08
; FORMAT={-:-/ absolute / inch / decimal}
; #@! TF.CreationDate,2023-07-08T12:11:28+08:00
; #@! TF.GenerationSoftware,Kicad,Pcbnew,7.0.6
; #@! TF.FileFunction,Plated,1,2,PTH
FMAT,2
INCH
; #@! TA.AperFunction,Plated,PTH,ViaDrill
T1C0.0118
; #@! TA.AperFunction,Plated,PTH,ComponentDrill
T2C0.0315
; #@! TA.AperFunction,Plated,PTH,ComponentDrill
T3C0.0354
; #@! TA.AperFunction,Plated,PTH,ComponentDrill
T4C0.0394
; #@! TA.AperFunction,Plated,PTH,ComponentDrill
T5C0.0433
%
G90
G05
T1
X4.15Y-3.05
X4.2Y-3.1
X4.25Y-2.95
X4.45Y-3.0
X6.0Y-3.05
X6.05Y-3.1
X6.1Y-2.95
X6.5Y-3.0
X7.7953Y-3.05
X7.8453Y-3.1
X7.8953Y-2.95
X8.2953Y-3.0
X9.6Y-3.05
X9.65Y-3.1
X9.7Y-2.95
X10.05Y-3.0
T2
X2.3Y-4.0
X2.3Y-4.4
X2.45Y-4.1
X2.45Y-4.2
X2.45Y-4.3
X2.45Y-4.4
X2.45Y-4.85
X2.75Y-4.1
X2.75Y-4.2
X2.75Y-4.3
X2.75Y-4.4
X2.75Y-4.6
X2.8484Y-4.6
X2.85Y-4.85
X2.9Y-3.75
X2.9Y-4.15
X2.9Y-4.3
X2.9Y-4.3984
X2.95Y-3.5
X2.95Y-3.5984
X3.15Y-3.5
X3.15Y-3.8
X3.15Y-4.4
X3.25Y-3.5
X3.25Y-3.8
X3.25Y-4.4
X3.25Y-4.6
X3.25Y-4.9
X3.35Y-3.5
X3.35Y-3.8
X3.35Y-4.4
X3.35Y-4.6
X3.35Y-4.9
X3.45Y-3.5
X3.45Y-3.8
X3.45Y-4.4
X3.45Y-4.6
X3.45Y-4.9
X3.55Y-3.5
X3.55Y-3.8
X3.55Y-4.4
X3.55Y-4.6
X3.55Y-4.9
X3.65Y-3.5
X3.65Y-3.8
X3.65Y-4.4
X3.65Y-4.6
X3.65Y-4.9
X3.75Y-3.5
X3.75Y-3.8
X3.75Y-4.4
X3.75Y-4.6
X3.75Y-4.9
X3.85Y-3.5
X3.85Y-3.8
X3.85Y-4.4
X3.85Y-4.6
X3.85Y-4.9
X3.95Y-3.5
X3.95Y-3.8
X3.95Y-4.4
X3.95Y-4.6
X3.95Y-4.9
X4.05Y-3.5
X4.05Y-3.8
X4.25Y-4.7
X4.25Y-5.1
X4.3Y-3.5
X4.3Y-3.6
X4.3Y-3.7
X4.3Y-3.8
X4.3Y-3.9
X4.3Y-4.0
X4.3Y-4.1
X4.55Y-4.7
X4.55Y-5.1
X4.6Y-3.5
X4.6Y-3.6
X4.6Y-3.7
X4.6Y-3.8
X4.6Y-3.9
X4.6Y-4.0
X4.6Y-4.1
X4.8Y-3.5
X4.8Y-3.5984
X5.0Y-3.5
X5.0Y-3.8
X5.0Y-4.4
X5.1Y-3.5
X5.1Y-3.8
X5.1Y-4.4
X5.1Y-4.6
X5.1Y-4.9
X5.2Y-3.5
X5.2Y-3.8
X5.2Y-4.4
X5.2Y-4.6
X5.2Y-4.9
X5.3Y-3.5
X5.3Y-3.8
X5.3Y-4.4
X5.3Y-4.6
X5.3Y-4.9
X5.4Y-3.5
X5.4Y-3.8
X5.4Y-4.4
X5.4Y-4.6
X5.4Y-4.9
X5.5Y-3.5
X5.5Y-3.8
X5.5Y-4.4
X5.5Y-4.6
X5.5Y-4.9
X5.6Y-3.5
X5.6Y-3.8
X5.6Y-4.4
X5.6Y-4.6
X5.6Y-4.9
X5.7Y-3.5
X5.7Y-3.8
X5.7Y-4.4
X5.7Y-4.6
X5.7Y-4.9
X5.8Y-3.5
X5.8Y-3.8
X5.8Y-4.4
X5.8Y-4.6
X5.8Y-4.9
X5.9Y-3.5
X5.9Y-3.8
X6.1Y-3.5
X6.1Y-3.6
X6.1Y-3.7
X6.1Y-3.8
X6.1Y-3.9
X6.1Y-4.0
X6.1Y-4.1
X6.1Y-4.3
X6.1Y-4.4
X6.1Y-4.5
X6.1Y-4.6
X6.1Y-4.7
X6.1Y-4.8
X6.1Y-4.9
X6.4Y-3.5
X6.4Y-3.6
X6.4Y-3.7
X6.4Y-3.8
X6.4Y-3.9
X6.4Y-4.0
X6.4Y-4.1
X6.4Y-4.3
X6.4Y-4.4
X6.4Y-4.5
X6.4Y-4.6
X6.4Y-4.7
X6.4Y-4.8
X6.4Y-4.9
X6.5953Y-3.5
X6.5953Y-3.5984
X6.7953Y-3.5
X6.7953Y-3.8
X6.7953Y-4.4
X6.8953Y-3.5
X6.8953Y-3.8
X6.8953Y-4.4
X6.8953Y-4.6
X6.8953Y-4.9
X6.9953Y-3.5
X6.9953Y-3.8
X6.9953Y-4.4
X6.9953Y-4.6
X6.9953Y-4.9
X7.0953Y-3.5
X7.0953Y-3.8
X7.0953Y-4.4
X7.0953Y-4.6
X7.0953Y-4.9
X7.1953Y-3.5
X7.1953Y-3.8
X7.1953Y-4.4
X7.1953Y-4.6
X7.1953Y-4.9
X7.2953Y-3.5
X7.2953Y-3.8
X7.2953Y-4.4
X7.2953Y-4.6
X7.2953Y-4.9
X7.3953Y-3.5
X7.3953Y-3.8
X7.3953Y-4.4
X7.3953Y-4.6
X7.3953Y-4.9
X7.4953Y-3.5
X7.4953Y-3.8
X7.4953Y-4.4
X7.4953Y-4.6
X7.4953Y-4.9
X7.5953Y-3.5
X7.5953Y-3.8
X7.5953Y-4.4
X7.5953Y-4.6
X7.5953Y-4.9
X7.6953Y-3.5
X7.6953Y-3.8
X7.8953Y-3.5
X7.8953Y-3.6
X7.8953Y-3.7
X7.8953Y-3.8
X7.8953Y-3.9
X7.8953Y-4.0
X7.8953Y-4.1
X7.8953Y-4.3
X7.8953Y-4.4
X7.8953Y-4.5
X7.8953Y-4.6
X7.8953Y-4.7
X7.8953Y-4.8
X7.8953Y-4.9
X8.1953Y-3.5
X8.1953Y-3.6
X8.1953Y-3.7
X8.1953Y-3.8
X8.1953Y-3.9
X8.1953Y-4.0
X8.1953Y-4.1
X8.1953Y-4.3
X8.1953Y-4.4
X8.1953Y-4.5
X8.1953Y-4.6
X8.1953Y-4.7
X8.1953Y-4.8
X8.1953Y-4.9
X8.4Y-3.5
X8.4Y-3.5984
X8.6Y-3.5
X8.6Y-3.8
X8.6Y-4.4
X8.7Y-3.5
X8.7Y-3.8
X8.7Y-4.4
X8.7Y-4.6
X8.7Y-4.9
X8.8Y-3.5
X8.8Y-3.8
X8.8Y-4.4
X8.8Y-4.6
X8.8Y-4.9
X8.9Y-3.5
X8.9Y-3.8
X8.9Y-4.4
X8.9Y-4.6
X8.9Y-4.9
X9.0Y-3.5
X9.0Y-3.8
X9.0Y-4.4
X9.0Y-4.6
X9.0Y-4.9
X9.1Y-3.5
X9.1Y-3.8
X9.1Y-4.4
X9.1Y-4.6
X9.1Y-4.9
X9.2Y-3.5
X9.2Y-3.8
X9.2Y-4.4
X9.2Y-4.6
X9.2Y-4.9
X9.3Y-3.5
X9.3Y-3.8
X9.3Y-4.4
X9.3Y-4.6
X9.3Y-4.9
X9.4Y-3.5
X9.4Y-3.8
X9.4Y-4.4
X9.4Y-4.6
X9.4Y-4.9
X9.5Y-3.5
X9.5Y-3.8
X9.7Y-3.5
X9.7Y-3.6
X9.7Y-3.7
X9.7Y-3.8
X9.7Y-3.9
X9.7Y-4.0
X9.7Y-4.1
X9.7Y-4.3
X9.7Y-4.4
X9.7Y-4.5
X9.7Y-4.6
X9.7Y-4.7
X9.7Y-4.8
X9.7Y-4.9
X10.0Y-3.5
X10.0Y-3.6
X10.0Y-3.7
X10.0Y-3.8
X10.0Y-3.9
X10.0Y-4.0
X10.0Y-4.1
X10.0Y-4.3
X10.0Y-4.4
X10.0Y-4.5
X10.0Y-4.6
X10.0Y-4.7
X10.0Y-4.8
X10.0Y-4.9
T3
X2.45Y-4.6
X2.45Y-4.7
X4.25Y-4.45
X4.25Y-4.55
X4.55Y-4.45
X4.55Y-4.55
T4
X2.35Y-3.2
X2.45Y-3.2
X2.75Y-3.2
X2.85Y-3.2
X2.95Y-3.2
X3.25Y-3.2
X3.25Y-4.1
X3.35Y-3.2
X3.35Y-4.1
X3.45Y-3.2
X3.45Y-4.1
X3.55Y-3.2
X3.55Y-4.1
X3.65Y-3.2
X3.65Y-4.1
X3.75Y-3.2
X3.75Y-4.1
X3.85Y-3.2
X3.85Y-4.1
X3.95Y-3.2
X3.95Y-4.1
X4.25Y-3.2
X4.35Y-3.2
X4.35Y-4.3
X4.45Y-3.2
X4.45Y-4.3
X4.55Y-3.2
X4.65Y-3.2
X5.1Y-3.2
X5.1Y-4.1
X5.2Y-3.2
X5.2Y-4.1
X5.3Y-3.2
X5.3Y-4.1
X5.4Y-3.2
X5.4Y-4.1
X5.5Y-3.2
X5.5Y-4.1
X5.6Y-3.2
X5.6Y-4.1
X5.7Y-3.2
X5.7Y-4.1
X5.8Y-3.2
X5.8Y-4.1
X6.1Y-3.2
X6.2Y-3.2
X6.3Y-3.2
X6.8953Y-3.2
X6.8953Y-4.1
X6.9953Y-3.2
X6.9953Y-4.1
X7.0953Y-3.2
X7.0953Y-4.1
X7.1953Y-3.2
X7.1953Y-4.1
X7.2953Y-3.2
X7.2953Y-4.1
X7.3953Y-3.2
X7.3953Y-4.1
X7.4953Y-3.2
X7.4953Y-4.1
X7.5953Y-3.2
X7.5953Y-4.1
X7.8953Y-3.2
X7.9953Y-3.2
X8.0953Y-3.2
X8.7Y-3.2
X8.7Y-4.1
X8.8Y-3.2
X8.8Y-4.1
X8.9Y-3.2
X8.9Y-4.1
X9.0Y-3.2
X9.0Y-4.1
X9.1Y-3.2
X9.1Y-4.1
X9.2Y-3.2
X9.2Y-4.1
X9.3Y-3.2
X9.3Y-4.1
X9.4Y-3.2
X9.4Y-4.1
X9.7Y-3.2
X9.8Y-3.2
X9.9Y-3.2
T5
X2.2941Y-3.5614
X2.2941Y-3.7386
X2.55Y-3.5614
X2.55Y-3.7386
T0
M30
