%TF.GenerationSoftware,KiCad,Pcbnew,7.0.6*%
%TF.CreationDate,2023-07-08T12:11:32+08:00*%
%TF.ProjectId,DigitalProtoBoard,44696769-7461-46c5-9072-6f746f426f61,rev?*%
%TF.SameCoordinates,Original*%
%TF.FileFunction,Legend,Top*%
%TF.FilePolarity,Positive*%
%FSLAX46Y46*%
G04 Gerber Fmt 4.6, Leading zero omitted, Abs format (unit mm)*
G04 Created by KiCad (PCBNEW 7.0.6) date 2023-07-08 12:11:32*
%MOMM*%
%LPD*%
G01*
G04 APERTURE LIST*
%ADD10C,0.150000*%
%ADD11C,0.300000*%
%ADD12C,0.120000*%
G04 APERTURE END LIST*
D10*
X192106779Y-102104819D02*
X192106779Y-101104819D01*
X192106779Y-101104819D02*
X192344874Y-101104819D01*
X192344874Y-101104819D02*
X192487731Y-101152438D01*
X192487731Y-101152438D02*
X192582969Y-101247676D01*
X192582969Y-101247676D02*
X192630588Y-101342914D01*
X192630588Y-101342914D02*
X192678207Y-101533390D01*
X192678207Y-101533390D02*
X192678207Y-101676247D01*
X192678207Y-101676247D02*
X192630588Y-101866723D01*
X192630588Y-101866723D02*
X192582969Y-101961961D01*
X192582969Y-101961961D02*
X192487731Y-102057200D01*
X192487731Y-102057200D02*
X192344874Y-102104819D01*
X192344874Y-102104819D02*
X192106779Y-102104819D01*
X193297255Y-101104819D02*
X193392493Y-101104819D01*
X193392493Y-101104819D02*
X193487731Y-101152438D01*
X193487731Y-101152438D02*
X193535350Y-101200057D01*
X193535350Y-101200057D02*
X193582969Y-101295295D01*
X193582969Y-101295295D02*
X193630588Y-101485771D01*
X193630588Y-101485771D02*
X193630588Y-101723866D01*
X193630588Y-101723866D02*
X193582969Y-101914342D01*
X193582969Y-101914342D02*
X193535350Y-102009580D01*
X193535350Y-102009580D02*
X193487731Y-102057200D01*
X193487731Y-102057200D02*
X193392493Y-102104819D01*
X193392493Y-102104819D02*
X193297255Y-102104819D01*
X193297255Y-102104819D02*
X193202017Y-102057200D01*
X193202017Y-102057200D02*
X193154398Y-102009580D01*
X193154398Y-102009580D02*
X193106779Y-101914342D01*
X193106779Y-101914342D02*
X193059160Y-101723866D01*
X193059160Y-101723866D02*
X193059160Y-101485771D01*
X193059160Y-101485771D02*
X193106779Y-101295295D01*
X193106779Y-101295295D02*
X193154398Y-101200057D01*
X193154398Y-101200057D02*
X193202017Y-101152438D01*
X193202017Y-101152438D02*
X193297255Y-101104819D01*
X174326779Y-102104819D02*
X174326779Y-101104819D01*
X174326779Y-101104819D02*
X174564874Y-101104819D01*
X174564874Y-101104819D02*
X174707731Y-101152438D01*
X174707731Y-101152438D02*
X174802969Y-101247676D01*
X174802969Y-101247676D02*
X174850588Y-101342914D01*
X174850588Y-101342914D02*
X174898207Y-101533390D01*
X174898207Y-101533390D02*
X174898207Y-101676247D01*
X174898207Y-101676247D02*
X174850588Y-101866723D01*
X174850588Y-101866723D02*
X174802969Y-101961961D01*
X174802969Y-101961961D02*
X174707731Y-102057200D01*
X174707731Y-102057200D02*
X174564874Y-102104819D01*
X174564874Y-102104819D02*
X174326779Y-102104819D01*
X175231541Y-101104819D02*
X175898207Y-101104819D01*
X175898207Y-101104819D02*
X175469636Y-102104819D01*
X176530000Y-101600000D02*
X191770000Y-101600000D01*
X238461779Y-102104819D02*
X238461779Y-101104819D01*
X238461779Y-101104819D02*
X238699874Y-101104819D01*
X238699874Y-101104819D02*
X238842731Y-101152438D01*
X238842731Y-101152438D02*
X238937969Y-101247676D01*
X238937969Y-101247676D02*
X238985588Y-101342914D01*
X238985588Y-101342914D02*
X239033207Y-101533390D01*
X239033207Y-101533390D02*
X239033207Y-101676247D01*
X239033207Y-101676247D02*
X238985588Y-101866723D01*
X238985588Y-101866723D02*
X238937969Y-101961961D01*
X238937969Y-101961961D02*
X238842731Y-102057200D01*
X238842731Y-102057200D02*
X238699874Y-102104819D01*
X238699874Y-102104819D02*
X238461779Y-102104819D01*
X239652255Y-101104819D02*
X239747493Y-101104819D01*
X239747493Y-101104819D02*
X239842731Y-101152438D01*
X239842731Y-101152438D02*
X239890350Y-101200057D01*
X239890350Y-101200057D02*
X239937969Y-101295295D01*
X239937969Y-101295295D02*
X239985588Y-101485771D01*
X239985588Y-101485771D02*
X239985588Y-101723866D01*
X239985588Y-101723866D02*
X239937969Y-101914342D01*
X239937969Y-101914342D02*
X239890350Y-102009580D01*
X239890350Y-102009580D02*
X239842731Y-102057200D01*
X239842731Y-102057200D02*
X239747493Y-102104819D01*
X239747493Y-102104819D02*
X239652255Y-102104819D01*
X239652255Y-102104819D02*
X239557017Y-102057200D01*
X239557017Y-102057200D02*
X239509398Y-102009580D01*
X239509398Y-102009580D02*
X239461779Y-101914342D01*
X239461779Y-101914342D02*
X239414160Y-101723866D01*
X239414160Y-101723866D02*
X239414160Y-101485771D01*
X239414160Y-101485771D02*
X239461779Y-101295295D01*
X239461779Y-101295295D02*
X239509398Y-101200057D01*
X239509398Y-101200057D02*
X239557017Y-101152438D01*
X239557017Y-101152438D02*
X239652255Y-101104819D01*
X220681779Y-102104819D02*
X220681779Y-101104819D01*
X220681779Y-101104819D02*
X220919874Y-101104819D01*
X220919874Y-101104819D02*
X221062731Y-101152438D01*
X221062731Y-101152438D02*
X221157969Y-101247676D01*
X221157969Y-101247676D02*
X221205588Y-101342914D01*
X221205588Y-101342914D02*
X221253207Y-101533390D01*
X221253207Y-101533390D02*
X221253207Y-101676247D01*
X221253207Y-101676247D02*
X221205588Y-101866723D01*
X221205588Y-101866723D02*
X221157969Y-101961961D01*
X221157969Y-101961961D02*
X221062731Y-102057200D01*
X221062731Y-102057200D02*
X220919874Y-102104819D01*
X220919874Y-102104819D02*
X220681779Y-102104819D01*
X221586541Y-101104819D02*
X222253207Y-101104819D01*
X222253207Y-101104819D02*
X221824636Y-102104819D01*
X222885000Y-101600000D02*
X238125000Y-101600000D01*
X147021779Y-102104819D02*
X147021779Y-101104819D01*
X147021779Y-101104819D02*
X147259874Y-101104819D01*
X147259874Y-101104819D02*
X147402731Y-101152438D01*
X147402731Y-101152438D02*
X147497969Y-101247676D01*
X147497969Y-101247676D02*
X147545588Y-101342914D01*
X147545588Y-101342914D02*
X147593207Y-101533390D01*
X147593207Y-101533390D02*
X147593207Y-101676247D01*
X147593207Y-101676247D02*
X147545588Y-101866723D01*
X147545588Y-101866723D02*
X147497969Y-101961961D01*
X147497969Y-101961961D02*
X147402731Y-102057200D01*
X147402731Y-102057200D02*
X147259874Y-102104819D01*
X147259874Y-102104819D02*
X147021779Y-102104819D01*
X148212255Y-101104819D02*
X148307493Y-101104819D01*
X148307493Y-101104819D02*
X148402731Y-101152438D01*
X148402731Y-101152438D02*
X148450350Y-101200057D01*
X148450350Y-101200057D02*
X148497969Y-101295295D01*
X148497969Y-101295295D02*
X148545588Y-101485771D01*
X148545588Y-101485771D02*
X148545588Y-101723866D01*
X148545588Y-101723866D02*
X148497969Y-101914342D01*
X148497969Y-101914342D02*
X148450350Y-102009580D01*
X148450350Y-102009580D02*
X148402731Y-102057200D01*
X148402731Y-102057200D02*
X148307493Y-102104819D01*
X148307493Y-102104819D02*
X148212255Y-102104819D01*
X148212255Y-102104819D02*
X148117017Y-102057200D01*
X148117017Y-102057200D02*
X148069398Y-102009580D01*
X148069398Y-102009580D02*
X148021779Y-101914342D01*
X148021779Y-101914342D02*
X147974160Y-101723866D01*
X147974160Y-101723866D02*
X147974160Y-101485771D01*
X147974160Y-101485771D02*
X148021779Y-101295295D01*
X148021779Y-101295295D02*
X148069398Y-101200057D01*
X148069398Y-101200057D02*
X148117017Y-101152438D01*
X148117017Y-101152438D02*
X148212255Y-101104819D01*
X129241779Y-102104819D02*
X129241779Y-101104819D01*
X129241779Y-101104819D02*
X129479874Y-101104819D01*
X129479874Y-101104819D02*
X129622731Y-101152438D01*
X129622731Y-101152438D02*
X129717969Y-101247676D01*
X129717969Y-101247676D02*
X129765588Y-101342914D01*
X129765588Y-101342914D02*
X129813207Y-101533390D01*
X129813207Y-101533390D02*
X129813207Y-101676247D01*
X129813207Y-101676247D02*
X129765588Y-101866723D01*
X129765588Y-101866723D02*
X129717969Y-101961961D01*
X129717969Y-101961961D02*
X129622731Y-102057200D01*
X129622731Y-102057200D02*
X129479874Y-102104819D01*
X129479874Y-102104819D02*
X129241779Y-102104819D01*
X130146541Y-101104819D02*
X130813207Y-101104819D01*
X130813207Y-101104819D02*
X130384636Y-102104819D01*
X131445000Y-101600000D02*
X146685000Y-101600000D01*
X100031779Y-102104819D02*
X100031779Y-101104819D01*
X100031779Y-101104819D02*
X100269874Y-101104819D01*
X100269874Y-101104819D02*
X100412731Y-101152438D01*
X100412731Y-101152438D02*
X100507969Y-101247676D01*
X100507969Y-101247676D02*
X100555588Y-101342914D01*
X100555588Y-101342914D02*
X100603207Y-101533390D01*
X100603207Y-101533390D02*
X100603207Y-101676247D01*
X100603207Y-101676247D02*
X100555588Y-101866723D01*
X100555588Y-101866723D02*
X100507969Y-101961961D01*
X100507969Y-101961961D02*
X100412731Y-102057200D01*
X100412731Y-102057200D02*
X100269874Y-102104819D01*
X100269874Y-102104819D02*
X100031779Y-102104819D01*
X101222255Y-101104819D02*
X101317493Y-101104819D01*
X101317493Y-101104819D02*
X101412731Y-101152438D01*
X101412731Y-101152438D02*
X101460350Y-101200057D01*
X101460350Y-101200057D02*
X101507969Y-101295295D01*
X101507969Y-101295295D02*
X101555588Y-101485771D01*
X101555588Y-101485771D02*
X101555588Y-101723866D01*
X101555588Y-101723866D02*
X101507969Y-101914342D01*
X101507969Y-101914342D02*
X101460350Y-102009580D01*
X101460350Y-102009580D02*
X101412731Y-102057200D01*
X101412731Y-102057200D02*
X101317493Y-102104819D01*
X101317493Y-102104819D02*
X101222255Y-102104819D01*
X101222255Y-102104819D02*
X101127017Y-102057200D01*
X101127017Y-102057200D02*
X101079398Y-102009580D01*
X101079398Y-102009580D02*
X101031779Y-101914342D01*
X101031779Y-101914342D02*
X100984160Y-101723866D01*
X100984160Y-101723866D02*
X100984160Y-101485771D01*
X100984160Y-101485771D02*
X101031779Y-101295295D01*
X101031779Y-101295295D02*
X101079398Y-101200057D01*
X101079398Y-101200057D02*
X101127017Y-101152438D01*
X101127017Y-101152438D02*
X101222255Y-101104819D01*
X82251779Y-102104819D02*
X82251779Y-101104819D01*
X82251779Y-101104819D02*
X82489874Y-101104819D01*
X82489874Y-101104819D02*
X82632731Y-101152438D01*
X82632731Y-101152438D02*
X82727969Y-101247676D01*
X82727969Y-101247676D02*
X82775588Y-101342914D01*
X82775588Y-101342914D02*
X82823207Y-101533390D01*
X82823207Y-101533390D02*
X82823207Y-101676247D01*
X82823207Y-101676247D02*
X82775588Y-101866723D01*
X82775588Y-101866723D02*
X82727969Y-101961961D01*
X82727969Y-101961961D02*
X82632731Y-102057200D01*
X82632731Y-102057200D02*
X82489874Y-102104819D01*
X82489874Y-102104819D02*
X82251779Y-102104819D01*
X83156541Y-101104819D02*
X83823207Y-101104819D01*
X83823207Y-101104819D02*
X83394636Y-102104819D01*
X84455000Y-101600000D02*
X99695000Y-101600000D01*
X177045000Y-78740000D02*
X192285000Y-78740000D01*
X84455000Y-78740000D02*
X99695000Y-78740000D01*
X223012000Y-78740000D02*
X238252000Y-78740000D01*
X131445000Y-78740000D02*
X146685000Y-78740000D01*
X192621779Y-79244819D02*
X192621779Y-78244819D01*
X192621779Y-78244819D02*
X192859874Y-78244819D01*
X192859874Y-78244819D02*
X193002731Y-78292438D01*
X193002731Y-78292438D02*
X193097969Y-78387676D01*
X193097969Y-78387676D02*
X193145588Y-78482914D01*
X193145588Y-78482914D02*
X193193207Y-78673390D01*
X193193207Y-78673390D02*
X193193207Y-78816247D01*
X193193207Y-78816247D02*
X193145588Y-79006723D01*
X193145588Y-79006723D02*
X193097969Y-79101961D01*
X193097969Y-79101961D02*
X193002731Y-79197200D01*
X193002731Y-79197200D02*
X192859874Y-79244819D01*
X192859874Y-79244819D02*
X192621779Y-79244819D01*
X193812255Y-78244819D02*
X193907493Y-78244819D01*
X193907493Y-78244819D02*
X194002731Y-78292438D01*
X194002731Y-78292438D02*
X194050350Y-78340057D01*
X194050350Y-78340057D02*
X194097969Y-78435295D01*
X194097969Y-78435295D02*
X194145588Y-78625771D01*
X194145588Y-78625771D02*
X194145588Y-78863866D01*
X194145588Y-78863866D02*
X194097969Y-79054342D01*
X194097969Y-79054342D02*
X194050350Y-79149580D01*
X194050350Y-79149580D02*
X194002731Y-79197200D01*
X194002731Y-79197200D02*
X193907493Y-79244819D01*
X193907493Y-79244819D02*
X193812255Y-79244819D01*
X193812255Y-79244819D02*
X193717017Y-79197200D01*
X193717017Y-79197200D02*
X193669398Y-79149580D01*
X193669398Y-79149580D02*
X193621779Y-79054342D01*
X193621779Y-79054342D02*
X193574160Y-78863866D01*
X193574160Y-78863866D02*
X193574160Y-78625771D01*
X193574160Y-78625771D02*
X193621779Y-78435295D01*
X193621779Y-78435295D02*
X193669398Y-78340057D01*
X193669398Y-78340057D02*
X193717017Y-78292438D01*
X193717017Y-78292438D02*
X193812255Y-78244819D01*
X82251779Y-79244819D02*
X82251779Y-78244819D01*
X82251779Y-78244819D02*
X82489874Y-78244819D01*
X82489874Y-78244819D02*
X82632731Y-78292438D01*
X82632731Y-78292438D02*
X82727969Y-78387676D01*
X82727969Y-78387676D02*
X82775588Y-78482914D01*
X82775588Y-78482914D02*
X82823207Y-78673390D01*
X82823207Y-78673390D02*
X82823207Y-78816247D01*
X82823207Y-78816247D02*
X82775588Y-79006723D01*
X82775588Y-79006723D02*
X82727969Y-79101961D01*
X82727969Y-79101961D02*
X82632731Y-79197200D01*
X82632731Y-79197200D02*
X82489874Y-79244819D01*
X82489874Y-79244819D02*
X82251779Y-79244819D01*
X83156541Y-78244819D02*
X83823207Y-78244819D01*
X83823207Y-78244819D02*
X83394636Y-79244819D01*
X251869580Y-79101792D02*
X251917200Y-79149411D01*
X251917200Y-79149411D02*
X251964819Y-79292268D01*
X251964819Y-79292268D02*
X251964819Y-79387506D01*
X251964819Y-79387506D02*
X251917200Y-79530363D01*
X251917200Y-79530363D02*
X251821961Y-79625601D01*
X251821961Y-79625601D02*
X251726723Y-79673220D01*
X251726723Y-79673220D02*
X251536247Y-79720839D01*
X251536247Y-79720839D02*
X251393390Y-79720839D01*
X251393390Y-79720839D02*
X251202914Y-79673220D01*
X251202914Y-79673220D02*
X251107676Y-79625601D01*
X251107676Y-79625601D02*
X251012438Y-79530363D01*
X251012438Y-79530363D02*
X250964819Y-79387506D01*
X250964819Y-79387506D02*
X250964819Y-79292268D01*
X250964819Y-79292268D02*
X251012438Y-79149411D01*
X251012438Y-79149411D02*
X251060057Y-79101792D01*
X251964819Y-78197030D02*
X251964819Y-78673220D01*
X251964819Y-78673220D02*
X250964819Y-78673220D01*
X251964819Y-77863696D02*
X250964819Y-77863696D01*
X251964819Y-77292268D02*
X251393390Y-77720839D01*
X250964819Y-77292268D02*
X251536247Y-77863696D01*
X249329580Y-79101792D02*
X249377200Y-79149411D01*
X249377200Y-79149411D02*
X249424819Y-79292268D01*
X249424819Y-79292268D02*
X249424819Y-79387506D01*
X249424819Y-79387506D02*
X249377200Y-79530363D01*
X249377200Y-79530363D02*
X249281961Y-79625601D01*
X249281961Y-79625601D02*
X249186723Y-79673220D01*
X249186723Y-79673220D02*
X248996247Y-79720839D01*
X248996247Y-79720839D02*
X248853390Y-79720839D01*
X248853390Y-79720839D02*
X248662914Y-79673220D01*
X248662914Y-79673220D02*
X248567676Y-79625601D01*
X248567676Y-79625601D02*
X248472438Y-79530363D01*
X248472438Y-79530363D02*
X248424819Y-79387506D01*
X248424819Y-79387506D02*
X248424819Y-79292268D01*
X248424819Y-79292268D02*
X248472438Y-79149411D01*
X248472438Y-79149411D02*
X248520057Y-79101792D01*
X249424819Y-78673220D02*
X248424819Y-78673220D01*
X248424819Y-78673220D02*
X248424819Y-78292268D01*
X248424819Y-78292268D02*
X248472438Y-78197030D01*
X248472438Y-78197030D02*
X248520057Y-78149411D01*
X248520057Y-78149411D02*
X248615295Y-78101792D01*
X248615295Y-78101792D02*
X248758152Y-78101792D01*
X248758152Y-78101792D02*
X248853390Y-78149411D01*
X248853390Y-78149411D02*
X248901009Y-78197030D01*
X248901009Y-78197030D02*
X248948628Y-78292268D01*
X248948628Y-78292268D02*
X248948628Y-78673220D01*
X108454819Y-79038220D02*
X107454819Y-79038220D01*
X107454819Y-79038220D02*
X107454819Y-78657268D01*
X107454819Y-78657268D02*
X107502438Y-78562030D01*
X107502438Y-78562030D02*
X107550057Y-78514411D01*
X107550057Y-78514411D02*
X107645295Y-78466792D01*
X107645295Y-78466792D02*
X107788152Y-78466792D01*
X107788152Y-78466792D02*
X107883390Y-78514411D01*
X107883390Y-78514411D02*
X107931009Y-78562030D01*
X107931009Y-78562030D02*
X107978628Y-78657268D01*
X107978628Y-78657268D02*
X107978628Y-79038220D01*
X107454819Y-78038220D02*
X108264342Y-78038220D01*
X108264342Y-78038220D02*
X108359580Y-77990601D01*
X108359580Y-77990601D02*
X108407200Y-77942982D01*
X108407200Y-77942982D02*
X108454819Y-77847744D01*
X108454819Y-77847744D02*
X108454819Y-77657268D01*
X108454819Y-77657268D02*
X108407200Y-77562030D01*
X108407200Y-77562030D02*
X108359580Y-77514411D01*
X108359580Y-77514411D02*
X108264342Y-77466792D01*
X108264342Y-77466792D02*
X107454819Y-77466792D01*
X108454819Y-76514411D02*
X108454819Y-76990601D01*
X108454819Y-76990601D02*
X107454819Y-76990601D01*
X108407200Y-76228696D02*
X108454819Y-76085839D01*
X108454819Y-76085839D02*
X108454819Y-75847744D01*
X108454819Y-75847744D02*
X108407200Y-75752506D01*
X108407200Y-75752506D02*
X108359580Y-75704887D01*
X108359580Y-75704887D02*
X108264342Y-75657268D01*
X108264342Y-75657268D02*
X108169104Y-75657268D01*
X108169104Y-75657268D02*
X108073866Y-75704887D01*
X108073866Y-75704887D02*
X108026247Y-75752506D01*
X108026247Y-75752506D02*
X107978628Y-75847744D01*
X107978628Y-75847744D02*
X107931009Y-76038220D01*
X107931009Y-76038220D02*
X107883390Y-76133458D01*
X107883390Y-76133458D02*
X107835771Y-76181077D01*
X107835771Y-76181077D02*
X107740533Y-76228696D01*
X107740533Y-76228696D02*
X107645295Y-76228696D01*
X107645295Y-76228696D02*
X107550057Y-76181077D01*
X107550057Y-76181077D02*
X107502438Y-76133458D01*
X107502438Y-76133458D02*
X107454819Y-76038220D01*
X107454819Y-76038220D02*
X107454819Y-75800125D01*
X107454819Y-75800125D02*
X107502438Y-75657268D01*
X107931009Y-75228696D02*
X107931009Y-74895363D01*
X108454819Y-74752506D02*
X108454819Y-75228696D01*
X108454819Y-75228696D02*
X107454819Y-75228696D01*
X107454819Y-75228696D02*
X107454819Y-74752506D01*
X118519580Y-78466792D02*
X118567200Y-78514411D01*
X118567200Y-78514411D02*
X118614819Y-78657268D01*
X118614819Y-78657268D02*
X118614819Y-78752506D01*
X118614819Y-78752506D02*
X118567200Y-78895363D01*
X118567200Y-78895363D02*
X118471961Y-78990601D01*
X118471961Y-78990601D02*
X118376723Y-79038220D01*
X118376723Y-79038220D02*
X118186247Y-79085839D01*
X118186247Y-79085839D02*
X118043390Y-79085839D01*
X118043390Y-79085839D02*
X117852914Y-79038220D01*
X117852914Y-79038220D02*
X117757676Y-78990601D01*
X117757676Y-78990601D02*
X117662438Y-78895363D01*
X117662438Y-78895363D02*
X117614819Y-78752506D01*
X117614819Y-78752506D02*
X117614819Y-78657268D01*
X117614819Y-78657268D02*
X117662438Y-78514411D01*
X117662438Y-78514411D02*
X117710057Y-78466792D01*
X118567200Y-78085839D02*
X118614819Y-77942982D01*
X118614819Y-77942982D02*
X118614819Y-77704887D01*
X118614819Y-77704887D02*
X118567200Y-77609649D01*
X118567200Y-77609649D02*
X118519580Y-77562030D01*
X118519580Y-77562030D02*
X118424342Y-77514411D01*
X118424342Y-77514411D02*
X118329104Y-77514411D01*
X118329104Y-77514411D02*
X118233866Y-77562030D01*
X118233866Y-77562030D02*
X118186247Y-77609649D01*
X118186247Y-77609649D02*
X118138628Y-77704887D01*
X118138628Y-77704887D02*
X118091009Y-77895363D01*
X118091009Y-77895363D02*
X118043390Y-77990601D01*
X118043390Y-77990601D02*
X117995771Y-78038220D01*
X117995771Y-78038220D02*
X117900533Y-78085839D01*
X117900533Y-78085839D02*
X117805295Y-78085839D01*
X117805295Y-78085839D02*
X117710057Y-78038220D01*
X117710057Y-78038220D02*
X117662438Y-77990601D01*
X117662438Y-77990601D02*
X117614819Y-77895363D01*
X117614819Y-77895363D02*
X117614819Y-77657268D01*
X117614819Y-77657268D02*
X117662438Y-77514411D01*
X118091009Y-76752506D02*
X118138628Y-76609649D01*
X118138628Y-76609649D02*
X118186247Y-76562030D01*
X118186247Y-76562030D02*
X118281485Y-76514411D01*
X118281485Y-76514411D02*
X118424342Y-76514411D01*
X118424342Y-76514411D02*
X118519580Y-76562030D01*
X118519580Y-76562030D02*
X118567200Y-76609649D01*
X118567200Y-76609649D02*
X118614819Y-76704887D01*
X118614819Y-76704887D02*
X118614819Y-77085839D01*
X118614819Y-77085839D02*
X117614819Y-77085839D01*
X117614819Y-77085839D02*
X117614819Y-76752506D01*
X117614819Y-76752506D02*
X117662438Y-76657268D01*
X117662438Y-76657268D02*
X117710057Y-76609649D01*
X117710057Y-76609649D02*
X117805295Y-76562030D01*
X117805295Y-76562030D02*
X117900533Y-76562030D01*
X117900533Y-76562030D02*
X117995771Y-76609649D01*
X117995771Y-76609649D02*
X118043390Y-76657268D01*
X118043390Y-76657268D02*
X118091009Y-76752506D01*
X118091009Y-76752506D02*
X118091009Y-77085839D01*
X75339580Y-78466792D02*
X75387200Y-78514411D01*
X75387200Y-78514411D02*
X75434819Y-78657268D01*
X75434819Y-78657268D02*
X75434819Y-78752506D01*
X75434819Y-78752506D02*
X75387200Y-78895363D01*
X75387200Y-78895363D02*
X75291961Y-78990601D01*
X75291961Y-78990601D02*
X75196723Y-79038220D01*
X75196723Y-79038220D02*
X75006247Y-79085839D01*
X75006247Y-79085839D02*
X74863390Y-79085839D01*
X74863390Y-79085839D02*
X74672914Y-79038220D01*
X74672914Y-79038220D02*
X74577676Y-78990601D01*
X74577676Y-78990601D02*
X74482438Y-78895363D01*
X74482438Y-78895363D02*
X74434819Y-78752506D01*
X74434819Y-78752506D02*
X74434819Y-78657268D01*
X74434819Y-78657268D02*
X74482438Y-78514411D01*
X74482438Y-78514411D02*
X74530057Y-78466792D01*
X75387200Y-78085839D02*
X75434819Y-77942982D01*
X75434819Y-77942982D02*
X75434819Y-77704887D01*
X75434819Y-77704887D02*
X75387200Y-77609649D01*
X75387200Y-77609649D02*
X75339580Y-77562030D01*
X75339580Y-77562030D02*
X75244342Y-77514411D01*
X75244342Y-77514411D02*
X75149104Y-77514411D01*
X75149104Y-77514411D02*
X75053866Y-77562030D01*
X75053866Y-77562030D02*
X75006247Y-77609649D01*
X75006247Y-77609649D02*
X74958628Y-77704887D01*
X74958628Y-77704887D02*
X74911009Y-77895363D01*
X74911009Y-77895363D02*
X74863390Y-77990601D01*
X74863390Y-77990601D02*
X74815771Y-78038220D01*
X74815771Y-78038220D02*
X74720533Y-78085839D01*
X74720533Y-78085839D02*
X74625295Y-78085839D01*
X74625295Y-78085839D02*
X74530057Y-78038220D01*
X74530057Y-78038220D02*
X74482438Y-77990601D01*
X74482438Y-77990601D02*
X74434819Y-77895363D01*
X74434819Y-77895363D02*
X74434819Y-77657268D01*
X74434819Y-77657268D02*
X74482438Y-77514411D01*
X74911009Y-76752506D02*
X74958628Y-76609649D01*
X74958628Y-76609649D02*
X75006247Y-76562030D01*
X75006247Y-76562030D02*
X75101485Y-76514411D01*
X75101485Y-76514411D02*
X75244342Y-76514411D01*
X75244342Y-76514411D02*
X75339580Y-76562030D01*
X75339580Y-76562030D02*
X75387200Y-76609649D01*
X75387200Y-76609649D02*
X75434819Y-76704887D01*
X75434819Y-76704887D02*
X75434819Y-77085839D01*
X75434819Y-77085839D02*
X74434819Y-77085839D01*
X74434819Y-77085839D02*
X74434819Y-76752506D01*
X74434819Y-76752506D02*
X74482438Y-76657268D01*
X74482438Y-76657268D02*
X74530057Y-76609649D01*
X74530057Y-76609649D02*
X74625295Y-76562030D01*
X74625295Y-76562030D02*
X74720533Y-76562030D01*
X74720533Y-76562030D02*
X74815771Y-76609649D01*
X74815771Y-76609649D02*
X74863390Y-76657268D01*
X74863390Y-76657268D02*
X74911009Y-76752506D01*
X74911009Y-76752506D02*
X74911009Y-77085839D01*
X157889580Y-78466792D02*
X157937200Y-78514411D01*
X157937200Y-78514411D02*
X157984819Y-78657268D01*
X157984819Y-78657268D02*
X157984819Y-78752506D01*
X157984819Y-78752506D02*
X157937200Y-78895363D01*
X157937200Y-78895363D02*
X157841961Y-78990601D01*
X157841961Y-78990601D02*
X157746723Y-79038220D01*
X157746723Y-79038220D02*
X157556247Y-79085839D01*
X157556247Y-79085839D02*
X157413390Y-79085839D01*
X157413390Y-79085839D02*
X157222914Y-79038220D01*
X157222914Y-79038220D02*
X157127676Y-78990601D01*
X157127676Y-78990601D02*
X157032438Y-78895363D01*
X157032438Y-78895363D02*
X156984819Y-78752506D01*
X156984819Y-78752506D02*
X156984819Y-78657268D01*
X156984819Y-78657268D02*
X157032438Y-78514411D01*
X157032438Y-78514411D02*
X157080057Y-78466792D01*
X157984819Y-78038220D02*
X156984819Y-78038220D01*
X156984819Y-78038220D02*
X156984819Y-77657268D01*
X156984819Y-77657268D02*
X157032438Y-77562030D01*
X157032438Y-77562030D02*
X157080057Y-77514411D01*
X157080057Y-77514411D02*
X157175295Y-77466792D01*
X157175295Y-77466792D02*
X157318152Y-77466792D01*
X157318152Y-77466792D02*
X157413390Y-77514411D01*
X157413390Y-77514411D02*
X157461009Y-77562030D01*
X157461009Y-77562030D02*
X157508628Y-77657268D01*
X157508628Y-77657268D02*
X157508628Y-78038220D01*
X115074819Y-78847744D02*
X115074819Y-78657268D01*
X115074819Y-78657268D02*
X115122438Y-78562030D01*
X115122438Y-78562030D02*
X115217676Y-78466792D01*
X115217676Y-78466792D02*
X115408152Y-78419173D01*
X115408152Y-78419173D02*
X115741485Y-78419173D01*
X115741485Y-78419173D02*
X115931961Y-78466792D01*
X115931961Y-78466792D02*
X116027200Y-78562030D01*
X116027200Y-78562030D02*
X116074819Y-78657268D01*
X116074819Y-78657268D02*
X116074819Y-78847744D01*
X116074819Y-78847744D02*
X116027200Y-78942982D01*
X116027200Y-78942982D02*
X115931961Y-79038220D01*
X115931961Y-79038220D02*
X115741485Y-79085839D01*
X115741485Y-79085839D02*
X115408152Y-79085839D01*
X115408152Y-79085839D02*
X115217676Y-79038220D01*
X115217676Y-79038220D02*
X115122438Y-78942982D01*
X115122438Y-78942982D02*
X115074819Y-78847744D01*
X115551009Y-77990601D02*
X115551009Y-77657268D01*
X116074819Y-77514411D02*
X116074819Y-77990601D01*
X116074819Y-77990601D02*
X115074819Y-77990601D01*
X115074819Y-77990601D02*
X115074819Y-77514411D01*
X113439580Y-78466792D02*
X113487200Y-78514411D01*
X113487200Y-78514411D02*
X113534819Y-78657268D01*
X113534819Y-78657268D02*
X113534819Y-78752506D01*
X113534819Y-78752506D02*
X113487200Y-78895363D01*
X113487200Y-78895363D02*
X113391961Y-78990601D01*
X113391961Y-78990601D02*
X113296723Y-79038220D01*
X113296723Y-79038220D02*
X113106247Y-79085839D01*
X113106247Y-79085839D02*
X112963390Y-79085839D01*
X112963390Y-79085839D02*
X112772914Y-79038220D01*
X112772914Y-79038220D02*
X112677676Y-78990601D01*
X112677676Y-78990601D02*
X112582438Y-78895363D01*
X112582438Y-78895363D02*
X112534819Y-78752506D01*
X112534819Y-78752506D02*
X112534819Y-78657268D01*
X112534819Y-78657268D02*
X112582438Y-78514411D01*
X112582438Y-78514411D02*
X112630057Y-78466792D01*
X113534819Y-77562030D02*
X113534819Y-78038220D01*
X113534819Y-78038220D02*
X112534819Y-78038220D01*
X113534819Y-77228696D02*
X112534819Y-77228696D01*
X113534819Y-76657268D02*
X112963390Y-77085839D01*
X112534819Y-76657268D02*
X113106247Y-77228696D01*
X147021779Y-79244819D02*
X147021779Y-78244819D01*
X147021779Y-78244819D02*
X147259874Y-78244819D01*
X147259874Y-78244819D02*
X147402731Y-78292438D01*
X147402731Y-78292438D02*
X147497969Y-78387676D01*
X147497969Y-78387676D02*
X147545588Y-78482914D01*
X147545588Y-78482914D02*
X147593207Y-78673390D01*
X147593207Y-78673390D02*
X147593207Y-78816247D01*
X147593207Y-78816247D02*
X147545588Y-79006723D01*
X147545588Y-79006723D02*
X147497969Y-79101961D01*
X147497969Y-79101961D02*
X147402731Y-79197200D01*
X147402731Y-79197200D02*
X147259874Y-79244819D01*
X147259874Y-79244819D02*
X147021779Y-79244819D01*
X148212255Y-78244819D02*
X148307493Y-78244819D01*
X148307493Y-78244819D02*
X148402731Y-78292438D01*
X148402731Y-78292438D02*
X148450350Y-78340057D01*
X148450350Y-78340057D02*
X148497969Y-78435295D01*
X148497969Y-78435295D02*
X148545588Y-78625771D01*
X148545588Y-78625771D02*
X148545588Y-78863866D01*
X148545588Y-78863866D02*
X148497969Y-79054342D01*
X148497969Y-79054342D02*
X148450350Y-79149580D01*
X148450350Y-79149580D02*
X148402731Y-79197200D01*
X148402731Y-79197200D02*
X148307493Y-79244819D01*
X148307493Y-79244819D02*
X148212255Y-79244819D01*
X148212255Y-79244819D02*
X148117017Y-79197200D01*
X148117017Y-79197200D02*
X148069398Y-79149580D01*
X148069398Y-79149580D02*
X148021779Y-79054342D01*
X148021779Y-79054342D02*
X147974160Y-78863866D01*
X147974160Y-78863866D02*
X147974160Y-78625771D01*
X147974160Y-78625771D02*
X148021779Y-78435295D01*
X148021779Y-78435295D02*
X148069398Y-78340057D01*
X148069398Y-78340057D02*
X148117017Y-78292438D01*
X148117017Y-78292438D02*
X148212255Y-78244819D01*
X70259580Y-78466792D02*
X70307200Y-78514411D01*
X70307200Y-78514411D02*
X70354819Y-78657268D01*
X70354819Y-78657268D02*
X70354819Y-78752506D01*
X70354819Y-78752506D02*
X70307200Y-78895363D01*
X70307200Y-78895363D02*
X70211961Y-78990601D01*
X70211961Y-78990601D02*
X70116723Y-79038220D01*
X70116723Y-79038220D02*
X69926247Y-79085839D01*
X69926247Y-79085839D02*
X69783390Y-79085839D01*
X69783390Y-79085839D02*
X69592914Y-79038220D01*
X69592914Y-79038220D02*
X69497676Y-78990601D01*
X69497676Y-78990601D02*
X69402438Y-78895363D01*
X69402438Y-78895363D02*
X69354819Y-78752506D01*
X69354819Y-78752506D02*
X69354819Y-78657268D01*
X69354819Y-78657268D02*
X69402438Y-78514411D01*
X69402438Y-78514411D02*
X69450057Y-78466792D01*
X70354819Y-77562030D02*
X70354819Y-78038220D01*
X70354819Y-78038220D02*
X69354819Y-78038220D01*
X70354819Y-77228696D02*
X69354819Y-77228696D01*
X70354819Y-76657268D02*
X69783390Y-77085839D01*
X69354819Y-76657268D02*
X69926247Y-77228696D01*
X160429580Y-78466792D02*
X160477200Y-78514411D01*
X160477200Y-78514411D02*
X160524819Y-78657268D01*
X160524819Y-78657268D02*
X160524819Y-78752506D01*
X160524819Y-78752506D02*
X160477200Y-78895363D01*
X160477200Y-78895363D02*
X160381961Y-78990601D01*
X160381961Y-78990601D02*
X160286723Y-79038220D01*
X160286723Y-79038220D02*
X160096247Y-79085839D01*
X160096247Y-79085839D02*
X159953390Y-79085839D01*
X159953390Y-79085839D02*
X159762914Y-79038220D01*
X159762914Y-79038220D02*
X159667676Y-78990601D01*
X159667676Y-78990601D02*
X159572438Y-78895363D01*
X159572438Y-78895363D02*
X159524819Y-78752506D01*
X159524819Y-78752506D02*
X159524819Y-78657268D01*
X159524819Y-78657268D02*
X159572438Y-78514411D01*
X159572438Y-78514411D02*
X159620057Y-78466792D01*
X160524819Y-77562030D02*
X160524819Y-78038220D01*
X160524819Y-78038220D02*
X159524819Y-78038220D01*
X160524819Y-77228696D02*
X159524819Y-77228696D01*
X160524819Y-76657268D02*
X159953390Y-77085839D01*
X159524819Y-76657268D02*
X160096247Y-77228696D01*
X65344874Y-131827438D02*
X65344874Y-129827438D01*
X65344874Y-129827438D02*
X65821064Y-129827438D01*
X65821064Y-129827438D02*
X66106779Y-129922676D01*
X66106779Y-129922676D02*
X66297255Y-130113152D01*
X66297255Y-130113152D02*
X66392493Y-130303628D01*
X66392493Y-130303628D02*
X66487731Y-130684580D01*
X66487731Y-130684580D02*
X66487731Y-130970295D01*
X66487731Y-130970295D02*
X66392493Y-131351247D01*
X66392493Y-131351247D02*
X66297255Y-131541723D01*
X66297255Y-131541723D02*
X66106779Y-131732200D01*
X66106779Y-131732200D02*
X65821064Y-131827438D01*
X65821064Y-131827438D02*
X65344874Y-131827438D01*
X67344874Y-131827438D02*
X67344874Y-130494104D01*
X67344874Y-129827438D02*
X67249636Y-129922676D01*
X67249636Y-129922676D02*
X67344874Y-130017914D01*
X67344874Y-130017914D02*
X67440112Y-129922676D01*
X67440112Y-129922676D02*
X67344874Y-129827438D01*
X67344874Y-129827438D02*
X67344874Y-130017914D01*
X69154398Y-130494104D02*
X69154398Y-132113152D01*
X69154398Y-132113152D02*
X69059160Y-132303628D01*
X69059160Y-132303628D02*
X68963922Y-132398866D01*
X68963922Y-132398866D02*
X68773445Y-132494104D01*
X68773445Y-132494104D02*
X68487731Y-132494104D01*
X68487731Y-132494104D02*
X68297255Y-132398866D01*
X69154398Y-131732200D02*
X68963922Y-131827438D01*
X68963922Y-131827438D02*
X68582969Y-131827438D01*
X68582969Y-131827438D02*
X68392493Y-131732200D01*
X68392493Y-131732200D02*
X68297255Y-131636961D01*
X68297255Y-131636961D02*
X68202017Y-131446485D01*
X68202017Y-131446485D02*
X68202017Y-130875057D01*
X68202017Y-130875057D02*
X68297255Y-130684580D01*
X68297255Y-130684580D02*
X68392493Y-130589342D01*
X68392493Y-130589342D02*
X68582969Y-130494104D01*
X68582969Y-130494104D02*
X68963922Y-130494104D01*
X68963922Y-130494104D02*
X69154398Y-130589342D01*
X70106779Y-131827438D02*
X70106779Y-130494104D01*
X70106779Y-129827438D02*
X70011541Y-129922676D01*
X70011541Y-129922676D02*
X70106779Y-130017914D01*
X70106779Y-130017914D02*
X70202017Y-129922676D01*
X70202017Y-129922676D02*
X70106779Y-129827438D01*
X70106779Y-129827438D02*
X70106779Y-130017914D01*
X70773446Y-130494104D02*
X71535350Y-130494104D01*
X71059160Y-129827438D02*
X71059160Y-131541723D01*
X71059160Y-131541723D02*
X71154398Y-131732200D01*
X71154398Y-131732200D02*
X71344874Y-131827438D01*
X71344874Y-131827438D02*
X71535350Y-131827438D01*
X73059160Y-131827438D02*
X73059160Y-130779819D01*
X73059160Y-130779819D02*
X72963922Y-130589342D01*
X72963922Y-130589342D02*
X72773446Y-130494104D01*
X72773446Y-130494104D02*
X72392493Y-130494104D01*
X72392493Y-130494104D02*
X72202017Y-130589342D01*
X73059160Y-131732200D02*
X72868684Y-131827438D01*
X72868684Y-131827438D02*
X72392493Y-131827438D01*
X72392493Y-131827438D02*
X72202017Y-131732200D01*
X72202017Y-131732200D02*
X72106779Y-131541723D01*
X72106779Y-131541723D02*
X72106779Y-131351247D01*
X72106779Y-131351247D02*
X72202017Y-131160771D01*
X72202017Y-131160771D02*
X72392493Y-131065533D01*
X72392493Y-131065533D02*
X72868684Y-131065533D01*
X72868684Y-131065533D02*
X73059160Y-130970295D01*
X74297255Y-131827438D02*
X74106779Y-131732200D01*
X74106779Y-131732200D02*
X74011541Y-131541723D01*
X74011541Y-131541723D02*
X74011541Y-129827438D01*
X75059160Y-131827438D02*
X75059160Y-129827438D01*
X75059160Y-129827438D02*
X75821065Y-129827438D01*
X75821065Y-129827438D02*
X76011541Y-129922676D01*
X76011541Y-129922676D02*
X76106779Y-130017914D01*
X76106779Y-130017914D02*
X76202017Y-130208390D01*
X76202017Y-130208390D02*
X76202017Y-130494104D01*
X76202017Y-130494104D02*
X76106779Y-130684580D01*
X76106779Y-130684580D02*
X76011541Y-130779819D01*
X76011541Y-130779819D02*
X75821065Y-130875057D01*
X75821065Y-130875057D02*
X75059160Y-130875057D01*
X77059160Y-131827438D02*
X77059160Y-130494104D01*
X77059160Y-130875057D02*
X77154398Y-130684580D01*
X77154398Y-130684580D02*
X77249636Y-130589342D01*
X77249636Y-130589342D02*
X77440112Y-130494104D01*
X77440112Y-130494104D02*
X77630589Y-130494104D01*
X78582969Y-131827438D02*
X78392493Y-131732200D01*
X78392493Y-131732200D02*
X78297255Y-131636961D01*
X78297255Y-131636961D02*
X78202017Y-131446485D01*
X78202017Y-131446485D02*
X78202017Y-130875057D01*
X78202017Y-130875057D02*
X78297255Y-130684580D01*
X78297255Y-130684580D02*
X78392493Y-130589342D01*
X78392493Y-130589342D02*
X78582969Y-130494104D01*
X78582969Y-130494104D02*
X78868684Y-130494104D01*
X78868684Y-130494104D02*
X79059160Y-130589342D01*
X79059160Y-130589342D02*
X79154398Y-130684580D01*
X79154398Y-130684580D02*
X79249636Y-130875057D01*
X79249636Y-130875057D02*
X79249636Y-131446485D01*
X79249636Y-131446485D02*
X79154398Y-131636961D01*
X79154398Y-131636961D02*
X79059160Y-131732200D01*
X79059160Y-131732200D02*
X78868684Y-131827438D01*
X78868684Y-131827438D02*
X78582969Y-131827438D01*
X79821065Y-130494104D02*
X80582969Y-130494104D01*
X80106779Y-129827438D02*
X80106779Y-131541723D01*
X80106779Y-131541723D02*
X80202017Y-131732200D01*
X80202017Y-131732200D02*
X80392493Y-131827438D01*
X80392493Y-131827438D02*
X80582969Y-131827438D01*
X81535350Y-131827438D02*
X81344874Y-131732200D01*
X81344874Y-131732200D02*
X81249636Y-131636961D01*
X81249636Y-131636961D02*
X81154398Y-131446485D01*
X81154398Y-131446485D02*
X81154398Y-130875057D01*
X81154398Y-130875057D02*
X81249636Y-130684580D01*
X81249636Y-130684580D02*
X81344874Y-130589342D01*
X81344874Y-130589342D02*
X81535350Y-130494104D01*
X81535350Y-130494104D02*
X81821065Y-130494104D01*
X81821065Y-130494104D02*
X82011541Y-130589342D01*
X82011541Y-130589342D02*
X82106779Y-130684580D01*
X82106779Y-130684580D02*
X82202017Y-130875057D01*
X82202017Y-130875057D02*
X82202017Y-131446485D01*
X82202017Y-131446485D02*
X82106779Y-131636961D01*
X82106779Y-131636961D02*
X82011541Y-131732200D01*
X82011541Y-131732200D02*
X81821065Y-131827438D01*
X81821065Y-131827438D02*
X81535350Y-131827438D01*
X83725827Y-130779819D02*
X84011541Y-130875057D01*
X84011541Y-130875057D02*
X84106779Y-130970295D01*
X84106779Y-130970295D02*
X84202017Y-131160771D01*
X84202017Y-131160771D02*
X84202017Y-131446485D01*
X84202017Y-131446485D02*
X84106779Y-131636961D01*
X84106779Y-131636961D02*
X84011541Y-131732200D01*
X84011541Y-131732200D02*
X83821065Y-131827438D01*
X83821065Y-131827438D02*
X83059160Y-131827438D01*
X83059160Y-131827438D02*
X83059160Y-129827438D01*
X83059160Y-129827438D02*
X83725827Y-129827438D01*
X83725827Y-129827438D02*
X83916303Y-129922676D01*
X83916303Y-129922676D02*
X84011541Y-130017914D01*
X84011541Y-130017914D02*
X84106779Y-130208390D01*
X84106779Y-130208390D02*
X84106779Y-130398866D01*
X84106779Y-130398866D02*
X84011541Y-130589342D01*
X84011541Y-130589342D02*
X83916303Y-130684580D01*
X83916303Y-130684580D02*
X83725827Y-130779819D01*
X83725827Y-130779819D02*
X83059160Y-130779819D01*
X85344874Y-131827438D02*
X85154398Y-131732200D01*
X85154398Y-131732200D02*
X85059160Y-131636961D01*
X85059160Y-131636961D02*
X84963922Y-131446485D01*
X84963922Y-131446485D02*
X84963922Y-130875057D01*
X84963922Y-130875057D02*
X85059160Y-130684580D01*
X85059160Y-130684580D02*
X85154398Y-130589342D01*
X85154398Y-130589342D02*
X85344874Y-130494104D01*
X85344874Y-130494104D02*
X85630589Y-130494104D01*
X85630589Y-130494104D02*
X85821065Y-130589342D01*
X85821065Y-130589342D02*
X85916303Y-130684580D01*
X85916303Y-130684580D02*
X86011541Y-130875057D01*
X86011541Y-130875057D02*
X86011541Y-131446485D01*
X86011541Y-131446485D02*
X85916303Y-131636961D01*
X85916303Y-131636961D02*
X85821065Y-131732200D01*
X85821065Y-131732200D02*
X85630589Y-131827438D01*
X85630589Y-131827438D02*
X85344874Y-131827438D01*
X87725827Y-131827438D02*
X87725827Y-130779819D01*
X87725827Y-130779819D02*
X87630589Y-130589342D01*
X87630589Y-130589342D02*
X87440113Y-130494104D01*
X87440113Y-130494104D02*
X87059160Y-130494104D01*
X87059160Y-130494104D02*
X86868684Y-130589342D01*
X87725827Y-131732200D02*
X87535351Y-131827438D01*
X87535351Y-131827438D02*
X87059160Y-131827438D01*
X87059160Y-131827438D02*
X86868684Y-131732200D01*
X86868684Y-131732200D02*
X86773446Y-131541723D01*
X86773446Y-131541723D02*
X86773446Y-131351247D01*
X86773446Y-131351247D02*
X86868684Y-131160771D01*
X86868684Y-131160771D02*
X87059160Y-131065533D01*
X87059160Y-131065533D02*
X87535351Y-131065533D01*
X87535351Y-131065533D02*
X87725827Y-130970295D01*
X88678208Y-131827438D02*
X88678208Y-130494104D01*
X88678208Y-130875057D02*
X88773446Y-130684580D01*
X88773446Y-130684580D02*
X88868684Y-130589342D01*
X88868684Y-130589342D02*
X89059160Y-130494104D01*
X89059160Y-130494104D02*
X89249637Y-130494104D01*
X90773446Y-131827438D02*
X90773446Y-129827438D01*
X90773446Y-131732200D02*
X90582970Y-131827438D01*
X90582970Y-131827438D02*
X90202017Y-131827438D01*
X90202017Y-131827438D02*
X90011541Y-131732200D01*
X90011541Y-131732200D02*
X89916303Y-131636961D01*
X89916303Y-131636961D02*
X89821065Y-131446485D01*
X89821065Y-131446485D02*
X89821065Y-130875057D01*
X89821065Y-130875057D02*
X89916303Y-130684580D01*
X89916303Y-130684580D02*
X90011541Y-130589342D01*
X90011541Y-130589342D02*
X90202017Y-130494104D01*
X90202017Y-130494104D02*
X90582970Y-130494104D01*
X90582970Y-130494104D02*
X90773446Y-130589342D01*
X93059161Y-130494104D02*
X93535351Y-131827438D01*
X93535351Y-131827438D02*
X94011542Y-130494104D01*
X95821066Y-131827438D02*
X94678209Y-131827438D01*
X95249637Y-131827438D02*
X95249637Y-129827438D01*
X95249637Y-129827438D02*
X95059161Y-130113152D01*
X95059161Y-130113152D02*
X94868685Y-130303628D01*
X94868685Y-130303628D02*
X94678209Y-130398866D01*
X96678209Y-131636961D02*
X96773447Y-131732200D01*
X96773447Y-131732200D02*
X96678209Y-131827438D01*
X96678209Y-131827438D02*
X96582971Y-131732200D01*
X96582971Y-131732200D02*
X96678209Y-131636961D01*
X96678209Y-131636961D02*
X96678209Y-131827438D01*
X98011542Y-129827438D02*
X98202019Y-129827438D01*
X98202019Y-129827438D02*
X98392495Y-129922676D01*
X98392495Y-129922676D02*
X98487733Y-130017914D01*
X98487733Y-130017914D02*
X98582971Y-130208390D01*
X98582971Y-130208390D02*
X98678209Y-130589342D01*
X98678209Y-130589342D02*
X98678209Y-131065533D01*
X98678209Y-131065533D02*
X98582971Y-131446485D01*
X98582971Y-131446485D02*
X98487733Y-131636961D01*
X98487733Y-131636961D02*
X98392495Y-131732200D01*
X98392495Y-131732200D02*
X98202019Y-131827438D01*
X98202019Y-131827438D02*
X98011542Y-131827438D01*
X98011542Y-131827438D02*
X97821066Y-131732200D01*
X97821066Y-131732200D02*
X97725828Y-131636961D01*
X97725828Y-131636961D02*
X97630590Y-131446485D01*
X97630590Y-131446485D02*
X97535352Y-131065533D01*
X97535352Y-131065533D02*
X97535352Y-130589342D01*
X97535352Y-130589342D02*
X97630590Y-130208390D01*
X97630590Y-130208390D02*
X97725828Y-130017914D01*
X97725828Y-130017914D02*
X97821066Y-129922676D01*
X97821066Y-129922676D02*
X98011542Y-129827438D01*
X246884819Y-79673220D02*
X245884819Y-79673220D01*
X245884819Y-79673220D02*
X245884819Y-79292268D01*
X245884819Y-79292268D02*
X245932438Y-79197030D01*
X245932438Y-79197030D02*
X245980057Y-79149411D01*
X245980057Y-79149411D02*
X246075295Y-79101792D01*
X246075295Y-79101792D02*
X246218152Y-79101792D01*
X246218152Y-79101792D02*
X246313390Y-79149411D01*
X246313390Y-79149411D02*
X246361009Y-79197030D01*
X246361009Y-79197030D02*
X246408628Y-79292268D01*
X246408628Y-79292268D02*
X246408628Y-79673220D01*
X245884819Y-78673220D02*
X246694342Y-78673220D01*
X246694342Y-78673220D02*
X246789580Y-78625601D01*
X246789580Y-78625601D02*
X246837200Y-78577982D01*
X246837200Y-78577982D02*
X246884819Y-78482744D01*
X246884819Y-78482744D02*
X246884819Y-78292268D01*
X246884819Y-78292268D02*
X246837200Y-78197030D01*
X246837200Y-78197030D02*
X246789580Y-78149411D01*
X246789580Y-78149411D02*
X246694342Y-78101792D01*
X246694342Y-78101792D02*
X245884819Y-78101792D01*
X246884819Y-77149411D02*
X246884819Y-77625601D01*
X246884819Y-77625601D02*
X245884819Y-77625601D01*
X246837200Y-76863696D02*
X246884819Y-76720839D01*
X246884819Y-76720839D02*
X246884819Y-76482744D01*
X246884819Y-76482744D02*
X246837200Y-76387506D01*
X246837200Y-76387506D02*
X246789580Y-76339887D01*
X246789580Y-76339887D02*
X246694342Y-76292268D01*
X246694342Y-76292268D02*
X246599104Y-76292268D01*
X246599104Y-76292268D02*
X246503866Y-76339887D01*
X246503866Y-76339887D02*
X246456247Y-76387506D01*
X246456247Y-76387506D02*
X246408628Y-76482744D01*
X246408628Y-76482744D02*
X246361009Y-76673220D01*
X246361009Y-76673220D02*
X246313390Y-76768458D01*
X246313390Y-76768458D02*
X246265771Y-76816077D01*
X246265771Y-76816077D02*
X246170533Y-76863696D01*
X246170533Y-76863696D02*
X246075295Y-76863696D01*
X246075295Y-76863696D02*
X245980057Y-76816077D01*
X245980057Y-76816077D02*
X245932438Y-76768458D01*
X245932438Y-76768458D02*
X245884819Y-76673220D01*
X245884819Y-76673220D02*
X245884819Y-76435125D01*
X245884819Y-76435125D02*
X245932438Y-76292268D01*
X246361009Y-75863696D02*
X246361009Y-75530363D01*
X246884819Y-75387506D02*
X246884819Y-75863696D01*
X246884819Y-75863696D02*
X245884819Y-75863696D01*
X245884819Y-75863696D02*
X245884819Y-75387506D01*
X61782438Y-78514411D02*
X61734819Y-78609649D01*
X61734819Y-78609649D02*
X61734819Y-78752506D01*
X61734819Y-78752506D02*
X61782438Y-78895363D01*
X61782438Y-78895363D02*
X61877676Y-78990601D01*
X61877676Y-78990601D02*
X61972914Y-79038220D01*
X61972914Y-79038220D02*
X62163390Y-79085839D01*
X62163390Y-79085839D02*
X62306247Y-79085839D01*
X62306247Y-79085839D02*
X62496723Y-79038220D01*
X62496723Y-79038220D02*
X62591961Y-78990601D01*
X62591961Y-78990601D02*
X62687200Y-78895363D01*
X62687200Y-78895363D02*
X62734819Y-78752506D01*
X62734819Y-78752506D02*
X62734819Y-78657268D01*
X62734819Y-78657268D02*
X62687200Y-78514411D01*
X62687200Y-78514411D02*
X62639580Y-78466792D01*
X62639580Y-78466792D02*
X62306247Y-78466792D01*
X62306247Y-78466792D02*
X62306247Y-78657268D01*
X62734819Y-78038220D02*
X61734819Y-78038220D01*
X61734819Y-78038220D02*
X62734819Y-77466792D01*
X62734819Y-77466792D02*
X61734819Y-77466792D01*
X62734819Y-76990601D02*
X61734819Y-76990601D01*
X61734819Y-76990601D02*
X61734819Y-76752506D01*
X61734819Y-76752506D02*
X61782438Y-76609649D01*
X61782438Y-76609649D02*
X61877676Y-76514411D01*
X61877676Y-76514411D02*
X61972914Y-76466792D01*
X61972914Y-76466792D02*
X62163390Y-76419173D01*
X62163390Y-76419173D02*
X62306247Y-76419173D01*
X62306247Y-76419173D02*
X62496723Y-76466792D01*
X62496723Y-76466792D02*
X62591961Y-76514411D01*
X62591961Y-76514411D02*
X62687200Y-76609649D01*
X62687200Y-76609649D02*
X62734819Y-76752506D01*
X62734819Y-76752506D02*
X62734819Y-76990601D01*
X220808779Y-79244819D02*
X220808779Y-78244819D01*
X220808779Y-78244819D02*
X221046874Y-78244819D01*
X221046874Y-78244819D02*
X221189731Y-78292438D01*
X221189731Y-78292438D02*
X221284969Y-78387676D01*
X221284969Y-78387676D02*
X221332588Y-78482914D01*
X221332588Y-78482914D02*
X221380207Y-78673390D01*
X221380207Y-78673390D02*
X221380207Y-78816247D01*
X221380207Y-78816247D02*
X221332588Y-79006723D01*
X221332588Y-79006723D02*
X221284969Y-79101961D01*
X221284969Y-79101961D02*
X221189731Y-79197200D01*
X221189731Y-79197200D02*
X221046874Y-79244819D01*
X221046874Y-79244819D02*
X220808779Y-79244819D01*
X221713541Y-78244819D02*
X222380207Y-78244819D01*
X222380207Y-78244819D02*
X221951636Y-79244819D01*
X72894819Y-78466792D02*
X72418628Y-78800125D01*
X72894819Y-79038220D02*
X71894819Y-79038220D01*
X71894819Y-79038220D02*
X71894819Y-78657268D01*
X71894819Y-78657268D02*
X71942438Y-78562030D01*
X71942438Y-78562030D02*
X71990057Y-78514411D01*
X71990057Y-78514411D02*
X72085295Y-78466792D01*
X72085295Y-78466792D02*
X72228152Y-78466792D01*
X72228152Y-78466792D02*
X72323390Y-78514411D01*
X72323390Y-78514411D02*
X72371009Y-78562030D01*
X72371009Y-78562030D02*
X72418628Y-78657268D01*
X72418628Y-78657268D02*
X72418628Y-79038220D01*
X71894819Y-78133458D02*
X72894819Y-77895363D01*
X72894819Y-77895363D02*
X72180533Y-77704887D01*
X72180533Y-77704887D02*
X72894819Y-77514411D01*
X72894819Y-77514411D02*
X71894819Y-77276316D01*
X129241779Y-79244819D02*
X129241779Y-78244819D01*
X129241779Y-78244819D02*
X129479874Y-78244819D01*
X129479874Y-78244819D02*
X129622731Y-78292438D01*
X129622731Y-78292438D02*
X129717969Y-78387676D01*
X129717969Y-78387676D02*
X129765588Y-78482914D01*
X129765588Y-78482914D02*
X129813207Y-78673390D01*
X129813207Y-78673390D02*
X129813207Y-78816247D01*
X129813207Y-78816247D02*
X129765588Y-79006723D01*
X129765588Y-79006723D02*
X129717969Y-79101961D01*
X129717969Y-79101961D02*
X129622731Y-79197200D01*
X129622731Y-79197200D02*
X129479874Y-79244819D01*
X129479874Y-79244819D02*
X129241779Y-79244819D01*
X130146541Y-78244819D02*
X130813207Y-78244819D01*
X130813207Y-78244819D02*
X130384636Y-79244819D01*
X174841779Y-79244819D02*
X174841779Y-78244819D01*
X174841779Y-78244819D02*
X175079874Y-78244819D01*
X175079874Y-78244819D02*
X175222731Y-78292438D01*
X175222731Y-78292438D02*
X175317969Y-78387676D01*
X175317969Y-78387676D02*
X175365588Y-78482914D01*
X175365588Y-78482914D02*
X175413207Y-78673390D01*
X175413207Y-78673390D02*
X175413207Y-78816247D01*
X175413207Y-78816247D02*
X175365588Y-79006723D01*
X175365588Y-79006723D02*
X175317969Y-79101961D01*
X175317969Y-79101961D02*
X175222731Y-79197200D01*
X175222731Y-79197200D02*
X175079874Y-79244819D01*
X175079874Y-79244819D02*
X174841779Y-79244819D01*
X175746541Y-78244819D02*
X176413207Y-78244819D01*
X176413207Y-78244819D02*
X175984636Y-79244819D01*
X59813866Y-79038220D02*
X59813866Y-78276316D01*
X60194819Y-78657268D02*
X59432914Y-78657268D01*
X59194819Y-77323935D02*
X59194819Y-77800125D01*
X59194819Y-77800125D02*
X59671009Y-77847744D01*
X59671009Y-77847744D02*
X59623390Y-77800125D01*
X59623390Y-77800125D02*
X59575771Y-77704887D01*
X59575771Y-77704887D02*
X59575771Y-77466792D01*
X59575771Y-77466792D02*
X59623390Y-77371554D01*
X59623390Y-77371554D02*
X59671009Y-77323935D01*
X59671009Y-77323935D02*
X59766247Y-77276316D01*
X59766247Y-77276316D02*
X60004342Y-77276316D01*
X60004342Y-77276316D02*
X60099580Y-77323935D01*
X60099580Y-77323935D02*
X60147200Y-77371554D01*
X60147200Y-77371554D02*
X60194819Y-77466792D01*
X60194819Y-77466792D02*
X60194819Y-77704887D01*
X60194819Y-77704887D02*
X60147200Y-77800125D01*
X60147200Y-77800125D02*
X60099580Y-77847744D01*
X59194819Y-76990601D02*
X60194819Y-76657268D01*
X60194819Y-76657268D02*
X59194819Y-76323935D01*
X100031779Y-79244819D02*
X100031779Y-78244819D01*
X100031779Y-78244819D02*
X100269874Y-78244819D01*
X100269874Y-78244819D02*
X100412731Y-78292438D01*
X100412731Y-78292438D02*
X100507969Y-78387676D01*
X100507969Y-78387676D02*
X100555588Y-78482914D01*
X100555588Y-78482914D02*
X100603207Y-78673390D01*
X100603207Y-78673390D02*
X100603207Y-78816247D01*
X100603207Y-78816247D02*
X100555588Y-79006723D01*
X100555588Y-79006723D02*
X100507969Y-79101961D01*
X100507969Y-79101961D02*
X100412731Y-79197200D01*
X100412731Y-79197200D02*
X100269874Y-79244819D01*
X100269874Y-79244819D02*
X100031779Y-79244819D01*
X101222255Y-78244819D02*
X101317493Y-78244819D01*
X101317493Y-78244819D02*
X101412731Y-78292438D01*
X101412731Y-78292438D02*
X101460350Y-78340057D01*
X101460350Y-78340057D02*
X101507969Y-78435295D01*
X101507969Y-78435295D02*
X101555588Y-78625771D01*
X101555588Y-78625771D02*
X101555588Y-78863866D01*
X101555588Y-78863866D02*
X101507969Y-79054342D01*
X101507969Y-79054342D02*
X101460350Y-79149580D01*
X101460350Y-79149580D02*
X101412731Y-79197200D01*
X101412731Y-79197200D02*
X101317493Y-79244819D01*
X101317493Y-79244819D02*
X101222255Y-79244819D01*
X101222255Y-79244819D02*
X101127017Y-79197200D01*
X101127017Y-79197200D02*
X101079398Y-79149580D01*
X101079398Y-79149580D02*
X101031779Y-79054342D01*
X101031779Y-79054342D02*
X100984160Y-78863866D01*
X100984160Y-78863866D02*
X100984160Y-78625771D01*
X100984160Y-78625771D02*
X101031779Y-78435295D01*
X101031779Y-78435295D02*
X101079398Y-78340057D01*
X101079398Y-78340057D02*
X101127017Y-78292438D01*
X101127017Y-78292438D02*
X101222255Y-78244819D01*
X110899580Y-78466792D02*
X110947200Y-78514411D01*
X110947200Y-78514411D02*
X110994819Y-78657268D01*
X110994819Y-78657268D02*
X110994819Y-78752506D01*
X110994819Y-78752506D02*
X110947200Y-78895363D01*
X110947200Y-78895363D02*
X110851961Y-78990601D01*
X110851961Y-78990601D02*
X110756723Y-79038220D01*
X110756723Y-79038220D02*
X110566247Y-79085839D01*
X110566247Y-79085839D02*
X110423390Y-79085839D01*
X110423390Y-79085839D02*
X110232914Y-79038220D01*
X110232914Y-79038220D02*
X110137676Y-78990601D01*
X110137676Y-78990601D02*
X110042438Y-78895363D01*
X110042438Y-78895363D02*
X109994819Y-78752506D01*
X109994819Y-78752506D02*
X109994819Y-78657268D01*
X109994819Y-78657268D02*
X110042438Y-78514411D01*
X110042438Y-78514411D02*
X110090057Y-78466792D01*
X110994819Y-78038220D02*
X109994819Y-78038220D01*
X109994819Y-78038220D02*
X109994819Y-77657268D01*
X109994819Y-77657268D02*
X110042438Y-77562030D01*
X110042438Y-77562030D02*
X110090057Y-77514411D01*
X110090057Y-77514411D02*
X110185295Y-77466792D01*
X110185295Y-77466792D02*
X110328152Y-77466792D01*
X110328152Y-77466792D02*
X110423390Y-77514411D01*
X110423390Y-77514411D02*
X110471009Y-77562030D01*
X110471009Y-77562030D02*
X110518628Y-77657268D01*
X110518628Y-77657268D02*
X110518628Y-78038220D01*
X155444819Y-79038220D02*
X154444819Y-79038220D01*
X154444819Y-79038220D02*
X154444819Y-78657268D01*
X154444819Y-78657268D02*
X154492438Y-78562030D01*
X154492438Y-78562030D02*
X154540057Y-78514411D01*
X154540057Y-78514411D02*
X154635295Y-78466792D01*
X154635295Y-78466792D02*
X154778152Y-78466792D01*
X154778152Y-78466792D02*
X154873390Y-78514411D01*
X154873390Y-78514411D02*
X154921009Y-78562030D01*
X154921009Y-78562030D02*
X154968628Y-78657268D01*
X154968628Y-78657268D02*
X154968628Y-79038220D01*
X154444819Y-78038220D02*
X155254342Y-78038220D01*
X155254342Y-78038220D02*
X155349580Y-77990601D01*
X155349580Y-77990601D02*
X155397200Y-77942982D01*
X155397200Y-77942982D02*
X155444819Y-77847744D01*
X155444819Y-77847744D02*
X155444819Y-77657268D01*
X155444819Y-77657268D02*
X155397200Y-77562030D01*
X155397200Y-77562030D02*
X155349580Y-77514411D01*
X155349580Y-77514411D02*
X155254342Y-77466792D01*
X155254342Y-77466792D02*
X154444819Y-77466792D01*
X155444819Y-76514411D02*
X155444819Y-76990601D01*
X155444819Y-76990601D02*
X154444819Y-76990601D01*
X155397200Y-76228696D02*
X155444819Y-76085839D01*
X155444819Y-76085839D02*
X155444819Y-75847744D01*
X155444819Y-75847744D02*
X155397200Y-75752506D01*
X155397200Y-75752506D02*
X155349580Y-75704887D01*
X155349580Y-75704887D02*
X155254342Y-75657268D01*
X155254342Y-75657268D02*
X155159104Y-75657268D01*
X155159104Y-75657268D02*
X155063866Y-75704887D01*
X155063866Y-75704887D02*
X155016247Y-75752506D01*
X155016247Y-75752506D02*
X154968628Y-75847744D01*
X154968628Y-75847744D02*
X154921009Y-76038220D01*
X154921009Y-76038220D02*
X154873390Y-76133458D01*
X154873390Y-76133458D02*
X154825771Y-76181077D01*
X154825771Y-76181077D02*
X154730533Y-76228696D01*
X154730533Y-76228696D02*
X154635295Y-76228696D01*
X154635295Y-76228696D02*
X154540057Y-76181077D01*
X154540057Y-76181077D02*
X154492438Y-76133458D01*
X154492438Y-76133458D02*
X154444819Y-76038220D01*
X154444819Y-76038220D02*
X154444819Y-75800125D01*
X154444819Y-75800125D02*
X154492438Y-75657268D01*
X154921009Y-75228696D02*
X154921009Y-74895363D01*
X155444819Y-74752506D02*
X155444819Y-75228696D01*
X155444819Y-75228696D02*
X154444819Y-75228696D01*
X154444819Y-75228696D02*
X154444819Y-74752506D01*
X203489580Y-78466792D02*
X203537200Y-78514411D01*
X203537200Y-78514411D02*
X203584819Y-78657268D01*
X203584819Y-78657268D02*
X203584819Y-78752506D01*
X203584819Y-78752506D02*
X203537200Y-78895363D01*
X203537200Y-78895363D02*
X203441961Y-78990601D01*
X203441961Y-78990601D02*
X203346723Y-79038220D01*
X203346723Y-79038220D02*
X203156247Y-79085839D01*
X203156247Y-79085839D02*
X203013390Y-79085839D01*
X203013390Y-79085839D02*
X202822914Y-79038220D01*
X202822914Y-79038220D02*
X202727676Y-78990601D01*
X202727676Y-78990601D02*
X202632438Y-78895363D01*
X202632438Y-78895363D02*
X202584819Y-78752506D01*
X202584819Y-78752506D02*
X202584819Y-78657268D01*
X202584819Y-78657268D02*
X202632438Y-78514411D01*
X202632438Y-78514411D02*
X202680057Y-78466792D01*
X203584819Y-78038220D02*
X202584819Y-78038220D01*
X202584819Y-78038220D02*
X202584819Y-77657268D01*
X202584819Y-77657268D02*
X202632438Y-77562030D01*
X202632438Y-77562030D02*
X202680057Y-77514411D01*
X202680057Y-77514411D02*
X202775295Y-77466792D01*
X202775295Y-77466792D02*
X202918152Y-77466792D01*
X202918152Y-77466792D02*
X203013390Y-77514411D01*
X203013390Y-77514411D02*
X203061009Y-77562030D01*
X203061009Y-77562030D02*
X203108628Y-77657268D01*
X203108628Y-77657268D02*
X203108628Y-78038220D01*
X206029580Y-78466792D02*
X206077200Y-78514411D01*
X206077200Y-78514411D02*
X206124819Y-78657268D01*
X206124819Y-78657268D02*
X206124819Y-78752506D01*
X206124819Y-78752506D02*
X206077200Y-78895363D01*
X206077200Y-78895363D02*
X205981961Y-78990601D01*
X205981961Y-78990601D02*
X205886723Y-79038220D01*
X205886723Y-79038220D02*
X205696247Y-79085839D01*
X205696247Y-79085839D02*
X205553390Y-79085839D01*
X205553390Y-79085839D02*
X205362914Y-79038220D01*
X205362914Y-79038220D02*
X205267676Y-78990601D01*
X205267676Y-78990601D02*
X205172438Y-78895363D01*
X205172438Y-78895363D02*
X205124819Y-78752506D01*
X205124819Y-78752506D02*
X205124819Y-78657268D01*
X205124819Y-78657268D02*
X205172438Y-78514411D01*
X205172438Y-78514411D02*
X205220057Y-78466792D01*
X206124819Y-77562030D02*
X206124819Y-78038220D01*
X206124819Y-78038220D02*
X205124819Y-78038220D01*
X206124819Y-77228696D02*
X205124819Y-77228696D01*
X206124819Y-76657268D02*
X205553390Y-77085839D01*
X205124819Y-76657268D02*
X205696247Y-77228696D01*
X238588779Y-79244819D02*
X238588779Y-78244819D01*
X238588779Y-78244819D02*
X238826874Y-78244819D01*
X238826874Y-78244819D02*
X238969731Y-78292438D01*
X238969731Y-78292438D02*
X239064969Y-78387676D01*
X239064969Y-78387676D02*
X239112588Y-78482914D01*
X239112588Y-78482914D02*
X239160207Y-78673390D01*
X239160207Y-78673390D02*
X239160207Y-78816247D01*
X239160207Y-78816247D02*
X239112588Y-79006723D01*
X239112588Y-79006723D02*
X239064969Y-79101961D01*
X239064969Y-79101961D02*
X238969731Y-79197200D01*
X238969731Y-79197200D02*
X238826874Y-79244819D01*
X238826874Y-79244819D02*
X238588779Y-79244819D01*
X239779255Y-78244819D02*
X239874493Y-78244819D01*
X239874493Y-78244819D02*
X239969731Y-78292438D01*
X239969731Y-78292438D02*
X240017350Y-78340057D01*
X240017350Y-78340057D02*
X240064969Y-78435295D01*
X240064969Y-78435295D02*
X240112588Y-78625771D01*
X240112588Y-78625771D02*
X240112588Y-78863866D01*
X240112588Y-78863866D02*
X240064969Y-79054342D01*
X240064969Y-79054342D02*
X240017350Y-79149580D01*
X240017350Y-79149580D02*
X239969731Y-79197200D01*
X239969731Y-79197200D02*
X239874493Y-79244819D01*
X239874493Y-79244819D02*
X239779255Y-79244819D01*
X239779255Y-79244819D02*
X239684017Y-79197200D01*
X239684017Y-79197200D02*
X239636398Y-79149580D01*
X239636398Y-79149580D02*
X239588779Y-79054342D01*
X239588779Y-79054342D02*
X239541160Y-78863866D01*
X239541160Y-78863866D02*
X239541160Y-78625771D01*
X239541160Y-78625771D02*
X239588779Y-78435295D01*
X239588779Y-78435295D02*
X239636398Y-78340057D01*
X239636398Y-78340057D02*
X239684017Y-78292438D01*
X239684017Y-78292438D02*
X239779255Y-78244819D01*
X201044819Y-79038220D02*
X200044819Y-79038220D01*
X200044819Y-79038220D02*
X200044819Y-78657268D01*
X200044819Y-78657268D02*
X200092438Y-78562030D01*
X200092438Y-78562030D02*
X200140057Y-78514411D01*
X200140057Y-78514411D02*
X200235295Y-78466792D01*
X200235295Y-78466792D02*
X200378152Y-78466792D01*
X200378152Y-78466792D02*
X200473390Y-78514411D01*
X200473390Y-78514411D02*
X200521009Y-78562030D01*
X200521009Y-78562030D02*
X200568628Y-78657268D01*
X200568628Y-78657268D02*
X200568628Y-79038220D01*
X200044819Y-78038220D02*
X200854342Y-78038220D01*
X200854342Y-78038220D02*
X200949580Y-77990601D01*
X200949580Y-77990601D02*
X200997200Y-77942982D01*
X200997200Y-77942982D02*
X201044819Y-77847744D01*
X201044819Y-77847744D02*
X201044819Y-77657268D01*
X201044819Y-77657268D02*
X200997200Y-77562030D01*
X200997200Y-77562030D02*
X200949580Y-77514411D01*
X200949580Y-77514411D02*
X200854342Y-77466792D01*
X200854342Y-77466792D02*
X200044819Y-77466792D01*
X201044819Y-76514411D02*
X201044819Y-76990601D01*
X201044819Y-76990601D02*
X200044819Y-76990601D01*
X200997200Y-76228696D02*
X201044819Y-76085839D01*
X201044819Y-76085839D02*
X201044819Y-75847744D01*
X201044819Y-75847744D02*
X200997200Y-75752506D01*
X200997200Y-75752506D02*
X200949580Y-75704887D01*
X200949580Y-75704887D02*
X200854342Y-75657268D01*
X200854342Y-75657268D02*
X200759104Y-75657268D01*
X200759104Y-75657268D02*
X200663866Y-75704887D01*
X200663866Y-75704887D02*
X200616247Y-75752506D01*
X200616247Y-75752506D02*
X200568628Y-75847744D01*
X200568628Y-75847744D02*
X200521009Y-76038220D01*
X200521009Y-76038220D02*
X200473390Y-76133458D01*
X200473390Y-76133458D02*
X200425771Y-76181077D01*
X200425771Y-76181077D02*
X200330533Y-76228696D01*
X200330533Y-76228696D02*
X200235295Y-76228696D01*
X200235295Y-76228696D02*
X200140057Y-76181077D01*
X200140057Y-76181077D02*
X200092438Y-76133458D01*
X200092438Y-76133458D02*
X200044819Y-76038220D01*
X200044819Y-76038220D02*
X200044819Y-75800125D01*
X200044819Y-75800125D02*
X200092438Y-75657268D01*
X200521009Y-75228696D02*
X200521009Y-74895363D01*
X201044819Y-74752506D02*
X201044819Y-75228696D01*
X201044819Y-75228696D02*
X200044819Y-75228696D01*
X200044819Y-75228696D02*
X200044819Y-74752506D01*
X108404819Y-124626666D02*
X107928628Y-124959999D01*
X108404819Y-125198094D02*
X107404819Y-125198094D01*
X107404819Y-125198094D02*
X107404819Y-124817142D01*
X107404819Y-124817142D02*
X107452438Y-124721904D01*
X107452438Y-124721904D02*
X107500057Y-124674285D01*
X107500057Y-124674285D02*
X107595295Y-124626666D01*
X107595295Y-124626666D02*
X107738152Y-124626666D01*
X107738152Y-124626666D02*
X107833390Y-124674285D01*
X107833390Y-124674285D02*
X107881009Y-124721904D01*
X107881009Y-124721904D02*
X107928628Y-124817142D01*
X107928628Y-124817142D02*
X107928628Y-125198094D01*
X107738152Y-123769523D02*
X108404819Y-123769523D01*
X107357200Y-124007618D02*
X108071485Y-124245713D01*
X108071485Y-124245713D02*
X108071485Y-123626666D01*
X203588095Y-95974819D02*
X203588095Y-96784342D01*
X203588095Y-96784342D02*
X203635714Y-96879580D01*
X203635714Y-96879580D02*
X203683333Y-96927200D01*
X203683333Y-96927200D02*
X203778571Y-96974819D01*
X203778571Y-96974819D02*
X203969047Y-96974819D01*
X203969047Y-96974819D02*
X204064285Y-96927200D01*
X204064285Y-96927200D02*
X204111904Y-96879580D01*
X204111904Y-96879580D02*
X204159523Y-96784342D01*
X204159523Y-96784342D02*
X204159523Y-95974819D01*
X205064285Y-96308152D02*
X205064285Y-96974819D01*
X204826190Y-95927200D02*
X204588095Y-96641485D01*
X204588095Y-96641485D02*
X205207142Y-96641485D01*
D11*
X127145144Y-129975431D02*
X128161144Y-131499431D01*
X128161144Y-129975431D02*
X127145144Y-131499431D01*
X128741716Y-131499431D02*
X128741716Y-130483431D01*
X128741716Y-129975431D02*
X128669144Y-130048002D01*
X128669144Y-130048002D02*
X128741716Y-130120574D01*
X128741716Y-130120574D02*
X128814287Y-130048002D01*
X128814287Y-130048002D02*
X128741716Y-129975431D01*
X128741716Y-129975431D02*
X128741716Y-130120574D01*
X130120573Y-131499431D02*
X130120573Y-130701145D01*
X130120573Y-130701145D02*
X130048001Y-130556002D01*
X130048001Y-130556002D02*
X129902858Y-130483431D01*
X129902858Y-130483431D02*
X129612573Y-130483431D01*
X129612573Y-130483431D02*
X129467430Y-130556002D01*
X130120573Y-131426860D02*
X129975430Y-131499431D01*
X129975430Y-131499431D02*
X129612573Y-131499431D01*
X129612573Y-131499431D02*
X129467430Y-131426860D01*
X129467430Y-131426860D02*
X129394858Y-131281717D01*
X129394858Y-131281717D02*
X129394858Y-131136574D01*
X129394858Y-131136574D02*
X129467430Y-130991431D01*
X129467430Y-130991431D02*
X129612573Y-130918860D01*
X129612573Y-130918860D02*
X129975430Y-130918860D01*
X129975430Y-130918860D02*
X130120573Y-130846288D01*
X131064001Y-131499431D02*
X130918858Y-131426860D01*
X130918858Y-131426860D02*
X130846287Y-131354288D01*
X130846287Y-131354288D02*
X130773715Y-131209145D01*
X130773715Y-131209145D02*
X130773715Y-130773717D01*
X130773715Y-130773717D02*
X130846287Y-130628574D01*
X130846287Y-130628574D02*
X130918858Y-130556002D01*
X130918858Y-130556002D02*
X131064001Y-130483431D01*
X131064001Y-130483431D02*
X131281715Y-130483431D01*
X131281715Y-130483431D02*
X131426858Y-130556002D01*
X131426858Y-130556002D02*
X131499430Y-130628574D01*
X131499430Y-130628574D02*
X131572001Y-130773717D01*
X131572001Y-130773717D02*
X131572001Y-131209145D01*
X131572001Y-131209145D02*
X131499430Y-131354288D01*
X131499430Y-131354288D02*
X131426858Y-131426860D01*
X131426858Y-131426860D02*
X131281715Y-131499431D01*
X131281715Y-131499431D02*
X131064001Y-131499431D01*
X132225144Y-131499431D02*
X132225144Y-129975431D01*
X132225144Y-129975431D02*
X133096001Y-131499431D01*
X133096001Y-131499431D02*
X133096001Y-129975431D01*
X133821715Y-131499431D02*
X133821715Y-130483431D01*
X133821715Y-129975431D02*
X133749143Y-130048002D01*
X133749143Y-130048002D02*
X133821715Y-130120574D01*
X133821715Y-130120574D02*
X133894286Y-130048002D01*
X133894286Y-130048002D02*
X133821715Y-129975431D01*
X133821715Y-129975431D02*
X133821715Y-130120574D01*
X135200572Y-130483431D02*
X135200572Y-131499431D01*
X134547429Y-130483431D02*
X134547429Y-131281717D01*
X134547429Y-131281717D02*
X134620000Y-131426860D01*
X134620000Y-131426860D02*
X134765143Y-131499431D01*
X134765143Y-131499431D02*
X134982857Y-131499431D01*
X134982857Y-131499431D02*
X135128000Y-131426860D01*
X135128000Y-131426860D02*
X135200572Y-131354288D01*
X135926286Y-131499431D02*
X135926286Y-129975431D01*
X135926286Y-129975431D02*
X136797143Y-131499431D01*
X136797143Y-131499431D02*
X136797143Y-129975431D01*
X137522857Y-131499431D02*
X137522857Y-130483431D01*
X137522857Y-129975431D02*
X137450285Y-130048002D01*
X137450285Y-130048002D02*
X137522857Y-130120574D01*
X137522857Y-130120574D02*
X137595428Y-130048002D01*
X137595428Y-130048002D02*
X137522857Y-129975431D01*
X137522857Y-129975431D02*
X137522857Y-130120574D01*
X138901714Y-130483431D02*
X138901714Y-131499431D01*
X138248571Y-130483431D02*
X138248571Y-131281717D01*
X138248571Y-131281717D02*
X138321142Y-131426860D01*
X138321142Y-131426860D02*
X138466285Y-131499431D01*
X138466285Y-131499431D02*
X138683999Y-131499431D01*
X138683999Y-131499431D02*
X138829142Y-131426860D01*
X138829142Y-131426860D02*
X138901714Y-131354288D01*
D10*
X77789580Y-90316666D02*
X77837200Y-90364285D01*
X77837200Y-90364285D02*
X77884819Y-90507142D01*
X77884819Y-90507142D02*
X77884819Y-90602380D01*
X77884819Y-90602380D02*
X77837200Y-90745237D01*
X77837200Y-90745237D02*
X77741961Y-90840475D01*
X77741961Y-90840475D02*
X77646723Y-90888094D01*
X77646723Y-90888094D02*
X77456247Y-90935713D01*
X77456247Y-90935713D02*
X77313390Y-90935713D01*
X77313390Y-90935713D02*
X77122914Y-90888094D01*
X77122914Y-90888094D02*
X77027676Y-90840475D01*
X77027676Y-90840475D02*
X76932438Y-90745237D01*
X76932438Y-90745237D02*
X76884819Y-90602380D01*
X76884819Y-90602380D02*
X76884819Y-90507142D01*
X76884819Y-90507142D02*
X76932438Y-90364285D01*
X76932438Y-90364285D02*
X76980057Y-90316666D01*
X76884819Y-89983332D02*
X76884819Y-89364285D01*
X76884819Y-89364285D02*
X77265771Y-89697618D01*
X77265771Y-89697618D02*
X77265771Y-89554761D01*
X77265771Y-89554761D02*
X77313390Y-89459523D01*
X77313390Y-89459523D02*
X77361009Y-89411904D01*
X77361009Y-89411904D02*
X77456247Y-89364285D01*
X77456247Y-89364285D02*
X77694342Y-89364285D01*
X77694342Y-89364285D02*
X77789580Y-89411904D01*
X77789580Y-89411904D02*
X77837200Y-89459523D01*
X77837200Y-89459523D02*
X77884819Y-89554761D01*
X77884819Y-89554761D02*
X77884819Y-89840475D01*
X77884819Y-89840475D02*
X77837200Y-89935713D01*
X77837200Y-89935713D02*
X77789580Y-89983332D01*
X69842380Y-84814580D02*
X69794761Y-84862200D01*
X69794761Y-84862200D02*
X69651904Y-84909819D01*
X69651904Y-84909819D02*
X69556666Y-84909819D01*
X69556666Y-84909819D02*
X69413809Y-84862200D01*
X69413809Y-84862200D02*
X69318571Y-84766961D01*
X69318571Y-84766961D02*
X69270952Y-84671723D01*
X69270952Y-84671723D02*
X69223333Y-84481247D01*
X69223333Y-84481247D02*
X69223333Y-84338390D01*
X69223333Y-84338390D02*
X69270952Y-84147914D01*
X69270952Y-84147914D02*
X69318571Y-84052676D01*
X69318571Y-84052676D02*
X69413809Y-83957438D01*
X69413809Y-83957438D02*
X69556666Y-83909819D01*
X69556666Y-83909819D02*
X69651904Y-83909819D01*
X69651904Y-83909819D02*
X69794761Y-83957438D01*
X69794761Y-83957438D02*
X69842380Y-84005057D01*
X70461428Y-83909819D02*
X70651904Y-83909819D01*
X70651904Y-83909819D02*
X70747142Y-83957438D01*
X70747142Y-83957438D02*
X70842380Y-84052676D01*
X70842380Y-84052676D02*
X70889999Y-84243152D01*
X70889999Y-84243152D02*
X70889999Y-84576485D01*
X70889999Y-84576485D02*
X70842380Y-84766961D01*
X70842380Y-84766961D02*
X70747142Y-84862200D01*
X70747142Y-84862200D02*
X70651904Y-84909819D01*
X70651904Y-84909819D02*
X70461428Y-84909819D01*
X70461428Y-84909819D02*
X70366190Y-84862200D01*
X70366190Y-84862200D02*
X70270952Y-84766961D01*
X70270952Y-84766961D02*
X70223333Y-84576485D01*
X70223333Y-84576485D02*
X70223333Y-84243152D01*
X70223333Y-84243152D02*
X70270952Y-84052676D01*
X70270952Y-84052676D02*
X70366190Y-83957438D01*
X70366190Y-83957438D02*
X70461428Y-83909819D01*
X71318571Y-84909819D02*
X71318571Y-83909819D01*
X71318571Y-83909819D02*
X71889999Y-84909819D01*
X71889999Y-84909819D02*
X71889999Y-83909819D01*
X72223333Y-83909819D02*
X72794761Y-83909819D01*
X72509047Y-84909819D02*
X72509047Y-83909819D01*
X73699523Y-84909819D02*
X73366190Y-84433628D01*
X73128095Y-84909819D02*
X73128095Y-83909819D01*
X73128095Y-83909819D02*
X73509047Y-83909819D01*
X73509047Y-83909819D02*
X73604285Y-83957438D01*
X73604285Y-83957438D02*
X73651904Y-84005057D01*
X73651904Y-84005057D02*
X73699523Y-84100295D01*
X73699523Y-84100295D02*
X73699523Y-84243152D01*
X73699523Y-84243152D02*
X73651904Y-84338390D01*
X73651904Y-84338390D02*
X73604285Y-84386009D01*
X73604285Y-84386009D02*
X73509047Y-84433628D01*
X73509047Y-84433628D02*
X73128095Y-84433628D01*
X74318571Y-83909819D02*
X74509047Y-83909819D01*
X74509047Y-83909819D02*
X74604285Y-83957438D01*
X74604285Y-83957438D02*
X74699523Y-84052676D01*
X74699523Y-84052676D02*
X74747142Y-84243152D01*
X74747142Y-84243152D02*
X74747142Y-84576485D01*
X74747142Y-84576485D02*
X74699523Y-84766961D01*
X74699523Y-84766961D02*
X74604285Y-84862200D01*
X74604285Y-84862200D02*
X74509047Y-84909819D01*
X74509047Y-84909819D02*
X74318571Y-84909819D01*
X74318571Y-84909819D02*
X74223333Y-84862200D01*
X74223333Y-84862200D02*
X74128095Y-84766961D01*
X74128095Y-84766961D02*
X74080476Y-84576485D01*
X74080476Y-84576485D02*
X74080476Y-84243152D01*
X74080476Y-84243152D02*
X74128095Y-84052676D01*
X74128095Y-84052676D02*
X74223333Y-83957438D01*
X74223333Y-83957438D02*
X74318571Y-83909819D01*
X75651904Y-84909819D02*
X75175714Y-84909819D01*
X75175714Y-84909819D02*
X75175714Y-83909819D01*
X60186667Y-92827200D02*
X60329524Y-92874819D01*
X60329524Y-92874819D02*
X60567619Y-92874819D01*
X60567619Y-92874819D02*
X60662857Y-92827200D01*
X60662857Y-92827200D02*
X60710476Y-92779580D01*
X60710476Y-92779580D02*
X60758095Y-92684342D01*
X60758095Y-92684342D02*
X60758095Y-92589104D01*
X60758095Y-92589104D02*
X60710476Y-92493866D01*
X60710476Y-92493866D02*
X60662857Y-92446247D01*
X60662857Y-92446247D02*
X60567619Y-92398628D01*
X60567619Y-92398628D02*
X60377143Y-92351009D01*
X60377143Y-92351009D02*
X60281905Y-92303390D01*
X60281905Y-92303390D02*
X60234286Y-92255771D01*
X60234286Y-92255771D02*
X60186667Y-92160533D01*
X60186667Y-92160533D02*
X60186667Y-92065295D01*
X60186667Y-92065295D02*
X60234286Y-91970057D01*
X60234286Y-91970057D02*
X60281905Y-91922438D01*
X60281905Y-91922438D02*
X60377143Y-91874819D01*
X60377143Y-91874819D02*
X60615238Y-91874819D01*
X60615238Y-91874819D02*
X60758095Y-91922438D01*
X61091429Y-91874819D02*
X61329524Y-92874819D01*
X61329524Y-92874819D02*
X61520000Y-92160533D01*
X61520000Y-92160533D02*
X61710476Y-92874819D01*
X61710476Y-92874819D02*
X61948572Y-91874819D01*
X62281905Y-91970057D02*
X62329524Y-91922438D01*
X62329524Y-91922438D02*
X62424762Y-91874819D01*
X62424762Y-91874819D02*
X62662857Y-91874819D01*
X62662857Y-91874819D02*
X62758095Y-91922438D01*
X62758095Y-91922438D02*
X62805714Y-91970057D01*
X62805714Y-91970057D02*
X62853333Y-92065295D01*
X62853333Y-92065295D02*
X62853333Y-92160533D01*
X62853333Y-92160533D02*
X62805714Y-92303390D01*
X62805714Y-92303390D02*
X62234286Y-92874819D01*
X62234286Y-92874819D02*
X62853333Y-92874819D01*
X59900952Y-97954819D02*
X59900952Y-96954819D01*
X59900952Y-96954819D02*
X60281904Y-96954819D01*
X60281904Y-96954819D02*
X60377142Y-97002438D01*
X60377142Y-97002438D02*
X60424761Y-97050057D01*
X60424761Y-97050057D02*
X60472380Y-97145295D01*
X60472380Y-97145295D02*
X60472380Y-97288152D01*
X60472380Y-97288152D02*
X60424761Y-97383390D01*
X60424761Y-97383390D02*
X60377142Y-97431009D01*
X60377142Y-97431009D02*
X60281904Y-97478628D01*
X60281904Y-97478628D02*
X59900952Y-97478628D01*
X60900952Y-96954819D02*
X60900952Y-97764342D01*
X60900952Y-97764342D02*
X60948571Y-97859580D01*
X60948571Y-97859580D02*
X60996190Y-97907200D01*
X60996190Y-97907200D02*
X61091428Y-97954819D01*
X61091428Y-97954819D02*
X61281904Y-97954819D01*
X61281904Y-97954819D02*
X61377142Y-97907200D01*
X61377142Y-97907200D02*
X61424761Y-97859580D01*
X61424761Y-97859580D02*
X61472380Y-97764342D01*
X61472380Y-97764342D02*
X61472380Y-96954819D01*
X62424761Y-97954819D02*
X61948571Y-97954819D01*
X61948571Y-97954819D02*
X61948571Y-96954819D01*
X62710476Y-97907200D02*
X62853333Y-97954819D01*
X62853333Y-97954819D02*
X63091428Y-97954819D01*
X63091428Y-97954819D02*
X63186666Y-97907200D01*
X63186666Y-97907200D02*
X63234285Y-97859580D01*
X63234285Y-97859580D02*
X63281904Y-97764342D01*
X63281904Y-97764342D02*
X63281904Y-97669104D01*
X63281904Y-97669104D02*
X63234285Y-97573866D01*
X63234285Y-97573866D02*
X63186666Y-97526247D01*
X63186666Y-97526247D02*
X63091428Y-97478628D01*
X63091428Y-97478628D02*
X62900952Y-97431009D01*
X62900952Y-97431009D02*
X62805714Y-97383390D01*
X62805714Y-97383390D02*
X62758095Y-97335771D01*
X62758095Y-97335771D02*
X62710476Y-97240533D01*
X62710476Y-97240533D02*
X62710476Y-97145295D01*
X62710476Y-97145295D02*
X62758095Y-97050057D01*
X62758095Y-97050057D02*
X62805714Y-97002438D01*
X62805714Y-97002438D02*
X62900952Y-96954819D01*
X62900952Y-96954819D02*
X63139047Y-96954819D01*
X63139047Y-96954819D02*
X63281904Y-97002438D01*
X63710476Y-97431009D02*
X64043809Y-97431009D01*
X64186666Y-97954819D02*
X63710476Y-97954819D01*
X63710476Y-97954819D02*
X63710476Y-96954819D01*
X63710476Y-96954819D02*
X64186666Y-96954819D01*
X229901905Y-92164819D02*
X229901905Y-92974342D01*
X229901905Y-92974342D02*
X229949524Y-93069580D01*
X229949524Y-93069580D02*
X229997143Y-93117200D01*
X229997143Y-93117200D02*
X230092381Y-93164819D01*
X230092381Y-93164819D02*
X230282857Y-93164819D01*
X230282857Y-93164819D02*
X230378095Y-93117200D01*
X230378095Y-93117200D02*
X230425714Y-93069580D01*
X230425714Y-93069580D02*
X230473333Y-92974342D01*
X230473333Y-92974342D02*
X230473333Y-92164819D01*
X231473333Y-93164819D02*
X230901905Y-93164819D01*
X231187619Y-93164819D02*
X231187619Y-92164819D01*
X231187619Y-92164819D02*
X231092381Y-92307676D01*
X231092381Y-92307676D02*
X230997143Y-92402914D01*
X230997143Y-92402914D02*
X230901905Y-92450533D01*
X232330476Y-92498152D02*
X232330476Y-93164819D01*
X232092381Y-92117200D02*
X231854286Y-92831485D01*
X231854286Y-92831485D02*
X232473333Y-92831485D01*
X248951905Y-95974819D02*
X248951905Y-96784342D01*
X248951905Y-96784342D02*
X248999524Y-96879580D01*
X248999524Y-96879580D02*
X249047143Y-96927200D01*
X249047143Y-96927200D02*
X249142381Y-96974819D01*
X249142381Y-96974819D02*
X249332857Y-96974819D01*
X249332857Y-96974819D02*
X249428095Y-96927200D01*
X249428095Y-96927200D02*
X249475714Y-96879580D01*
X249475714Y-96879580D02*
X249523333Y-96784342D01*
X249523333Y-96784342D02*
X249523333Y-95974819D01*
X250523333Y-96974819D02*
X249951905Y-96974819D01*
X250237619Y-96974819D02*
X250237619Y-95974819D01*
X250237619Y-95974819D02*
X250142381Y-96117676D01*
X250142381Y-96117676D02*
X250047143Y-96212914D01*
X250047143Y-96212914D02*
X249951905Y-96260533D01*
X250904286Y-96070057D02*
X250951905Y-96022438D01*
X250951905Y-96022438D02*
X251047143Y-95974819D01*
X251047143Y-95974819D02*
X251285238Y-95974819D01*
X251285238Y-95974819D02*
X251380476Y-96022438D01*
X251380476Y-96022438D02*
X251428095Y-96070057D01*
X251428095Y-96070057D02*
X251475714Y-96165295D01*
X251475714Y-96165295D02*
X251475714Y-96260533D01*
X251475714Y-96260533D02*
X251428095Y-96403390D01*
X251428095Y-96403390D02*
X250856667Y-96974819D01*
X250856667Y-96974819D02*
X251475714Y-96974819D01*
X58874819Y-106846666D02*
X58398628Y-107179999D01*
X58874819Y-107418094D02*
X57874819Y-107418094D01*
X57874819Y-107418094D02*
X57874819Y-107037142D01*
X57874819Y-107037142D02*
X57922438Y-106941904D01*
X57922438Y-106941904D02*
X57970057Y-106894285D01*
X57970057Y-106894285D02*
X58065295Y-106846666D01*
X58065295Y-106846666D02*
X58208152Y-106846666D01*
X58208152Y-106846666D02*
X58303390Y-106894285D01*
X58303390Y-106894285D02*
X58351009Y-106941904D01*
X58351009Y-106941904D02*
X58398628Y-107037142D01*
X58398628Y-107037142D02*
X58398628Y-107418094D01*
X58874819Y-105894285D02*
X58874819Y-106465713D01*
X58874819Y-106179999D02*
X57874819Y-106179999D01*
X57874819Y-106179999D02*
X58017676Y-106275237D01*
X58017676Y-106275237D02*
X58112914Y-106370475D01*
X58112914Y-106370475D02*
X58160533Y-106465713D01*
X157511905Y-95974819D02*
X157511905Y-96784342D01*
X157511905Y-96784342D02*
X157559524Y-96879580D01*
X157559524Y-96879580D02*
X157607143Y-96927200D01*
X157607143Y-96927200D02*
X157702381Y-96974819D01*
X157702381Y-96974819D02*
X157892857Y-96974819D01*
X157892857Y-96974819D02*
X157988095Y-96927200D01*
X157988095Y-96927200D02*
X158035714Y-96879580D01*
X158035714Y-96879580D02*
X158083333Y-96784342D01*
X158083333Y-96784342D02*
X158083333Y-95974819D01*
X159083333Y-96974819D02*
X158511905Y-96974819D01*
X158797619Y-96974819D02*
X158797619Y-95974819D01*
X158797619Y-95974819D02*
X158702381Y-96117676D01*
X158702381Y-96117676D02*
X158607143Y-96212914D01*
X158607143Y-96212914D02*
X158511905Y-96260533D01*
X159702381Y-95974819D02*
X159797619Y-95974819D01*
X159797619Y-95974819D02*
X159892857Y-96022438D01*
X159892857Y-96022438D02*
X159940476Y-96070057D01*
X159940476Y-96070057D02*
X159988095Y-96165295D01*
X159988095Y-96165295D02*
X160035714Y-96355771D01*
X160035714Y-96355771D02*
X160035714Y-96593866D01*
X160035714Y-96593866D02*
X159988095Y-96784342D01*
X159988095Y-96784342D02*
X159940476Y-96879580D01*
X159940476Y-96879580D02*
X159892857Y-96927200D01*
X159892857Y-96927200D02*
X159797619Y-96974819D01*
X159797619Y-96974819D02*
X159702381Y-96974819D01*
X159702381Y-96974819D02*
X159607143Y-96927200D01*
X159607143Y-96927200D02*
X159559524Y-96879580D01*
X159559524Y-96879580D02*
X159511905Y-96784342D01*
X159511905Y-96784342D02*
X159464286Y-96593866D01*
X159464286Y-96593866D02*
X159464286Y-96355771D01*
X159464286Y-96355771D02*
X159511905Y-96165295D01*
X159511905Y-96165295D02*
X159559524Y-96070057D01*
X159559524Y-96070057D02*
X159607143Y-96022438D01*
X159607143Y-96022438D02*
X159702381Y-95974819D01*
X203588095Y-116294819D02*
X203588095Y-117104342D01*
X203588095Y-117104342D02*
X203635714Y-117199580D01*
X203635714Y-117199580D02*
X203683333Y-117247200D01*
X203683333Y-117247200D02*
X203778571Y-117294819D01*
X203778571Y-117294819D02*
X203969047Y-117294819D01*
X203969047Y-117294819D02*
X204064285Y-117247200D01*
X204064285Y-117247200D02*
X204111904Y-117199580D01*
X204111904Y-117199580D02*
X204159523Y-117104342D01*
X204159523Y-117104342D02*
X204159523Y-116294819D01*
X205064285Y-116294819D02*
X204873809Y-116294819D01*
X204873809Y-116294819D02*
X204778571Y-116342438D01*
X204778571Y-116342438D02*
X204730952Y-116390057D01*
X204730952Y-116390057D02*
X204635714Y-116532914D01*
X204635714Y-116532914D02*
X204588095Y-116723390D01*
X204588095Y-116723390D02*
X204588095Y-117104342D01*
X204588095Y-117104342D02*
X204635714Y-117199580D01*
X204635714Y-117199580D02*
X204683333Y-117247200D01*
X204683333Y-117247200D02*
X204778571Y-117294819D01*
X204778571Y-117294819D02*
X204969047Y-117294819D01*
X204969047Y-117294819D02*
X205064285Y-117247200D01*
X205064285Y-117247200D02*
X205111904Y-117199580D01*
X205111904Y-117199580D02*
X205159523Y-117104342D01*
X205159523Y-117104342D02*
X205159523Y-116866247D01*
X205159523Y-116866247D02*
X205111904Y-116771009D01*
X205111904Y-116771009D02*
X205064285Y-116723390D01*
X205064285Y-116723390D02*
X204969047Y-116675771D01*
X204969047Y-116675771D02*
X204778571Y-116675771D01*
X204778571Y-116675771D02*
X204683333Y-116723390D01*
X204683333Y-116723390D02*
X204635714Y-116771009D01*
X204635714Y-116771009D02*
X204588095Y-116866247D01*
X65278095Y-107404819D02*
X65278095Y-108214342D01*
X65278095Y-108214342D02*
X65325714Y-108309580D01*
X65325714Y-108309580D02*
X65373333Y-108357200D01*
X65373333Y-108357200D02*
X65468571Y-108404819D01*
X65468571Y-108404819D02*
X65659047Y-108404819D01*
X65659047Y-108404819D02*
X65754285Y-108357200D01*
X65754285Y-108357200D02*
X65801904Y-108309580D01*
X65801904Y-108309580D02*
X65849523Y-108214342D01*
X65849523Y-108214342D02*
X65849523Y-107404819D01*
X66849523Y-108404819D02*
X66278095Y-108404819D01*
X66563809Y-108404819D02*
X66563809Y-107404819D01*
X66563809Y-107404819D02*
X66468571Y-107547676D01*
X66468571Y-107547676D02*
X66373333Y-107642914D01*
X66373333Y-107642914D02*
X66278095Y-107690533D01*
X58650476Y-84909819D02*
X58650476Y-83909819D01*
X58650476Y-83909819D02*
X59031428Y-83909819D01*
X59031428Y-83909819D02*
X59126666Y-83957438D01*
X59126666Y-83957438D02*
X59174285Y-84005057D01*
X59174285Y-84005057D02*
X59221904Y-84100295D01*
X59221904Y-84100295D02*
X59221904Y-84243152D01*
X59221904Y-84243152D02*
X59174285Y-84338390D01*
X59174285Y-84338390D02*
X59126666Y-84386009D01*
X59126666Y-84386009D02*
X59031428Y-84433628D01*
X59031428Y-84433628D02*
X58650476Y-84433628D01*
X59840952Y-83909819D02*
X60031428Y-83909819D01*
X60031428Y-83909819D02*
X60126666Y-83957438D01*
X60126666Y-83957438D02*
X60221904Y-84052676D01*
X60221904Y-84052676D02*
X60269523Y-84243152D01*
X60269523Y-84243152D02*
X60269523Y-84576485D01*
X60269523Y-84576485D02*
X60221904Y-84766961D01*
X60221904Y-84766961D02*
X60126666Y-84862200D01*
X60126666Y-84862200D02*
X60031428Y-84909819D01*
X60031428Y-84909819D02*
X59840952Y-84909819D01*
X59840952Y-84909819D02*
X59745714Y-84862200D01*
X59745714Y-84862200D02*
X59650476Y-84766961D01*
X59650476Y-84766961D02*
X59602857Y-84576485D01*
X59602857Y-84576485D02*
X59602857Y-84243152D01*
X59602857Y-84243152D02*
X59650476Y-84052676D01*
X59650476Y-84052676D02*
X59745714Y-83957438D01*
X59745714Y-83957438D02*
X59840952Y-83909819D01*
X60602857Y-83909819D02*
X60840952Y-84909819D01*
X60840952Y-84909819D02*
X61031428Y-84195533D01*
X61031428Y-84195533D02*
X61221904Y-84909819D01*
X61221904Y-84909819D02*
X61460000Y-83909819D01*
X61840952Y-84386009D02*
X62174285Y-84386009D01*
X62317142Y-84909819D02*
X61840952Y-84909819D01*
X61840952Y-84909819D02*
X61840952Y-83909819D01*
X61840952Y-83909819D02*
X62317142Y-83909819D01*
X63317142Y-84909819D02*
X62983809Y-84433628D01*
X62745714Y-84909819D02*
X62745714Y-83909819D01*
X62745714Y-83909819D02*
X63126666Y-83909819D01*
X63126666Y-83909819D02*
X63221904Y-83957438D01*
X63221904Y-83957438D02*
X63269523Y-84005057D01*
X63269523Y-84005057D02*
X63317142Y-84100295D01*
X63317142Y-84100295D02*
X63317142Y-84243152D01*
X63317142Y-84243152D02*
X63269523Y-84338390D01*
X63269523Y-84338390D02*
X63221904Y-84386009D01*
X63221904Y-84386009D02*
X63126666Y-84433628D01*
X63126666Y-84433628D02*
X62745714Y-84433628D01*
X248951905Y-116294819D02*
X248951905Y-117104342D01*
X248951905Y-117104342D02*
X248999524Y-117199580D01*
X248999524Y-117199580D02*
X249047143Y-117247200D01*
X249047143Y-117247200D02*
X249142381Y-117294819D01*
X249142381Y-117294819D02*
X249332857Y-117294819D01*
X249332857Y-117294819D02*
X249428095Y-117247200D01*
X249428095Y-117247200D02*
X249475714Y-117199580D01*
X249475714Y-117199580D02*
X249523333Y-117104342D01*
X249523333Y-117104342D02*
X249523333Y-116294819D01*
X250523333Y-117294819D02*
X249951905Y-117294819D01*
X250237619Y-117294819D02*
X250237619Y-116294819D01*
X250237619Y-116294819D02*
X250142381Y-116437676D01*
X250142381Y-116437676D02*
X250047143Y-116532914D01*
X250047143Y-116532914D02*
X249951905Y-116580533D01*
X250856667Y-116294819D02*
X251475714Y-116294819D01*
X251475714Y-116294819D02*
X251142381Y-116675771D01*
X251142381Y-116675771D02*
X251285238Y-116675771D01*
X251285238Y-116675771D02*
X251380476Y-116723390D01*
X251380476Y-116723390D02*
X251428095Y-116771009D01*
X251428095Y-116771009D02*
X251475714Y-116866247D01*
X251475714Y-116866247D02*
X251475714Y-117104342D01*
X251475714Y-117104342D02*
X251428095Y-117199580D01*
X251428095Y-117199580D02*
X251380476Y-117247200D01*
X251380476Y-117247200D02*
X251285238Y-117294819D01*
X251285238Y-117294819D02*
X250999524Y-117294819D01*
X250999524Y-117294819D02*
X250904286Y-117247200D01*
X250904286Y-117247200D02*
X250856667Y-117199580D01*
X137668095Y-92164819D02*
X137668095Y-92974342D01*
X137668095Y-92974342D02*
X137715714Y-93069580D01*
X137715714Y-93069580D02*
X137763333Y-93117200D01*
X137763333Y-93117200D02*
X137858571Y-93164819D01*
X137858571Y-93164819D02*
X138049047Y-93164819D01*
X138049047Y-93164819D02*
X138144285Y-93117200D01*
X138144285Y-93117200D02*
X138191904Y-93069580D01*
X138191904Y-93069580D02*
X138239523Y-92974342D01*
X138239523Y-92974342D02*
X138239523Y-92164819D01*
X138668095Y-92260057D02*
X138715714Y-92212438D01*
X138715714Y-92212438D02*
X138810952Y-92164819D01*
X138810952Y-92164819D02*
X139049047Y-92164819D01*
X139049047Y-92164819D02*
X139144285Y-92212438D01*
X139144285Y-92212438D02*
X139191904Y-92260057D01*
X139191904Y-92260057D02*
X139239523Y-92355295D01*
X139239523Y-92355295D02*
X139239523Y-92450533D01*
X139239523Y-92450533D02*
X139191904Y-92593390D01*
X139191904Y-92593390D02*
X138620476Y-93164819D01*
X138620476Y-93164819D02*
X139239523Y-93164819D01*
X116024819Y-124626666D02*
X115548628Y-124959999D01*
X116024819Y-125198094D02*
X115024819Y-125198094D01*
X115024819Y-125198094D02*
X115024819Y-124817142D01*
X115024819Y-124817142D02*
X115072438Y-124721904D01*
X115072438Y-124721904D02*
X115120057Y-124674285D01*
X115120057Y-124674285D02*
X115215295Y-124626666D01*
X115215295Y-124626666D02*
X115358152Y-124626666D01*
X115358152Y-124626666D02*
X115453390Y-124674285D01*
X115453390Y-124674285D02*
X115501009Y-124721904D01*
X115501009Y-124721904D02*
X115548628Y-124817142D01*
X115548628Y-124817142D02*
X115548628Y-125198094D01*
X115024819Y-123721904D02*
X115024819Y-124198094D01*
X115024819Y-124198094D02*
X115501009Y-124245713D01*
X115501009Y-124245713D02*
X115453390Y-124198094D01*
X115453390Y-124198094D02*
X115405771Y-124102856D01*
X115405771Y-124102856D02*
X115405771Y-123864761D01*
X115405771Y-123864761D02*
X115453390Y-123769523D01*
X115453390Y-123769523D02*
X115501009Y-123721904D01*
X115501009Y-123721904D02*
X115596247Y-123674285D01*
X115596247Y-123674285D02*
X115834342Y-123674285D01*
X115834342Y-123674285D02*
X115929580Y-123721904D01*
X115929580Y-123721904D02*
X115977200Y-123769523D01*
X115977200Y-123769523D02*
X116024819Y-123864761D01*
X116024819Y-123864761D02*
X116024819Y-124102856D01*
X116024819Y-124102856D02*
X115977200Y-124198094D01*
X115977200Y-124198094D02*
X115929580Y-124245713D01*
X157988095Y-116294819D02*
X157988095Y-117104342D01*
X157988095Y-117104342D02*
X158035714Y-117199580D01*
X158035714Y-117199580D02*
X158083333Y-117247200D01*
X158083333Y-117247200D02*
X158178571Y-117294819D01*
X158178571Y-117294819D02*
X158369047Y-117294819D01*
X158369047Y-117294819D02*
X158464285Y-117247200D01*
X158464285Y-117247200D02*
X158511904Y-117199580D01*
X158511904Y-117199580D02*
X158559523Y-117104342D01*
X158559523Y-117104342D02*
X158559523Y-116294819D01*
X159178571Y-116723390D02*
X159083333Y-116675771D01*
X159083333Y-116675771D02*
X159035714Y-116628152D01*
X159035714Y-116628152D02*
X158988095Y-116532914D01*
X158988095Y-116532914D02*
X158988095Y-116485295D01*
X158988095Y-116485295D02*
X159035714Y-116390057D01*
X159035714Y-116390057D02*
X159083333Y-116342438D01*
X159083333Y-116342438D02*
X159178571Y-116294819D01*
X159178571Y-116294819D02*
X159369047Y-116294819D01*
X159369047Y-116294819D02*
X159464285Y-116342438D01*
X159464285Y-116342438D02*
X159511904Y-116390057D01*
X159511904Y-116390057D02*
X159559523Y-116485295D01*
X159559523Y-116485295D02*
X159559523Y-116532914D01*
X159559523Y-116532914D02*
X159511904Y-116628152D01*
X159511904Y-116628152D02*
X159464285Y-116675771D01*
X159464285Y-116675771D02*
X159369047Y-116723390D01*
X159369047Y-116723390D02*
X159178571Y-116723390D01*
X159178571Y-116723390D02*
X159083333Y-116771009D01*
X159083333Y-116771009D02*
X159035714Y-116818628D01*
X159035714Y-116818628D02*
X158988095Y-116913866D01*
X158988095Y-116913866D02*
X158988095Y-117104342D01*
X158988095Y-117104342D02*
X159035714Y-117199580D01*
X159035714Y-117199580D02*
X159083333Y-117247200D01*
X159083333Y-117247200D02*
X159178571Y-117294819D01*
X159178571Y-117294819D02*
X159369047Y-117294819D01*
X159369047Y-117294819D02*
X159464285Y-117247200D01*
X159464285Y-117247200D02*
X159511904Y-117199580D01*
X159511904Y-117199580D02*
X159559523Y-117104342D01*
X159559523Y-117104342D02*
X159559523Y-116913866D01*
X159559523Y-116913866D02*
X159511904Y-116818628D01*
X159511904Y-116818628D02*
X159464285Y-116771009D01*
X159464285Y-116771009D02*
X159369047Y-116723390D01*
X111791905Y-95974819D02*
X111791905Y-96784342D01*
X111791905Y-96784342D02*
X111839524Y-96879580D01*
X111839524Y-96879580D02*
X111887143Y-96927200D01*
X111887143Y-96927200D02*
X111982381Y-96974819D01*
X111982381Y-96974819D02*
X112172857Y-96974819D01*
X112172857Y-96974819D02*
X112268095Y-96927200D01*
X112268095Y-96927200D02*
X112315714Y-96879580D01*
X112315714Y-96879580D02*
X112363333Y-96784342D01*
X112363333Y-96784342D02*
X112363333Y-95974819D01*
X113363333Y-96974819D02*
X112791905Y-96974819D01*
X113077619Y-96974819D02*
X113077619Y-95974819D01*
X113077619Y-95974819D02*
X112982381Y-96117676D01*
X112982381Y-96117676D02*
X112887143Y-96212914D01*
X112887143Y-96212914D02*
X112791905Y-96260533D01*
X113839524Y-96974819D02*
X114030000Y-96974819D01*
X114030000Y-96974819D02*
X114125238Y-96927200D01*
X114125238Y-96927200D02*
X114172857Y-96879580D01*
X114172857Y-96879580D02*
X114268095Y-96736723D01*
X114268095Y-96736723D02*
X114315714Y-96546247D01*
X114315714Y-96546247D02*
X114315714Y-96165295D01*
X114315714Y-96165295D02*
X114268095Y-96070057D01*
X114268095Y-96070057D02*
X114220476Y-96022438D01*
X114220476Y-96022438D02*
X114125238Y-95974819D01*
X114125238Y-95974819D02*
X113934762Y-95974819D01*
X113934762Y-95974819D02*
X113839524Y-96022438D01*
X113839524Y-96022438D02*
X113791905Y-96070057D01*
X113791905Y-96070057D02*
X113744286Y-96165295D01*
X113744286Y-96165295D02*
X113744286Y-96403390D01*
X113744286Y-96403390D02*
X113791905Y-96498628D01*
X113791905Y-96498628D02*
X113839524Y-96546247D01*
X113839524Y-96546247D02*
X113934762Y-96593866D01*
X113934762Y-96593866D02*
X114125238Y-96593866D01*
X114125238Y-96593866D02*
X114220476Y-96546247D01*
X114220476Y-96546247D02*
X114268095Y-96498628D01*
X114268095Y-96498628D02*
X114315714Y-96403390D01*
X76519580Y-110636666D02*
X76567200Y-110684285D01*
X76567200Y-110684285D02*
X76614819Y-110827142D01*
X76614819Y-110827142D02*
X76614819Y-110922380D01*
X76614819Y-110922380D02*
X76567200Y-111065237D01*
X76567200Y-111065237D02*
X76471961Y-111160475D01*
X76471961Y-111160475D02*
X76376723Y-111208094D01*
X76376723Y-111208094D02*
X76186247Y-111255713D01*
X76186247Y-111255713D02*
X76043390Y-111255713D01*
X76043390Y-111255713D02*
X75852914Y-111208094D01*
X75852914Y-111208094D02*
X75757676Y-111160475D01*
X75757676Y-111160475D02*
X75662438Y-111065237D01*
X75662438Y-111065237D02*
X75614819Y-110922380D01*
X75614819Y-110922380D02*
X75614819Y-110827142D01*
X75614819Y-110827142D02*
X75662438Y-110684285D01*
X75662438Y-110684285D02*
X75710057Y-110636666D01*
X75710057Y-110255713D02*
X75662438Y-110208094D01*
X75662438Y-110208094D02*
X75614819Y-110112856D01*
X75614819Y-110112856D02*
X75614819Y-109874761D01*
X75614819Y-109874761D02*
X75662438Y-109779523D01*
X75662438Y-109779523D02*
X75710057Y-109731904D01*
X75710057Y-109731904D02*
X75805295Y-109684285D01*
X75805295Y-109684285D02*
X75900533Y-109684285D01*
X75900533Y-109684285D02*
X76043390Y-109731904D01*
X76043390Y-109731904D02*
X76614819Y-110303332D01*
X76614819Y-110303332D02*
X76614819Y-109684285D01*
X170379580Y-90316666D02*
X170427200Y-90364285D01*
X170427200Y-90364285D02*
X170474819Y-90507142D01*
X170474819Y-90507142D02*
X170474819Y-90602380D01*
X170474819Y-90602380D02*
X170427200Y-90745237D01*
X170427200Y-90745237D02*
X170331961Y-90840475D01*
X170331961Y-90840475D02*
X170236723Y-90888094D01*
X170236723Y-90888094D02*
X170046247Y-90935713D01*
X170046247Y-90935713D02*
X169903390Y-90935713D01*
X169903390Y-90935713D02*
X169712914Y-90888094D01*
X169712914Y-90888094D02*
X169617676Y-90840475D01*
X169617676Y-90840475D02*
X169522438Y-90745237D01*
X169522438Y-90745237D02*
X169474819Y-90602380D01*
X169474819Y-90602380D02*
X169474819Y-90507142D01*
X169474819Y-90507142D02*
X169522438Y-90364285D01*
X169522438Y-90364285D02*
X169570057Y-90316666D01*
X169474819Y-89411904D02*
X169474819Y-89888094D01*
X169474819Y-89888094D02*
X169951009Y-89935713D01*
X169951009Y-89935713D02*
X169903390Y-89888094D01*
X169903390Y-89888094D02*
X169855771Y-89792856D01*
X169855771Y-89792856D02*
X169855771Y-89554761D01*
X169855771Y-89554761D02*
X169903390Y-89459523D01*
X169903390Y-89459523D02*
X169951009Y-89411904D01*
X169951009Y-89411904D02*
X170046247Y-89364285D01*
X170046247Y-89364285D02*
X170284342Y-89364285D01*
X170284342Y-89364285D02*
X170379580Y-89411904D01*
X170379580Y-89411904D02*
X170427200Y-89459523D01*
X170427200Y-89459523D02*
X170474819Y-89554761D01*
X170474819Y-89554761D02*
X170474819Y-89792856D01*
X170474819Y-89792856D02*
X170427200Y-89888094D01*
X170427200Y-89888094D02*
X170379580Y-89935713D01*
X124779580Y-90316666D02*
X124827200Y-90364285D01*
X124827200Y-90364285D02*
X124874819Y-90507142D01*
X124874819Y-90507142D02*
X124874819Y-90602380D01*
X124874819Y-90602380D02*
X124827200Y-90745237D01*
X124827200Y-90745237D02*
X124731961Y-90840475D01*
X124731961Y-90840475D02*
X124636723Y-90888094D01*
X124636723Y-90888094D02*
X124446247Y-90935713D01*
X124446247Y-90935713D02*
X124303390Y-90935713D01*
X124303390Y-90935713D02*
X124112914Y-90888094D01*
X124112914Y-90888094D02*
X124017676Y-90840475D01*
X124017676Y-90840475D02*
X123922438Y-90745237D01*
X123922438Y-90745237D02*
X123874819Y-90602380D01*
X123874819Y-90602380D02*
X123874819Y-90507142D01*
X123874819Y-90507142D02*
X123922438Y-90364285D01*
X123922438Y-90364285D02*
X123970057Y-90316666D01*
X124208152Y-89459523D02*
X124874819Y-89459523D01*
X123827200Y-89697618D02*
X124541485Y-89935713D01*
X124541485Y-89935713D02*
X124541485Y-89316666D01*
X67143333Y-123644819D02*
X66810000Y-123168628D01*
X66571905Y-123644819D02*
X66571905Y-122644819D01*
X66571905Y-122644819D02*
X66952857Y-122644819D01*
X66952857Y-122644819D02*
X67048095Y-122692438D01*
X67048095Y-122692438D02*
X67095714Y-122740057D01*
X67095714Y-122740057D02*
X67143333Y-122835295D01*
X67143333Y-122835295D02*
X67143333Y-122978152D01*
X67143333Y-122978152D02*
X67095714Y-123073390D01*
X67095714Y-123073390D02*
X67048095Y-123121009D01*
X67048095Y-123121009D02*
X66952857Y-123168628D01*
X66952857Y-123168628D02*
X66571905Y-123168628D01*
X67476667Y-122644819D02*
X68095714Y-122644819D01*
X68095714Y-122644819D02*
X67762381Y-123025771D01*
X67762381Y-123025771D02*
X67905238Y-123025771D01*
X67905238Y-123025771D02*
X68000476Y-123073390D01*
X68000476Y-123073390D02*
X68048095Y-123121009D01*
X68048095Y-123121009D02*
X68095714Y-123216247D01*
X68095714Y-123216247D02*
X68095714Y-123454342D01*
X68095714Y-123454342D02*
X68048095Y-123549580D01*
X68048095Y-123549580D02*
X68000476Y-123597200D01*
X68000476Y-123597200D02*
X67905238Y-123644819D01*
X67905238Y-123644819D02*
X67619524Y-123644819D01*
X67619524Y-123644819D02*
X67524286Y-123597200D01*
X67524286Y-123597200D02*
X67476667Y-123549580D01*
X183268095Y-92164819D02*
X183268095Y-92974342D01*
X183268095Y-92974342D02*
X183315714Y-93069580D01*
X183315714Y-93069580D02*
X183363333Y-93117200D01*
X183363333Y-93117200D02*
X183458571Y-93164819D01*
X183458571Y-93164819D02*
X183649047Y-93164819D01*
X183649047Y-93164819D02*
X183744285Y-93117200D01*
X183744285Y-93117200D02*
X183791904Y-93069580D01*
X183791904Y-93069580D02*
X183839523Y-92974342D01*
X183839523Y-92974342D02*
X183839523Y-92164819D01*
X184220476Y-92164819D02*
X184887142Y-92164819D01*
X184887142Y-92164819D02*
X184458571Y-93164819D01*
X90678095Y-92164819D02*
X90678095Y-92974342D01*
X90678095Y-92974342D02*
X90725714Y-93069580D01*
X90725714Y-93069580D02*
X90773333Y-93117200D01*
X90773333Y-93117200D02*
X90868571Y-93164819D01*
X90868571Y-93164819D02*
X91059047Y-93164819D01*
X91059047Y-93164819D02*
X91154285Y-93117200D01*
X91154285Y-93117200D02*
X91201904Y-93069580D01*
X91201904Y-93069580D02*
X91249523Y-92974342D01*
X91249523Y-92974342D02*
X91249523Y-92164819D01*
X92201904Y-92164819D02*
X91725714Y-92164819D01*
X91725714Y-92164819D02*
X91678095Y-92641009D01*
X91678095Y-92641009D02*
X91725714Y-92593390D01*
X91725714Y-92593390D02*
X91820952Y-92545771D01*
X91820952Y-92545771D02*
X92059047Y-92545771D01*
X92059047Y-92545771D02*
X92154285Y-92593390D01*
X92154285Y-92593390D02*
X92201904Y-92641009D01*
X92201904Y-92641009D02*
X92249523Y-92736247D01*
X92249523Y-92736247D02*
X92249523Y-92974342D01*
X92249523Y-92974342D02*
X92201904Y-93069580D01*
X92201904Y-93069580D02*
X92154285Y-93117200D01*
X92154285Y-93117200D02*
X92059047Y-93164819D01*
X92059047Y-93164819D02*
X91820952Y-93164819D01*
X91820952Y-93164819D02*
X91725714Y-93117200D01*
X91725714Y-93117200D02*
X91678095Y-93069580D01*
X216219580Y-90316666D02*
X216267200Y-90364285D01*
X216267200Y-90364285D02*
X216314819Y-90507142D01*
X216314819Y-90507142D02*
X216314819Y-90602380D01*
X216314819Y-90602380D02*
X216267200Y-90745237D01*
X216267200Y-90745237D02*
X216171961Y-90840475D01*
X216171961Y-90840475D02*
X216076723Y-90888094D01*
X216076723Y-90888094D02*
X215886247Y-90935713D01*
X215886247Y-90935713D02*
X215743390Y-90935713D01*
X215743390Y-90935713D02*
X215552914Y-90888094D01*
X215552914Y-90888094D02*
X215457676Y-90840475D01*
X215457676Y-90840475D02*
X215362438Y-90745237D01*
X215362438Y-90745237D02*
X215314819Y-90602380D01*
X215314819Y-90602380D02*
X215314819Y-90507142D01*
X215314819Y-90507142D02*
X215362438Y-90364285D01*
X215362438Y-90364285D02*
X215410057Y-90316666D01*
X215314819Y-89459523D02*
X215314819Y-89649999D01*
X215314819Y-89649999D02*
X215362438Y-89745237D01*
X215362438Y-89745237D02*
X215410057Y-89792856D01*
X215410057Y-89792856D02*
X215552914Y-89888094D01*
X215552914Y-89888094D02*
X215743390Y-89935713D01*
X215743390Y-89935713D02*
X216124342Y-89935713D01*
X216124342Y-89935713D02*
X216219580Y-89888094D01*
X216219580Y-89888094D02*
X216267200Y-89840475D01*
X216267200Y-89840475D02*
X216314819Y-89745237D01*
X216314819Y-89745237D02*
X216314819Y-89554761D01*
X216314819Y-89554761D02*
X216267200Y-89459523D01*
X216267200Y-89459523D02*
X216219580Y-89411904D01*
X216219580Y-89411904D02*
X216124342Y-89364285D01*
X216124342Y-89364285D02*
X215886247Y-89364285D01*
X215886247Y-89364285D02*
X215791009Y-89411904D01*
X215791009Y-89411904D02*
X215743390Y-89459523D01*
X215743390Y-89459523D02*
X215695771Y-89554761D01*
X215695771Y-89554761D02*
X215695771Y-89745237D01*
X215695771Y-89745237D02*
X215743390Y-89840475D01*
X215743390Y-89840475D02*
X215791009Y-89888094D01*
X215791009Y-89888094D02*
X215886247Y-89935713D01*
X70933333Y-114699580D02*
X70885714Y-114747200D01*
X70885714Y-114747200D02*
X70742857Y-114794819D01*
X70742857Y-114794819D02*
X70647619Y-114794819D01*
X70647619Y-114794819D02*
X70504762Y-114747200D01*
X70504762Y-114747200D02*
X70409524Y-114651961D01*
X70409524Y-114651961D02*
X70361905Y-114556723D01*
X70361905Y-114556723D02*
X70314286Y-114366247D01*
X70314286Y-114366247D02*
X70314286Y-114223390D01*
X70314286Y-114223390D02*
X70361905Y-114032914D01*
X70361905Y-114032914D02*
X70409524Y-113937676D01*
X70409524Y-113937676D02*
X70504762Y-113842438D01*
X70504762Y-113842438D02*
X70647619Y-113794819D01*
X70647619Y-113794819D02*
X70742857Y-113794819D01*
X70742857Y-113794819D02*
X70885714Y-113842438D01*
X70885714Y-113842438D02*
X70933333Y-113890057D01*
X71885714Y-114794819D02*
X71314286Y-114794819D01*
X71600000Y-114794819D02*
X71600000Y-113794819D01*
X71600000Y-113794819D02*
X71504762Y-113937676D01*
X71504762Y-113937676D02*
X71409524Y-114032914D01*
X71409524Y-114032914D02*
X71314286Y-114080533D01*
X74114819Y-100496666D02*
X73638628Y-100829999D01*
X74114819Y-101068094D02*
X73114819Y-101068094D01*
X73114819Y-101068094D02*
X73114819Y-100687142D01*
X73114819Y-100687142D02*
X73162438Y-100591904D01*
X73162438Y-100591904D02*
X73210057Y-100544285D01*
X73210057Y-100544285D02*
X73305295Y-100496666D01*
X73305295Y-100496666D02*
X73448152Y-100496666D01*
X73448152Y-100496666D02*
X73543390Y-100544285D01*
X73543390Y-100544285D02*
X73591009Y-100591904D01*
X73591009Y-100591904D02*
X73638628Y-100687142D01*
X73638628Y-100687142D02*
X73638628Y-101068094D01*
X73210057Y-100115713D02*
X73162438Y-100068094D01*
X73162438Y-100068094D02*
X73114819Y-99972856D01*
X73114819Y-99972856D02*
X73114819Y-99734761D01*
X73114819Y-99734761D02*
X73162438Y-99639523D01*
X73162438Y-99639523D02*
X73210057Y-99591904D01*
X73210057Y-99591904D02*
X73305295Y-99544285D01*
X73305295Y-99544285D02*
X73400533Y-99544285D01*
X73400533Y-99544285D02*
X73543390Y-99591904D01*
X73543390Y-99591904D02*
X74114819Y-100163332D01*
X74114819Y-100163332D02*
X74114819Y-99544285D01*
D12*
%TO.C,BAR1*%
X127840000Y-126160000D02*
X129540000Y-126160000D01*
X128130000Y-125870000D02*
X128130000Y-115430000D01*
X148717000Y-125870000D02*
X128130000Y-125870000D01*
X127840000Y-124460000D02*
X127840000Y-126160000D01*
X128130000Y-115430000D02*
X148717000Y-115430000D01*
X148717000Y-115430000D02*
X148717000Y-125870000D01*
%TO.C,R4*%
X107950000Y-120420000D02*
X107950000Y-121190000D01*
X109320000Y-121190000D02*
X106580000Y-121190000D01*
X106580000Y-121190000D02*
X106580000Y-127730000D01*
X109320000Y-127730000D02*
X109320000Y-121190000D01*
X106580000Y-127730000D02*
X109320000Y-127730000D01*
X107950000Y-128500000D02*
X107950000Y-127730000D01*
%TO.C,J8*%
X245050000Y-82610000D02*
X245050000Y-81280000D01*
X246380000Y-82610000D02*
X245050000Y-82610000D01*
X247650000Y-82610000D02*
X252790000Y-82610000D01*
X247650000Y-82610000D02*
X247650000Y-79950000D01*
X252790000Y-82610000D02*
X252790000Y-79950000D01*
X247650000Y-79950000D02*
X252790000Y-79950000D01*
%TO.C,U4*%
X201700000Y-87570000D02*
X201700000Y-105470000D01*
X201700000Y-105470000D02*
X207000000Y-105470000D01*
X203350000Y-87570000D02*
X201700000Y-87570000D01*
X207000000Y-87570000D02*
X205350000Y-87570000D01*
X207000000Y-105470000D02*
X207000000Y-87570000D01*
X203350000Y-87570000D02*
G75*
G03*
X205350000Y-87570000I1000000J0D01*
G01*
%TO.C,XiaoNiuNiu*%
G36*
X124050799Y-124935460D02*
G01*
X124135540Y-124990643D01*
X124192926Y-125073313D01*
X124214956Y-125172455D01*
X124193631Y-125277057D01*
X124131950Y-125365577D01*
X124025669Y-125437394D01*
X123913038Y-125451303D01*
X123802022Y-125406340D01*
X123801036Y-125405652D01*
X123723216Y-125318675D01*
X123691606Y-125211161D01*
X123705058Y-125100358D01*
X123762425Y-125003514D01*
X123831253Y-124951607D01*
X123946703Y-124918777D01*
X124050799Y-124935460D01*
G37*
G36*
X122538901Y-124936764D02*
G01*
X122626648Y-124986597D01*
X122691223Y-125063366D01*
X122721214Y-125159849D01*
X122705209Y-125268824D01*
X122691305Y-125299870D01*
X122611264Y-125402021D01*
X122511109Y-125450591D01*
X122401651Y-125443860D01*
X122293700Y-125380108D01*
X122278361Y-125365577D01*
X122206400Y-125259253D01*
X122193327Y-125147168D01*
X122239676Y-125035974D01*
X122250751Y-125021092D01*
X122339541Y-124946790D01*
X122439395Y-124921088D01*
X122538901Y-124936764D01*
G37*
G36*
X122802141Y-127117826D02*
G01*
X122906281Y-127181951D01*
X122982932Y-127276038D01*
X123026687Y-127385063D01*
X123032142Y-127494000D01*
X122993892Y-127587825D01*
X122977828Y-127606205D01*
X122897878Y-127658239D01*
X122812580Y-127654366D01*
X122714263Y-127594122D01*
X122709385Y-127590058D01*
X122631323Y-127499444D01*
X122579156Y-127390506D01*
X122561841Y-127285396D01*
X122568745Y-127242150D01*
X122620737Y-127161428D01*
X122702616Y-127115103D01*
X122792830Y-127114656D01*
X122802141Y-127117826D01*
G37*
G36*
X123696748Y-127099096D02*
G01*
X123751829Y-127137845D01*
X123765895Y-127151551D01*
X123815855Y-127240497D01*
X123822601Y-127349870D01*
X123790519Y-127462558D01*
X123723994Y-127561448D01*
X123645646Y-127620847D01*
X123551378Y-127659650D01*
X123483640Y-127657328D01*
X123423223Y-127612536D01*
X123416057Y-127604802D01*
X123368888Y-127511536D01*
X123367097Y-127400448D01*
X123405853Y-127287680D01*
X123480323Y-127189377D01*
X123556719Y-127134847D01*
X123639680Y-127098733D01*
X123696748Y-127099096D01*
G37*
G36*
X123830521Y-122530009D02*
G01*
X124255821Y-122625233D01*
X124656320Y-122769487D01*
X124689899Y-122784462D01*
X124875681Y-122868700D01*
X125070967Y-122768102D01*
X125263661Y-122682234D01*
X125435760Y-122631874D01*
X125580864Y-122617487D01*
X125692572Y-122639537D01*
X125764483Y-122698488D01*
X125774615Y-122717084D01*
X125790786Y-122811391D01*
X125776250Y-122942759D01*
X125733915Y-123097804D01*
X125666689Y-123263139D01*
X125647532Y-123302159D01*
X125600841Y-123408793D01*
X125584498Y-123481401D01*
X125598713Y-123513850D01*
X125640674Y-123501919D01*
X125702031Y-123491826D01*
X125805360Y-123503811D01*
X125937628Y-123534476D01*
X126085797Y-123580424D01*
X126236834Y-123638257D01*
X126335174Y-123682955D01*
X126477158Y-123757408D01*
X126599309Y-123834762D01*
X126719583Y-123928048D01*
X126855937Y-124050297D01*
X126903491Y-124095358D01*
X127011002Y-124202060D01*
X127100217Y-124298074D01*
X127162784Y-124373853D01*
X127190350Y-124419849D01*
X127190955Y-124423920D01*
X127162801Y-124467939D01*
X127086239Y-124514909D01*
X126973120Y-124561160D01*
X126835292Y-124603019D01*
X126684605Y-124636815D01*
X126532909Y-124658876D01*
X126410818Y-124665661D01*
X126252042Y-124666109D01*
X126415779Y-124894312D01*
X126673063Y-125304685D01*
X126878207Y-125745880D01*
X127031045Y-126217513D01*
X127074779Y-126401867D01*
X127116378Y-126662212D01*
X127139765Y-126957705D01*
X127144985Y-127268340D01*
X127132080Y-127574109D01*
X127101095Y-127855005D01*
X127071284Y-128014754D01*
X126932653Y-128499902D01*
X126743764Y-128951433D01*
X126503737Y-129370894D01*
X126211694Y-129759835D01*
X125885196Y-130102539D01*
X125609204Y-130362347D01*
X125672218Y-130450842D01*
X125780636Y-130647133D01*
X125852606Y-130871512D01*
X125876386Y-131031265D01*
X125878564Y-131181386D01*
X125853990Y-131289136D01*
X125794928Y-131369708D01*
X125693643Y-131438290D01*
X125660287Y-131455608D01*
X125609650Y-131479803D01*
X125561045Y-131498366D01*
X125505582Y-131512185D01*
X125434369Y-131522150D01*
X125338517Y-131529150D01*
X125209135Y-131534074D01*
X125037333Y-131537812D01*
X124814220Y-131541253D01*
X124802371Y-131541422D01*
X124481201Y-131543260D01*
X124214809Y-131538033D01*
X123997637Y-131524568D01*
X123824130Y-131501691D01*
X123688730Y-131468229D01*
X123585882Y-131423007D01*
X123510030Y-131364853D01*
X123455616Y-131292593D01*
X123435566Y-131252745D01*
X123408526Y-131199335D01*
X123376172Y-131171469D01*
X123320496Y-131161858D01*
X123223489Y-131163209D01*
X123215144Y-131163510D01*
X123114023Y-131169436D01*
X123054498Y-131184041D01*
X123017548Y-131216520D01*
X122984733Y-131274900D01*
X122906134Y-131374984D01*
X122779879Y-131451309D01*
X122601358Y-131506465D01*
X122555289Y-131515887D01*
X122456992Y-131527718D01*
X122312029Y-131536343D01*
X122132228Y-131541866D01*
X121929414Y-131544388D01*
X121715414Y-131544014D01*
X121502054Y-131540847D01*
X121301160Y-131534990D01*
X121124558Y-131526546D01*
X120984074Y-131515619D01*
X120891535Y-131502312D01*
X120887264Y-131501319D01*
X120732196Y-131445923D01*
X120628593Y-131363333D01*
X120570761Y-131246556D01*
X120553007Y-131090650D01*
X120571649Y-130905338D01*
X120622268Y-130714890D01*
X120696903Y-130545843D01*
X120734185Y-130486640D01*
X120799158Y-130395394D01*
X120438702Y-130038926D01*
X120178562Y-129764524D01*
X119962890Y-129496993D01*
X119779950Y-129220491D01*
X119635643Y-128955012D01*
X119451079Y-128517467D01*
X119322523Y-128063828D01*
X119288286Y-127846474D01*
X119412363Y-127846474D01*
X119419361Y-127897543D01*
X119438601Y-127987469D01*
X119466535Y-128106324D01*
X119593348Y-128519024D01*
X119772311Y-128924224D01*
X119996704Y-129311026D01*
X120259807Y-129668531D01*
X120554899Y-129985842D01*
X120711621Y-130125419D01*
X120888044Y-130272240D01*
X121038987Y-130163799D01*
X121278992Y-130026225D01*
X121532162Y-129944874D01*
X121790936Y-129919141D01*
X122047753Y-129948425D01*
X122295051Y-130032120D01*
X122525270Y-130169623D01*
X122668572Y-130293918D01*
X122805934Y-130458847D01*
X122914637Y-130644615D01*
X122984238Y-130831751D01*
X123000133Y-130912069D01*
X123016120Y-131031265D01*
X123208569Y-131031265D01*
X123313440Y-131029727D01*
X123372971Y-131021091D01*
X123402432Y-130999321D01*
X123417093Y-130958381D01*
X123419472Y-130947911D01*
X123485195Y-130717228D01*
X123575169Y-130527306D01*
X123699382Y-130359987D01*
X123798168Y-130259450D01*
X124007949Y-130101541D01*
X124244248Y-129990544D01*
X124495349Y-129930044D01*
X124749539Y-129923623D01*
X124851169Y-129937314D01*
X124984713Y-129971118D01*
X125127127Y-130021935D01*
X125261060Y-130082045D01*
X125369161Y-130143730D01*
X125430907Y-130195259D01*
X125479858Y-130235277D01*
X125534128Y-130231048D01*
X125607833Y-130180491D01*
X125623662Y-130166832D01*
X125677493Y-130112929D01*
X125689631Y-130071650D01*
X125669609Y-130023816D01*
X125652297Y-129961798D01*
X125636905Y-129842239D01*
X125623720Y-129668197D01*
X125613032Y-129442731D01*
X125611835Y-129409665D01*
X125604571Y-129213562D01*
X125597098Y-129064751D01*
X125587344Y-128949933D01*
X125573238Y-128855810D01*
X125552707Y-128769082D01*
X125523681Y-128676450D01*
X125484087Y-128564614D01*
X125477277Y-128545823D01*
X125410761Y-128344782D01*
X125372478Y-128183351D01*
X125359503Y-128050859D01*
X125361345Y-127946865D01*
X125375773Y-127880443D01*
X125411008Y-127828705D01*
X125454077Y-127787515D01*
X125545540Y-127721126D01*
X125653581Y-127676115D01*
X125790754Y-127649371D01*
X125969618Y-127637783D01*
X126062871Y-127636684D01*
X126227209Y-127631227D01*
X126359426Y-127616140D01*
X126441749Y-127594504D01*
X126505340Y-127554289D01*
X126594674Y-127481425D01*
X126695015Y-127388387D01*
X126745992Y-127336867D01*
X126837151Y-127245041D01*
X126914951Y-127172673D01*
X126968767Y-127129335D01*
X126985383Y-127121241D01*
X127001423Y-127093306D01*
X127007274Y-127016942D01*
X127003867Y-126903314D01*
X126992138Y-126763584D01*
X126973018Y-126608915D01*
X126947442Y-126450470D01*
X126916848Y-126301581D01*
X126887431Y-126178051D01*
X126862533Y-126078888D01*
X126845575Y-126017440D01*
X126840620Y-126004210D01*
X126808351Y-125994321D01*
X126731471Y-125977782D01*
X126625182Y-125957803D01*
X126599835Y-125953347D01*
X126476768Y-125927176D01*
X126368106Y-125895658D01*
X126295582Y-125865194D01*
X126291097Y-125862414D01*
X126252043Y-125833181D01*
X126230066Y-125799015D01*
X126221662Y-125744367D01*
X126223330Y-125653688D01*
X126227447Y-125579863D01*
X126251436Y-125386075D01*
X126298887Y-125237206D01*
X126309051Y-125216333D01*
X126345313Y-125129197D01*
X126360387Y-125057697D01*
X126357902Y-125035306D01*
X126329823Y-124983855D01*
X126280966Y-124911162D01*
X126223734Y-124833758D01*
X126170533Y-124768175D01*
X126133768Y-124730943D01*
X126127045Y-124727667D01*
X126121328Y-124754027D01*
X126125979Y-124822843D01*
X126134754Y-124885859D01*
X126154609Y-125055938D01*
X126165342Y-125253886D01*
X126167211Y-125462634D01*
X126160473Y-125665112D01*
X126145387Y-125844253D01*
X126122211Y-125982988D01*
X126117916Y-125999761D01*
X125987639Y-126364740D01*
X125800335Y-126720274D01*
X125559358Y-127062337D01*
X125268059Y-127386901D01*
X124929790Y-127689936D01*
X124547903Y-127967415D01*
X124406022Y-128056861D01*
X124287494Y-128123905D01*
X124149499Y-128194330D01*
X124005367Y-128262212D01*
X123868431Y-128321627D01*
X123752022Y-128366650D01*
X123669472Y-128391359D01*
X123646698Y-128394272D01*
X123608931Y-128419566D01*
X123573090Y-128478236D01*
X123554177Y-128544465D01*
X123553723Y-128554288D01*
X123572893Y-128594008D01*
X123624481Y-128666239D01*
X123699604Y-128759116D01*
X123753775Y-128821496D01*
X123882211Y-128974072D01*
X123968680Y-129098964D01*
X124018759Y-129206095D01*
X124038028Y-129305391D01*
X124038688Y-129328434D01*
X124010427Y-129449155D01*
X123933571Y-129560023D01*
X123820011Y-129655229D01*
X123681638Y-129728961D01*
X123530343Y-129775409D01*
X123378017Y-129788764D01*
X123236550Y-129763213D01*
X123190062Y-129743110D01*
X123084628Y-129661705D01*
X122990341Y-129540649D01*
X122923155Y-129400722D01*
X122920141Y-129391578D01*
X122856779Y-129239178D01*
X122765342Y-129099464D01*
X122639628Y-128966772D01*
X122473434Y-128835436D01*
X122260560Y-128699794D01*
X122014388Y-128564363D01*
X121811282Y-128452641D01*
X121663678Y-128357999D01*
X121569415Y-128278801D01*
X121526335Y-128213413D01*
X121522936Y-128192148D01*
X121539399Y-128113179D01*
X121579751Y-128021385D01*
X121630431Y-127943644D01*
X121664069Y-127912403D01*
X121702831Y-127883907D01*
X121689020Y-127861118D01*
X121666294Y-127846837D01*
X121527362Y-127749447D01*
X121365128Y-127612843D01*
X121190347Y-127447961D01*
X121013776Y-127265732D01*
X120846172Y-127077093D01*
X120698293Y-126892978D01*
X120618196Y-126781429D01*
X120533229Y-126637078D01*
X120444932Y-126455236D01*
X120362579Y-126257707D01*
X120295447Y-126066295D01*
X120261174Y-125942075D01*
X120239775Y-125808057D01*
X120225481Y-125633007D01*
X120218553Y-125436125D01*
X120219253Y-125236612D01*
X120227841Y-125053669D01*
X120244580Y-124906496D01*
X120246906Y-124893442D01*
X120262374Y-124802574D01*
X120266116Y-124747196D01*
X120254529Y-124729913D01*
X120224006Y-124753330D01*
X120170942Y-124820052D01*
X120091732Y-124932683D01*
X119995216Y-125075298D01*
X119836135Y-125327812D01*
X119709889Y-125566673D01*
X119603085Y-125817443D01*
X119594428Y-125840250D01*
X119548539Y-125970336D01*
X119528874Y-126058304D01*
X119536801Y-126117332D01*
X119573688Y-126160594D01*
X119631418Y-126196206D01*
X119750365Y-126280192D01*
X119865411Y-126395247D01*
X119961239Y-126523088D01*
X120022527Y-126645431D01*
X120030547Y-126672562D01*
X120049353Y-126764211D01*
X120071112Y-126892401D01*
X120091885Y-127033446D01*
X120097098Y-127072864D01*
X120118215Y-127209534D01*
X120144003Y-127336422D01*
X120169844Y-127431706D01*
X120177280Y-127451742D01*
X120246080Y-127573595D01*
X120335573Y-127673167D01*
X120430229Y-127734105D01*
X120452204Y-127741218D01*
X120526134Y-127788463D01*
X120582473Y-127879228D01*
X120620231Y-127999097D01*
X120638416Y-128133656D01*
X120636039Y-128268488D01*
X120612108Y-128389180D01*
X120565636Y-128481317D01*
X120506184Y-128526995D01*
X120425475Y-128544830D01*
X120338769Y-128534631D01*
X120239602Y-128492788D01*
X120121509Y-128415688D01*
X119978026Y-128299720D01*
X119802687Y-128141273D01*
X119783466Y-128123249D01*
X119667005Y-128015546D01*
X119564948Y-127924544D01*
X119485850Y-127857615D01*
X119438268Y-127822131D01*
X119429645Y-127818377D01*
X119416245Y-127823629D01*
X119412363Y-127846474D01*
X119288286Y-127846474D01*
X119249435Y-127599841D01*
X119231274Y-127131253D01*
X119267498Y-126663811D01*
X119357568Y-126203262D01*
X119500942Y-125755352D01*
X119697078Y-125325828D01*
X119945438Y-124920436D01*
X120025735Y-124810083D01*
X120134472Y-124666109D01*
X119972439Y-124665661D01*
X119828248Y-124656648D01*
X119675179Y-124632786D01*
X119525031Y-124597717D01*
X119389604Y-124555082D01*
X119280696Y-124508522D01*
X119210107Y-124461678D01*
X119189046Y-124423920D01*
X119209303Y-124385141D01*
X119401217Y-124385141D01*
X119428881Y-124409314D01*
X119502019Y-124436809D01*
X119605853Y-124464284D01*
X119725603Y-124488401D01*
X119846491Y-124505818D01*
X119953738Y-124513195D01*
X119967941Y-124513228D01*
X120087300Y-124502509D01*
X120206009Y-124477429D01*
X120234750Y-124468219D01*
X120339860Y-124433218D01*
X120409038Y-124422552D01*
X120446569Y-124443156D01*
X120456737Y-124501967D01*
X120443828Y-124605921D01*
X120413186Y-124757040D01*
X120387832Y-124915681D01*
X120370584Y-125107192D01*
X120361674Y-125314460D01*
X120361337Y-125520373D01*
X120369807Y-125707820D01*
X120387316Y-125859688D01*
X120397443Y-125908830D01*
X120450337Y-126075078D01*
X120530296Y-126269263D01*
X120627767Y-126471014D01*
X120733194Y-126659958D01*
X120795404Y-126757392D01*
X120933652Y-126940173D01*
X121108000Y-127138839D01*
X121303077Y-127337247D01*
X121503516Y-127519253D01*
X121583556Y-127585289D01*
X121810883Y-127766747D01*
X121824975Y-127655245D01*
X122007786Y-127655245D01*
X122011133Y-127774027D01*
X122025162Y-127858066D01*
X122026912Y-127862964D01*
X122067148Y-127905784D01*
X122153849Y-127961888D01*
X122275705Y-128026202D01*
X122421407Y-128093655D01*
X122579646Y-128159171D01*
X122739113Y-128217679D01*
X122888498Y-128264104D01*
X122962673Y-128282741D01*
X123115238Y-128298944D01*
X123300649Y-128290823D01*
X123496851Y-128259754D01*
X123556452Y-128245669D01*
X123691018Y-128205015D01*
X123844467Y-128149188D01*
X123999934Y-128085335D01*
X124140551Y-128020600D01*
X124249453Y-127962132D01*
X124290413Y-127934701D01*
X124346272Y-127856684D01*
X124375837Y-127739316D01*
X124379729Y-127597562D01*
X124358566Y-127446389D01*
X124312969Y-127300763D01*
X124259948Y-127199281D01*
X124102798Y-127011086D01*
X123908996Y-126863419D01*
X123687524Y-126756907D01*
X123447367Y-126692179D01*
X123197510Y-126669862D01*
X122946935Y-126690582D01*
X122704629Y-126754968D01*
X122479573Y-126863647D01*
X122280754Y-127017247D01*
X122240390Y-127058237D01*
X122158735Y-127153967D01*
X122089647Y-127249824D01*
X122051551Y-127317925D01*
X122029023Y-127404446D01*
X122014092Y-127524469D01*
X122007786Y-127655245D01*
X121824975Y-127655245D01*
X121832951Y-127592145D01*
X121860241Y-127457999D01*
X121904391Y-127316161D01*
X121928743Y-127256505D01*
X122062036Y-127034933D01*
X122243150Y-126848998D01*
X122473148Y-126697789D01*
X122692303Y-126601487D01*
X122870367Y-126556753D01*
X123082057Y-126534559D01*
X123304724Y-126534905D01*
X123515718Y-126557791D01*
X123687697Y-126601487D01*
X123947392Y-126721500D01*
X124166093Y-126875206D01*
X124339617Y-127057860D01*
X124463786Y-127264719D01*
X124534417Y-127491038D01*
X124545827Y-127575195D01*
X124557719Y-127671252D01*
X124571988Y-127737384D01*
X124583501Y-127757756D01*
X124613599Y-127739400D01*
X124680226Y-127689351D01*
X124773690Y-127615144D01*
X124884298Y-127524310D01*
X124890121Y-127519453D01*
X125209453Y-127222667D01*
X125481427Y-126906382D01*
X125702740Y-126575546D01*
X125870087Y-126235108D01*
X125980165Y-125890016D01*
X125981271Y-125885230D01*
X125999315Y-125761041D01*
X126009035Y-125593517D01*
X126010692Y-125399335D01*
X126004552Y-125195169D01*
X125990878Y-124997695D01*
X125969935Y-124823588D01*
X125963895Y-124787350D01*
X125936203Y-124624794D01*
X125923919Y-124514653D01*
X125931095Y-124449795D01*
X125961785Y-124423087D01*
X126020042Y-124427398D01*
X126109919Y-124455593D01*
X126145251Y-124468219D01*
X126254748Y-124496106D01*
X126378751Y-124511971D01*
X126412060Y-124513228D01*
X126515933Y-124507672D01*
X126635698Y-124491568D01*
X126756576Y-124468256D01*
X126863787Y-124441076D01*
X126942552Y-124413369D01*
X126978093Y-124388474D01*
X126978783Y-124385141D01*
X126955900Y-124342817D01*
X126894165Y-124274400D01*
X126803953Y-124189178D01*
X126695637Y-124096439D01*
X126579591Y-124005471D01*
X126466189Y-123925561D01*
X126463509Y-123923806D01*
X126184580Y-123772773D01*
X125888805Y-123675907D01*
X125675442Y-123638982D01*
X125545667Y-123626701D01*
X125459407Y-123627849D01*
X125400885Y-123643232D01*
X125380983Y-123654005D01*
X125306807Y-123686895D01*
X125255780Y-123696181D01*
X125228186Y-123701915D01*
X125209947Y-123726595D01*
X125198258Y-123781441D01*
X125190316Y-123877672D01*
X125185389Y-123977860D01*
X125169431Y-124165557D01*
X125136918Y-124305104D01*
X125082600Y-124407906D01*
X125001230Y-124485371D01*
X124932840Y-124526757D01*
X124786854Y-124577367D01*
X124604145Y-124601033D01*
X124396417Y-124600150D01*
X124175373Y-124577111D01*
X123952716Y-124534310D01*
X123740149Y-124474140D01*
X123549375Y-124398994D01*
X123392097Y-124311268D01*
X123280018Y-124213354D01*
X123258198Y-124184240D01*
X123200170Y-124044586D01*
X123191158Y-123886340D01*
X123228732Y-123722970D01*
X123310459Y-123567944D01*
X123385635Y-123478502D01*
X123453516Y-123428924D01*
X123558144Y-123372588D01*
X123678371Y-123320717D01*
X123693787Y-123314980D01*
X123870577Y-123243302D01*
X123989837Y-123175170D01*
X124053986Y-123105146D01*
X124065445Y-123027792D01*
X124026634Y-122937671D01*
X123939974Y-122829343D01*
X123919597Y-122807613D01*
X123770197Y-122650998D01*
X123313173Y-122639851D01*
X122858704Y-122648626D01*
X122446156Y-122698581D01*
X122072435Y-122790296D01*
X121734443Y-122924353D01*
X121696271Y-122943245D01*
X121625929Y-122981836D01*
X121601556Y-123010987D01*
X121614222Y-123046968D01*
X121628073Y-123067510D01*
X121668554Y-123173769D01*
X121667913Y-123302449D01*
X121629928Y-123435240D01*
X121558375Y-123553831D01*
X121519264Y-123594962D01*
X121400811Y-123666863D01*
X121254363Y-123704242D01*
X121105445Y-123701050D01*
X121087309Y-123697357D01*
X121005268Y-123673686D01*
X120949452Y-123648671D01*
X120942814Y-123643458D01*
X120895862Y-123630734D01*
X120805102Y-123631453D01*
X120685345Y-123643621D01*
X120551404Y-123665245D01*
X120418094Y-123694330D01*
X120300227Y-123728884D01*
X120295370Y-123730590D01*
X120174027Y-123781993D01*
X120035075Y-123853183D01*
X119916492Y-123923806D01*
X119803286Y-124003325D01*
X119687180Y-124094132D01*
X119578549Y-124186939D01*
X119487764Y-124272458D01*
X119425201Y-124341402D01*
X119401232Y-124384483D01*
X119401217Y-124385141D01*
X119209303Y-124385141D01*
X119210021Y-124383767D01*
X119267379Y-124312252D01*
X119352766Y-124218923D01*
X119457829Y-124113329D01*
X119476509Y-124095358D01*
X119621346Y-123961678D01*
X119744623Y-123860936D01*
X119864297Y-123780102D01*
X119998326Y-123706145D01*
X120044826Y-123682955D01*
X120213371Y-123609226D01*
X120381564Y-123551251D01*
X120536306Y-123512300D01*
X120664500Y-123495644D01*
X120753047Y-123504556D01*
X120755505Y-123505462D01*
X120789807Y-123508553D01*
X120790687Y-123496417D01*
X120771877Y-123457508D01*
X120733974Y-123379580D01*
X120684495Y-123278082D01*
X120674313Y-123257216D01*
X120588000Y-123035800D01*
X120558580Y-122873707D01*
X120553874Y-122773959D01*
X120562139Y-122714744D01*
X120589477Y-122676366D01*
X120628557Y-122647838D01*
X120683873Y-122618002D01*
X120741024Y-122608494D01*
X120822446Y-122617674D01*
X120882046Y-122629336D01*
X120997396Y-122661641D01*
X121135980Y-122712356D01*
X121267980Y-122770557D01*
X121269123Y-122771119D01*
X121485119Y-122877406D01*
X121680501Y-122788815D01*
X122080452Y-122639111D01*
X122505386Y-122538365D01*
X122945346Y-122486589D01*
X123390377Y-122483799D01*
X123830521Y-122530009D01*
G37*
%TO.C,J11*%
X222250000Y-105470000D02*
X240090000Y-105470000D01*
X222250000Y-105470000D02*
X222250000Y-102810000D01*
X240090000Y-105470000D02*
X240090000Y-102810000D01*
X219650000Y-104140000D02*
X219650000Y-102810000D01*
X219650000Y-102810000D02*
X220980000Y-102810000D01*
X222250000Y-102810000D02*
X240090000Y-102810000D01*
%TO.C,J15*%
X111760000Y-110550000D02*
X114360000Y-110550000D01*
X111760000Y-110550000D02*
X111760000Y-107890000D01*
X114360000Y-110550000D02*
X114360000Y-107890000D01*
X109160000Y-109220000D02*
X109160000Y-107890000D01*
X109160000Y-107890000D02*
X110490000Y-107890000D01*
X111760000Y-107890000D02*
X114360000Y-107890000D01*
%TO.C,J5*%
X199210000Y-82610000D02*
X199210000Y-81280000D01*
X200540000Y-82610000D02*
X199210000Y-82610000D01*
X201810000Y-82610000D02*
X206950000Y-82610000D01*
X201810000Y-82610000D02*
X201810000Y-79950000D01*
X206950000Y-82610000D02*
X206950000Y-79950000D01*
X201810000Y-79950000D02*
X206950000Y-79950000D01*
%TO.C,RN1*%
X78570000Y-110360000D02*
X78570000Y-113160000D01*
X78570000Y-113160000D02*
X101770000Y-113160000D01*
X81280000Y-110360000D02*
X81280000Y-113160000D01*
X101770000Y-110360000D02*
X78570000Y-110360000D01*
X101770000Y-113160000D02*
X101770000Y-110360000D01*
%TO.C,RN4*%
X125560000Y-110360000D02*
X125560000Y-113160000D01*
X125560000Y-113160000D02*
X148760000Y-113160000D01*
X128270000Y-110360000D02*
X128270000Y-113160000D01*
X148760000Y-110360000D02*
X125560000Y-110360000D01*
X148760000Y-113160000D02*
X148760000Y-110360000D01*
%TO.C,BAR2*%
X173440000Y-126160000D02*
X175140000Y-126160000D01*
X173730000Y-125870000D02*
X173730000Y-115430000D01*
X194317000Y-125870000D02*
X173730000Y-125870000D01*
X173440000Y-124460000D02*
X173440000Y-126160000D01*
X173730000Y-115430000D02*
X194317000Y-115430000D01*
X194317000Y-115430000D02*
X194317000Y-125870000D01*
%TO.C,RN3*%
X217000000Y-110360000D02*
X217000000Y-113160000D01*
X217000000Y-113160000D02*
X240200000Y-113160000D01*
X219710000Y-110360000D02*
X219710000Y-113160000D01*
X240200000Y-110360000D02*
X217000000Y-110360000D01*
X240200000Y-113160000D02*
X240200000Y-110360000D01*
%TO.C,C3*%
X76300000Y-87530000D02*
X73560000Y-87530000D01*
X76300000Y-87530000D02*
X76300000Y-92770000D01*
X73560000Y-87530000D02*
X73560000Y-92770000D01*
X76300000Y-92770000D02*
X73560000Y-92770000D01*
%TO.C,J14*%
X71120000Y-82610000D02*
X76260000Y-82610000D01*
X71120000Y-82610000D02*
X71120000Y-79950000D01*
X76260000Y-82610000D02*
X76260000Y-79950000D01*
X68520000Y-81280000D02*
X68520000Y-79950000D01*
X68520000Y-79950000D02*
X69850000Y-79950000D01*
X71120000Y-79950000D02*
X76260000Y-79950000D01*
%TO.C,SW2*%
X58020000Y-91960000D02*
X58020000Y-93460000D01*
X59270000Y-95960000D02*
X63770000Y-95960000D01*
X63770000Y-89460000D02*
X59270000Y-89460000D01*
X65020000Y-93460000D02*
X65020000Y-91960000D01*
%TO.C,U14*%
X217110000Y-95360000D02*
X242630000Y-95360000D01*
X242630000Y-95360000D02*
X242630000Y-90060000D01*
X217110000Y-93710000D02*
X217110000Y-95360000D01*
X217110000Y-90060000D02*
X217110000Y-91710000D01*
X242630000Y-90060000D02*
X217110000Y-90060000D01*
X217110000Y-93710000D02*
G75*
G03*
X217110000Y-91710000I0J1000000D01*
G01*
%TO.C,J13*%
X83820000Y-82610000D02*
X101660000Y-82610000D01*
X83820000Y-82610000D02*
X83820000Y-79950000D01*
X101660000Y-82610000D02*
X101660000Y-79950000D01*
X81220000Y-81280000D02*
X81220000Y-79950000D01*
X81220000Y-79950000D02*
X82550000Y-79950000D01*
X83820000Y-79950000D02*
X101660000Y-79950000D01*
%TO.C,U12*%
X247540000Y-87570000D02*
X247540000Y-105470000D01*
X247540000Y-105470000D02*
X252840000Y-105470000D01*
X249190000Y-87570000D02*
X247540000Y-87570000D01*
X252840000Y-87570000D02*
X251190000Y-87570000D01*
X252840000Y-105470000D02*
X252840000Y-87570000D01*
X249190000Y-87570000D02*
G75*
G03*
X251190000Y-87570000I1000000J0D01*
G01*
%TO.C,R1*%
X58420000Y-110720000D02*
X58420000Y-109950000D01*
X57050000Y-109950000D02*
X59790000Y-109950000D01*
X59790000Y-109950000D02*
X59790000Y-103410000D01*
X57050000Y-103410000D02*
X57050000Y-109950000D01*
X59790000Y-103410000D02*
X57050000Y-103410000D01*
X58420000Y-102640000D02*
X58420000Y-103410000D01*
%TO.C,D2*%
X106405000Y-116860000D02*
X109495000Y-116860000D01*
X107950462Y-111310001D02*
G75*
G03*
X106405170Y-116859999I-462J-2989999D01*
G01*
X109494830Y-116860000D02*
G75*
G03*
X107949538Y-111310000I-1544830J2560000D01*
G01*
X110450000Y-114300000D02*
G75*
G03*
X110450000Y-114300000I-2500000J0D01*
G01*
%TO.C,U10*%
X156100000Y-87570000D02*
X156100000Y-105470000D01*
X156100000Y-105470000D02*
X161400000Y-105470000D01*
X157750000Y-87570000D02*
X156100000Y-87570000D01*
X161400000Y-87570000D02*
X159750000Y-87570000D01*
X161400000Y-105470000D02*
X161400000Y-87570000D01*
X157750000Y-87570000D02*
G75*
G03*
X159750000Y-87570000I1000000J0D01*
G01*
%TO.C,J7*%
X176410000Y-105470000D02*
X194250000Y-105470000D01*
X176410000Y-105470000D02*
X176410000Y-102810000D01*
X194250000Y-105470000D02*
X194250000Y-102810000D01*
X173810000Y-104140000D02*
X173810000Y-102810000D01*
X173810000Y-102810000D02*
X175140000Y-102810000D01*
X176410000Y-102810000D02*
X194250000Y-102810000D01*
%TO.C,U6*%
X201700000Y-107890000D02*
X201700000Y-125790000D01*
X201700000Y-125790000D02*
X207000000Y-125790000D01*
X203350000Y-107890000D02*
X201700000Y-107890000D01*
X207000000Y-107890000D02*
X205350000Y-107890000D01*
X207000000Y-125790000D02*
X207000000Y-107890000D01*
X203350000Y-107890000D02*
G75*
G03*
X205350000Y-107890000I1000000J0D01*
G01*
%TO.C,J12*%
X83820000Y-105470000D02*
X101660000Y-105470000D01*
X83820000Y-105470000D02*
X83820000Y-102810000D01*
X101660000Y-105470000D02*
X101660000Y-102810000D01*
X81220000Y-104140000D02*
X81220000Y-102810000D01*
X81220000Y-102810000D02*
X82550000Y-102810000D01*
X83820000Y-102810000D02*
X101660000Y-102810000D01*
%TO.C,U1*%
X63390000Y-102810000D02*
X63390000Y-113090000D01*
X63390000Y-113090000D02*
X68690000Y-113090000D01*
X65040000Y-102810000D02*
X63390000Y-102810000D01*
X68690000Y-102810000D02*
X67040000Y-102810000D01*
X68690000Y-113090000D02*
X68690000Y-102810000D01*
X65040000Y-102810000D02*
G75*
G03*
X67040000Y-102810000I1000000J0D01*
G01*
%TO.C,J2*%
X60960000Y-79950000D02*
X58360000Y-79950000D01*
X60960000Y-79950000D02*
X60960000Y-82610000D01*
X58360000Y-79950000D02*
X58360000Y-82610000D01*
X63560000Y-81280000D02*
X63560000Y-82610000D01*
X63560000Y-82610000D02*
X62230000Y-82610000D01*
X60960000Y-82610000D02*
X58360000Y-82610000D01*
%TO.C,U13*%
X247540000Y-107890000D02*
X247540000Y-125790000D01*
X247540000Y-125790000D02*
X252840000Y-125790000D01*
X249190000Y-107890000D02*
X247540000Y-107890000D01*
X252840000Y-107890000D02*
X251190000Y-107890000D01*
X252840000Y-125790000D02*
X252840000Y-107890000D01*
X249190000Y-107890000D02*
G75*
G03*
X251190000Y-107890000I1000000J0D01*
G01*
%TO.C,U2*%
X125670000Y-95360000D02*
X151190000Y-95360000D01*
X151190000Y-95360000D02*
X151190000Y-90060000D01*
X125670000Y-93710000D02*
X125670000Y-95360000D01*
X125670000Y-90060000D02*
X125670000Y-91710000D01*
X151190000Y-90060000D02*
X125670000Y-90060000D01*
X125670000Y-93710000D02*
G75*
G03*
X125670000Y-91710000I0J1000000D01*
G01*
%TO.C,RN2*%
X171160000Y-110360000D02*
X171160000Y-113160000D01*
X171160000Y-113160000D02*
X194360000Y-113160000D01*
X173870000Y-110360000D02*
X173870000Y-113160000D01*
X194360000Y-110360000D02*
X171160000Y-110360000D01*
X194360000Y-113160000D02*
X194360000Y-110360000D01*
%TO.C,R5*%
X115570000Y-120420000D02*
X115570000Y-121190000D01*
X116940000Y-121190000D02*
X114200000Y-121190000D01*
X114200000Y-121190000D02*
X114200000Y-127730000D01*
X116940000Y-127730000D02*
X116940000Y-121190000D01*
X114200000Y-127730000D02*
X116940000Y-127730000D01*
X115570000Y-128500000D02*
X115570000Y-127730000D01*
%TO.C,U8*%
X156100000Y-107890000D02*
X156100000Y-125790000D01*
X156100000Y-125790000D02*
X161400000Y-125790000D01*
X157750000Y-107890000D02*
X156100000Y-107890000D01*
X161400000Y-107890000D02*
X159750000Y-107890000D01*
X161400000Y-125790000D02*
X161400000Y-107890000D01*
X157750000Y-107890000D02*
G75*
G03*
X159750000Y-107890000I1000000J0D01*
G01*
%TO.C,U19*%
X110380000Y-87570000D02*
X110380000Y-105470000D01*
X110380000Y-105470000D02*
X115680000Y-105470000D01*
X112030000Y-87570000D02*
X110380000Y-87570000D01*
X115680000Y-87570000D02*
X114030000Y-87570000D01*
X115680000Y-105470000D02*
X115680000Y-87570000D01*
X112030000Y-87570000D02*
G75*
G03*
X114030000Y-87570000I1000000J0D01*
G01*
%TO.C,C2*%
X75030000Y-107850000D02*
X72290000Y-107850000D01*
X75030000Y-107850000D02*
X75030000Y-113090000D01*
X72290000Y-107850000D02*
X72290000Y-113090000D01*
X75030000Y-113090000D02*
X72290000Y-113090000D01*
%TO.C,C5*%
X168890000Y-87530000D02*
X166150000Y-87530000D01*
X168890000Y-87530000D02*
X168890000Y-92770000D01*
X166150000Y-87530000D02*
X166150000Y-92770000D01*
X168890000Y-92770000D02*
X166150000Y-92770000D01*
%TO.C,D3*%
X114025000Y-116860000D02*
X117115000Y-116860000D01*
X115570462Y-111310001D02*
G75*
G03*
X114025170Y-116859999I-462J-2989999D01*
G01*
X117114830Y-116860000D02*
G75*
G03*
X115569538Y-111310000I-1544830J2560000D01*
G01*
X118070000Y-114300000D02*
G75*
G03*
X118070000Y-114300000I-2500000J0D01*
G01*
%TO.C,C4*%
X123290000Y-87530000D02*
X120550000Y-87530000D01*
X123290000Y-87530000D02*
X123290000Y-92770000D01*
X120550000Y-87530000D02*
X120550000Y-92770000D01*
X123290000Y-92770000D02*
X120550000Y-92770000D01*
%TO.C,SW1*%
X79890000Y-125840000D02*
X81273000Y-125840000D01*
X79890000Y-125840000D02*
X79890000Y-124456000D01*
X80130000Y-125600000D02*
X102751000Y-125600000D01*
X80130000Y-125600000D02*
X80130000Y-115700000D01*
X102751000Y-125600000D02*
X102751000Y-115700000D01*
X81915000Y-122680000D02*
X83185000Y-122680000D01*
X82035000Y-122680000D02*
X82035000Y-121326667D01*
X82155000Y-122680000D02*
X82155000Y-121326667D01*
X82275000Y-122680000D02*
X82275000Y-121326667D01*
X82395000Y-122680000D02*
X82395000Y-121326667D01*
X82515000Y-122680000D02*
X82515000Y-121326667D01*
X82635000Y-122680000D02*
X82635000Y-121326667D01*
X82755000Y-122680000D02*
X82755000Y-121326667D01*
X82875000Y-122680000D02*
X82875000Y-121326667D01*
X82995000Y-122680000D02*
X82995000Y-121326667D01*
X83115000Y-122680000D02*
X83115000Y-121326667D01*
X83185000Y-122680000D02*
X83185000Y-118620000D01*
X84455000Y-122680000D02*
X85725000Y-122680000D01*
X84575000Y-122680000D02*
X84575000Y-121326667D01*
X84695000Y-122680000D02*
X84695000Y-121326667D01*
X84815000Y-122680000D02*
X84815000Y-121326667D01*
X84935000Y-122680000D02*
X84935000Y-121326667D01*
X85055000Y-122680000D02*
X85055000Y-121326667D01*
X85175000Y-122680000D02*
X85175000Y-121326667D01*
X85295000Y-122680000D02*
X85295000Y-121326667D01*
X85415000Y-122680000D02*
X85415000Y-121326667D01*
X85535000Y-122680000D02*
X85535000Y-121326667D01*
X85655000Y-122680000D02*
X85655000Y-121326667D01*
X85725000Y-122680000D02*
X85725000Y-118620000D01*
X86995000Y-122680000D02*
X88265000Y-122680000D01*
X87115000Y-122680000D02*
X87115000Y-121326667D01*
X87235000Y-122680000D02*
X87235000Y-121326667D01*
X87355000Y-122680000D02*
X87355000Y-121326667D01*
X87475000Y-122680000D02*
X87475000Y-121326667D01*
X87595000Y-122680000D02*
X87595000Y-121326667D01*
X87715000Y-122680000D02*
X87715000Y-121326667D01*
X87835000Y-122680000D02*
X87835000Y-121326667D01*
X87955000Y-122680000D02*
X87955000Y-121326667D01*
X88075000Y-122680000D02*
X88075000Y-121326667D01*
X88195000Y-122680000D02*
X88195000Y-121326667D01*
X88265000Y-122680000D02*
X88265000Y-118620000D01*
X89535000Y-122680000D02*
X90805000Y-122680000D01*
X89655000Y-122680000D02*
X89655000Y-121326667D01*
X89775000Y-122680000D02*
X89775000Y-121326667D01*
X89895000Y-122680000D02*
X89895000Y-121326667D01*
X90015000Y-122680000D02*
X90015000Y-121326667D01*
X90135000Y-122680000D02*
X90135000Y-121326667D01*
X90255000Y-122680000D02*
X90255000Y-121326667D01*
X90375000Y-122680000D02*
X90375000Y-121326667D01*
X90495000Y-122680000D02*
X90495000Y-121326667D01*
X90615000Y-122680000D02*
X90615000Y-121326667D01*
X90735000Y-122680000D02*
X90735000Y-121326667D01*
X90805000Y-122680000D02*
X90805000Y-118620000D01*
X92075000Y-122680000D02*
X93345000Y-122680000D01*
X92195000Y-122680000D02*
X92195000Y-121326667D01*
X92315000Y-122680000D02*
X92315000Y-121326667D01*
X92435000Y-122680000D02*
X92435000Y-121326667D01*
X92555000Y-122680000D02*
X92555000Y-121326667D01*
X92675000Y-122680000D02*
X92675000Y-121326667D01*
X92795000Y-122680000D02*
X92795000Y-121326667D01*
X92915000Y-122680000D02*
X92915000Y-121326667D01*
X93035000Y-122680000D02*
X93035000Y-121326667D01*
X93155000Y-122680000D02*
X93155000Y-121326667D01*
X93275000Y-122680000D02*
X93275000Y-121326667D01*
X93345000Y-122680000D02*
X93345000Y-118620000D01*
X94615000Y-122680000D02*
X95885000Y-122680000D01*
X94735000Y-122680000D02*
X94735000Y-121326667D01*
X94855000Y-122680000D02*
X94855000Y-121326667D01*
X94975000Y-122680000D02*
X94975000Y-121326667D01*
X95095000Y-122680000D02*
X95095000Y-121326667D01*
X95215000Y-122680000D02*
X95215000Y-121326667D01*
X95335000Y-122680000D02*
X95335000Y-121326667D01*
X95455000Y-122680000D02*
X95455000Y-121326667D01*
X95575000Y-122680000D02*
X95575000Y-121326667D01*
X95695000Y-122680000D02*
X95695000Y-121326667D01*
X95815000Y-122680000D02*
X95815000Y-121326667D01*
X95885000Y-122680000D02*
X95885000Y-118620000D01*
X97155000Y-122680000D02*
X98425000Y-122680000D01*
X97275000Y-122680000D02*
X97275000Y-121326667D01*
X97395000Y-122680000D02*
X97395000Y-121326667D01*
X97515000Y-122680000D02*
X97515000Y-121326667D01*
X97635000Y-122680000D02*
X97635000Y-121326667D01*
X97755000Y-122680000D02*
X97755000Y-121326667D01*
X97875000Y-122680000D02*
X97875000Y-121326667D01*
X97995000Y-122680000D02*
X97995000Y-121326667D01*
X98115000Y-122680000D02*
X98115000Y-121326667D01*
X98235000Y-122680000D02*
X98235000Y-121326667D01*
X98355000Y-122680000D02*
X98355000Y-121326667D01*
X98425000Y-122680000D02*
X98425000Y-118620000D01*
X99695000Y-122680000D02*
X100965000Y-122680000D01*
X99815000Y-122680000D02*
X99815000Y-121326667D01*
X99935000Y-122680000D02*
X99935000Y-121326667D01*
X100055000Y-122680000D02*
X100055000Y-121326667D01*
X100175000Y-122680000D02*
X100175000Y-121326667D01*
X100295000Y-122680000D02*
X100295000Y-121326667D01*
X100415000Y-122680000D02*
X100415000Y-121326667D01*
X100535000Y-122680000D02*
X100535000Y-121326667D01*
X100655000Y-122680000D02*
X100655000Y-121326667D01*
X100775000Y-122680000D02*
X100775000Y-121326667D01*
X100895000Y-122680000D02*
X100895000Y-121326667D01*
X100965000Y-122680000D02*
X100965000Y-118620000D01*
X81915000Y-121326667D02*
X83185000Y-121326667D01*
X84455000Y-121326667D02*
X85725000Y-121326667D01*
X86995000Y-121326667D02*
X88265000Y-121326667D01*
X89535000Y-121326667D02*
X90805000Y-121326667D01*
X92075000Y-121326667D02*
X93345000Y-121326667D01*
X94615000Y-121326667D02*
X95885000Y-121326667D01*
X97155000Y-121326667D02*
X98425000Y-121326667D01*
X99695000Y-121326667D02*
X100965000Y-121326667D01*
X81915000Y-118620000D02*
X81915000Y-122680000D01*
X83185000Y-118620000D02*
X81915000Y-118620000D01*
X84455000Y-118620000D02*
X84455000Y-122680000D01*
X85725000Y-118620000D02*
X84455000Y-118620000D01*
X86995000Y-118620000D02*
X86995000Y-122680000D01*
X88265000Y-118620000D02*
X86995000Y-118620000D01*
X89535000Y-118620000D02*
X89535000Y-122680000D01*
X90805000Y-118620000D02*
X89535000Y-118620000D01*
X92075000Y-118620000D02*
X92075000Y-122680000D01*
X93345000Y-118620000D02*
X92075000Y-118620000D01*
X94615000Y-118620000D02*
X94615000Y-122680000D01*
X95885000Y-118620000D02*
X94615000Y-118620000D01*
X97155000Y-118620000D02*
X97155000Y-122680000D01*
X98425000Y-118620000D02*
X97155000Y-118620000D01*
X99695000Y-118620000D02*
X99695000Y-122680000D01*
X100965000Y-118620000D02*
X99695000Y-118620000D01*
X80130000Y-115700000D02*
X102751000Y-115700000D01*
%TO.C,R3*%
X63270000Y-123190000D02*
X64040000Y-123190000D01*
X64040000Y-121820000D02*
X64040000Y-124560000D01*
X64040000Y-124560000D02*
X70580000Y-124560000D01*
X70580000Y-121820000D02*
X64040000Y-121820000D01*
X70580000Y-124560000D02*
X70580000Y-121820000D01*
X71350000Y-123190000D02*
X70580000Y-123190000D01*
%TO.C,U7*%
X171270000Y-95360000D02*
X196790000Y-95360000D01*
X196790000Y-95360000D02*
X196790000Y-90060000D01*
X171270000Y-93710000D02*
X171270000Y-95360000D01*
X171270000Y-90060000D02*
X171270000Y-91710000D01*
X196790000Y-90060000D02*
X171270000Y-90060000D01*
X171270000Y-93710000D02*
G75*
G03*
X171270000Y-91710000I0J1000000D01*
G01*
%TO.C,BAR3*%
X219280000Y-126160000D02*
X220980000Y-126160000D01*
X219570000Y-125870000D02*
X219570000Y-115430000D01*
X240157000Y-125870000D02*
X219570000Y-125870000D01*
X219280000Y-124460000D02*
X219280000Y-126160000D01*
X219570000Y-115430000D02*
X240157000Y-115430000D01*
X240157000Y-115430000D02*
X240157000Y-125870000D01*
%TO.C,J9*%
X130810000Y-105470000D02*
X148650000Y-105470000D01*
X130810000Y-105470000D02*
X130810000Y-102810000D01*
X148650000Y-105470000D02*
X148650000Y-102810000D01*
X128210000Y-104140000D02*
X128210000Y-102810000D01*
X128210000Y-102810000D02*
X129540000Y-102810000D01*
X130810000Y-102810000D02*
X148650000Y-102810000D01*
%TO.C,J1*%
X153610000Y-82610000D02*
X153610000Y-81280000D01*
X154940000Y-82610000D02*
X153610000Y-82610000D01*
X156210000Y-82610000D02*
X161350000Y-82610000D01*
X156210000Y-82610000D02*
X156210000Y-79950000D01*
X161350000Y-82610000D02*
X161350000Y-79950000D01*
X156210000Y-79950000D02*
X161350000Y-79950000D01*
%TO.C,J4*%
X130810000Y-82610000D02*
X148650000Y-82610000D01*
X130810000Y-82610000D02*
X130810000Y-79950000D01*
X148650000Y-82610000D02*
X148650000Y-79950000D01*
X128210000Y-81280000D02*
X128210000Y-79950000D01*
X128210000Y-79950000D02*
X129540000Y-79950000D01*
X130810000Y-79950000D02*
X148650000Y-79950000D01*
%TO.C,U5*%
X78680000Y-95360000D02*
X104200000Y-95360000D01*
X104200000Y-95360000D02*
X104200000Y-90060000D01*
X78680000Y-93710000D02*
X78680000Y-95360000D01*
X78680000Y-90060000D02*
X78680000Y-91710000D01*
X104200000Y-90060000D02*
X78680000Y-90060000D01*
X78680000Y-93710000D02*
G75*
G03*
X78680000Y-91710000I0J1000000D01*
G01*
%TO.C,J10*%
X222250000Y-82610000D02*
X240090000Y-82610000D01*
X222250000Y-82610000D02*
X222250000Y-79950000D01*
X240090000Y-82610000D02*
X240090000Y-79950000D01*
X219650000Y-81280000D02*
X219650000Y-79950000D01*
X219650000Y-79950000D02*
X220980000Y-79950000D01*
X222250000Y-79950000D02*
X240090000Y-79950000D01*
%TO.C,D1*%
X60685000Y-120670000D02*
X63775000Y-120670000D01*
X62230462Y-115120001D02*
G75*
G03*
X60685170Y-120669999I-462J-2989999D01*
G01*
X63774830Y-120670000D02*
G75*
G03*
X62229538Y-115120000I-1544830J2560000D01*
G01*
X64730000Y-118110000D02*
G75*
G03*
X64730000Y-118110000I-2500000J0D01*
G01*
%TO.C,C6*%
X214730000Y-87530000D02*
X211990000Y-87530000D01*
X214730000Y-87530000D02*
X214730000Y-92770000D01*
X211990000Y-87530000D02*
X211990000Y-92770000D01*
X214730000Y-92770000D02*
X211990000Y-92770000D01*
%TO.C,J3*%
X106620000Y-82610000D02*
X106620000Y-81280000D01*
X107950000Y-82610000D02*
X106620000Y-82610000D01*
X109220000Y-82610000D02*
X119440000Y-82610000D01*
X109220000Y-82610000D02*
X109220000Y-79950000D01*
X119440000Y-82610000D02*
X119440000Y-79950000D01*
X109220000Y-79950000D02*
X119440000Y-79950000D01*
%TO.C,C1*%
X68480000Y-115470000D02*
X68480000Y-118210000D01*
X68480000Y-115470000D02*
X73720000Y-115470000D01*
X68480000Y-118210000D02*
X73720000Y-118210000D01*
X73720000Y-115470000D02*
X73720000Y-118210000D01*
%TO.C,R2*%
X73660000Y-96290000D02*
X73660000Y-97060000D01*
X75030000Y-97060000D02*
X72290000Y-97060000D01*
X72290000Y-97060000D02*
X72290000Y-103600000D01*
X75030000Y-103600000D02*
X75030000Y-97060000D01*
X72290000Y-103600000D02*
X75030000Y-103600000D01*
X73660000Y-104370000D02*
X73660000Y-103600000D01*
%TO.C,J6*%
X176410000Y-82610000D02*
X194250000Y-82610000D01*
X176410000Y-82610000D02*
X176410000Y-79950000D01*
X194250000Y-82610000D02*
X194250000Y-79950000D01*
X173810000Y-81280000D02*
X173810000Y-79950000D01*
X173810000Y-79950000D02*
X175140000Y-79950000D01*
X176410000Y-79950000D02*
X194250000Y-79950000D01*
%TD*%
M02*
