%TF.GenerationSoftware,KiCad,Pcbnew,7.0.6*%
%TF.CreationDate,2023-07-08T12:11:27+08:00*%
%TF.ProjectId,DigitalProtoBoard,44696769-7461-46c5-9072-6f746f426f61,rev?*%
%TF.SameCoordinates,Original*%
%TF.FileFunction,Drillmap*%
%TF.FilePolarity,Positive*%
%FSLAX45Y45*%
G04 Gerber Fmt 4.5, Leading zero omitted, Abs format (unit mm)*
G04 Created by KiCad (PCBNEW 7.0.6) date 2023-07-08 12:11:27*
%MOMM*%
%LPD*%
G01*
G04 APERTURE LIST*
%ADD10C,0.100000*%
%ADD11C,0.200000*%
%ADD12C,0.320000*%
G04 APERTURE END LIST*
D10*
X25781000Y-6858000D02*
G75*
G03*
X25654000Y-6731000I-127000J0D01*
G01*
X5461000Y-6858000D02*
X5461000Y-13208000D01*
X25781000Y-13208000D02*
X25781000Y-6858000D01*
X5461000Y-13208000D02*
G75*
G03*
X5588000Y-13335000I127000J0D01*
G01*
X5588000Y-13335000D02*
X25654000Y-13335000D01*
X25654000Y-13335000D02*
G75*
G03*
X25781000Y-13208000I0J127000D01*
G01*
X25654000Y-6731000D02*
X5588000Y-6731000D01*
X5588000Y-6731000D02*
G75*
G03*
X5461000Y-6858000I0J-127000D01*
G01*
D11*
D12*
X5809000Y-6952000D02*
X6129000Y-7272000D01*
X6129000Y-6952000D02*
X5809000Y-7272000D01*
X5809000Y-12794000D02*
X6129000Y-13114000D01*
X6129000Y-12794000D02*
X5809000Y-13114000D01*
X25113000Y-6952000D02*
X25433000Y-7272000D01*
X25433000Y-6952000D02*
X25113000Y-7272000D01*
X25113000Y-12794000D02*
X25433000Y-13114000D01*
X25433000Y-12794000D02*
X25113000Y-13114000D01*
D11*
X5716777Y-13651484D02*
X5716777Y-13451484D01*
X5716777Y-13451484D02*
X5764396Y-13451484D01*
X5764396Y-13451484D02*
X5792967Y-13461008D01*
X5792967Y-13461008D02*
X5812015Y-13480055D01*
X5812015Y-13480055D02*
X5821539Y-13499103D01*
X5821539Y-13499103D02*
X5831062Y-13537198D01*
X5831062Y-13537198D02*
X5831062Y-13565769D01*
X5831062Y-13565769D02*
X5821539Y-13603865D01*
X5821539Y-13603865D02*
X5812015Y-13622912D01*
X5812015Y-13622912D02*
X5792967Y-13641960D01*
X5792967Y-13641960D02*
X5764396Y-13651484D01*
X5764396Y-13651484D02*
X5716777Y-13651484D01*
X5916777Y-13651484D02*
X5916777Y-13518150D01*
X5916777Y-13556246D02*
X5926301Y-13537198D01*
X5926301Y-13537198D02*
X5935824Y-13527674D01*
X5935824Y-13527674D02*
X5954872Y-13518150D01*
X5954872Y-13518150D02*
X5973920Y-13518150D01*
X6040586Y-13651484D02*
X6040586Y-13518150D01*
X6040586Y-13451484D02*
X6031062Y-13461008D01*
X6031062Y-13461008D02*
X6040586Y-13470531D01*
X6040586Y-13470531D02*
X6050110Y-13461008D01*
X6050110Y-13461008D02*
X6040586Y-13451484D01*
X6040586Y-13451484D02*
X6040586Y-13470531D01*
X6164396Y-13651484D02*
X6145348Y-13641960D01*
X6145348Y-13641960D02*
X6135824Y-13622912D01*
X6135824Y-13622912D02*
X6135824Y-13451484D01*
X6269158Y-13651484D02*
X6250110Y-13641960D01*
X6250110Y-13641960D02*
X6240586Y-13622912D01*
X6240586Y-13622912D02*
X6240586Y-13451484D01*
X6497729Y-13651484D02*
X6497729Y-13451484D01*
X6497729Y-13451484D02*
X6564396Y-13594341D01*
X6564396Y-13594341D02*
X6631062Y-13451484D01*
X6631062Y-13451484D02*
X6631062Y-13651484D01*
X6812015Y-13651484D02*
X6812015Y-13546722D01*
X6812015Y-13546722D02*
X6802491Y-13527674D01*
X6802491Y-13527674D02*
X6783443Y-13518150D01*
X6783443Y-13518150D02*
X6745348Y-13518150D01*
X6745348Y-13518150D02*
X6726301Y-13527674D01*
X6812015Y-13641960D02*
X6792967Y-13651484D01*
X6792967Y-13651484D02*
X6745348Y-13651484D01*
X6745348Y-13651484D02*
X6726301Y-13641960D01*
X6726301Y-13641960D02*
X6716777Y-13622912D01*
X6716777Y-13622912D02*
X6716777Y-13603865D01*
X6716777Y-13603865D02*
X6726301Y-13584817D01*
X6726301Y-13584817D02*
X6745348Y-13575293D01*
X6745348Y-13575293D02*
X6792967Y-13575293D01*
X6792967Y-13575293D02*
X6812015Y-13565769D01*
X6907253Y-13518150D02*
X6907253Y-13718150D01*
X6907253Y-13527674D02*
X6926301Y-13518150D01*
X6926301Y-13518150D02*
X6964396Y-13518150D01*
X6964396Y-13518150D02*
X6983443Y-13527674D01*
X6983443Y-13527674D02*
X6992967Y-13537198D01*
X6992967Y-13537198D02*
X7002491Y-13556246D01*
X7002491Y-13556246D02*
X7002491Y-13613388D01*
X7002491Y-13613388D02*
X6992967Y-13632436D01*
X6992967Y-13632436D02*
X6983443Y-13641960D01*
X6983443Y-13641960D02*
X6964396Y-13651484D01*
X6964396Y-13651484D02*
X6926301Y-13651484D01*
X6926301Y-13651484D02*
X6907253Y-13641960D01*
X7088205Y-13632436D02*
X7097729Y-13641960D01*
X7097729Y-13641960D02*
X7088205Y-13651484D01*
X7088205Y-13651484D02*
X7078682Y-13641960D01*
X7078682Y-13641960D02*
X7088205Y-13632436D01*
X7088205Y-13632436D02*
X7088205Y-13651484D01*
X7088205Y-13527674D02*
X7097729Y-13537198D01*
X7097729Y-13537198D02*
X7088205Y-13546722D01*
X7088205Y-13546722D02*
X7078682Y-13537198D01*
X7078682Y-13537198D02*
X7088205Y-13527674D01*
X7088205Y-13527674D02*
X7088205Y-13546722D01*
X5256000Y-13880000D02*
X5456000Y-14080000D01*
X5456000Y-13880000D02*
X5256000Y-14080000D01*
X5697729Y-13871484D02*
X5821539Y-13871484D01*
X5821539Y-13871484D02*
X5754872Y-13947674D01*
X5754872Y-13947674D02*
X5783443Y-13947674D01*
X5783443Y-13947674D02*
X5802491Y-13957198D01*
X5802491Y-13957198D02*
X5812015Y-13966722D01*
X5812015Y-13966722D02*
X5821539Y-13985769D01*
X5821539Y-13985769D02*
X5821539Y-14033388D01*
X5821539Y-14033388D02*
X5812015Y-14052436D01*
X5812015Y-14052436D02*
X5802491Y-14061960D01*
X5802491Y-14061960D02*
X5783443Y-14071484D01*
X5783443Y-14071484D02*
X5726301Y-14071484D01*
X5726301Y-14071484D02*
X5707253Y-14061960D01*
X5707253Y-14061960D02*
X5697729Y-14052436D01*
X5907253Y-14052436D02*
X5916777Y-14061960D01*
X5916777Y-14061960D02*
X5907253Y-14071484D01*
X5907253Y-14071484D02*
X5897729Y-14061960D01*
X5897729Y-14061960D02*
X5907253Y-14052436D01*
X5907253Y-14052436D02*
X5907253Y-14071484D01*
X5992967Y-13890531D02*
X6002491Y-13881008D01*
X6002491Y-13881008D02*
X6021539Y-13871484D01*
X6021539Y-13871484D02*
X6069158Y-13871484D01*
X6069158Y-13871484D02*
X6088205Y-13881008D01*
X6088205Y-13881008D02*
X6097729Y-13890531D01*
X6097729Y-13890531D02*
X6107253Y-13909579D01*
X6107253Y-13909579D02*
X6107253Y-13928627D01*
X6107253Y-13928627D02*
X6097729Y-13957198D01*
X6097729Y-13957198D02*
X5983443Y-14071484D01*
X5983443Y-14071484D02*
X6107253Y-14071484D01*
X6231062Y-13871484D02*
X6250110Y-13871484D01*
X6250110Y-13871484D02*
X6269158Y-13881008D01*
X6269158Y-13881008D02*
X6278682Y-13890531D01*
X6278682Y-13890531D02*
X6288205Y-13909579D01*
X6288205Y-13909579D02*
X6297729Y-13947674D01*
X6297729Y-13947674D02*
X6297729Y-13995293D01*
X6297729Y-13995293D02*
X6288205Y-14033388D01*
X6288205Y-14033388D02*
X6278682Y-14052436D01*
X6278682Y-14052436D02*
X6269158Y-14061960D01*
X6269158Y-14061960D02*
X6250110Y-14071484D01*
X6250110Y-14071484D02*
X6231062Y-14071484D01*
X6231062Y-14071484D02*
X6212015Y-14061960D01*
X6212015Y-14061960D02*
X6202491Y-14052436D01*
X6202491Y-14052436D02*
X6192967Y-14033388D01*
X6192967Y-14033388D02*
X6183443Y-13995293D01*
X6183443Y-13995293D02*
X6183443Y-13947674D01*
X6183443Y-13947674D02*
X6192967Y-13909579D01*
X6192967Y-13909579D02*
X6202491Y-13890531D01*
X6202491Y-13890531D02*
X6212015Y-13881008D01*
X6212015Y-13881008D02*
X6231062Y-13871484D01*
X6421539Y-13871484D02*
X6440586Y-13871484D01*
X6440586Y-13871484D02*
X6459634Y-13881008D01*
X6459634Y-13881008D02*
X6469158Y-13890531D01*
X6469158Y-13890531D02*
X6478682Y-13909579D01*
X6478682Y-13909579D02*
X6488205Y-13947674D01*
X6488205Y-13947674D02*
X6488205Y-13995293D01*
X6488205Y-13995293D02*
X6478682Y-14033388D01*
X6478682Y-14033388D02*
X6469158Y-14052436D01*
X6469158Y-14052436D02*
X6459634Y-14061960D01*
X6459634Y-14061960D02*
X6440586Y-14071484D01*
X6440586Y-14071484D02*
X6421539Y-14071484D01*
X6421539Y-14071484D02*
X6402491Y-14061960D01*
X6402491Y-14061960D02*
X6392967Y-14052436D01*
X6392967Y-14052436D02*
X6383443Y-14033388D01*
X6383443Y-14033388D02*
X6373920Y-13995293D01*
X6373920Y-13995293D02*
X6373920Y-13947674D01*
X6373920Y-13947674D02*
X6383443Y-13909579D01*
X6383443Y-13909579D02*
X6392967Y-13890531D01*
X6392967Y-13890531D02*
X6402491Y-13881008D01*
X6402491Y-13881008D02*
X6421539Y-13871484D01*
X6573920Y-14071484D02*
X6573920Y-13938150D01*
X6573920Y-13957198D02*
X6583443Y-13947674D01*
X6583443Y-13947674D02*
X6602491Y-13938150D01*
X6602491Y-13938150D02*
X6631063Y-13938150D01*
X6631063Y-13938150D02*
X6650110Y-13947674D01*
X6650110Y-13947674D02*
X6659634Y-13966722D01*
X6659634Y-13966722D02*
X6659634Y-14071484D01*
X6659634Y-13966722D02*
X6669158Y-13947674D01*
X6669158Y-13947674D02*
X6688205Y-13938150D01*
X6688205Y-13938150D02*
X6716777Y-13938150D01*
X6716777Y-13938150D02*
X6735824Y-13947674D01*
X6735824Y-13947674D02*
X6745348Y-13966722D01*
X6745348Y-13966722D02*
X6745348Y-14071484D01*
X6840586Y-14071484D02*
X6840586Y-13938150D01*
X6840586Y-13957198D02*
X6850110Y-13947674D01*
X6850110Y-13947674D02*
X6869158Y-13938150D01*
X6869158Y-13938150D02*
X6897729Y-13938150D01*
X6897729Y-13938150D02*
X6916777Y-13947674D01*
X6916777Y-13947674D02*
X6926301Y-13966722D01*
X6926301Y-13966722D02*
X6926301Y-14071484D01*
X6926301Y-13966722D02*
X6935824Y-13947674D01*
X6935824Y-13947674D02*
X6954872Y-13938150D01*
X6954872Y-13938150D02*
X6983443Y-13938150D01*
X6983443Y-13938150D02*
X7002491Y-13947674D01*
X7002491Y-13947674D02*
X7012015Y-13966722D01*
X7012015Y-13966722D02*
X7012015Y-14071484D01*
X7402491Y-13861960D02*
X7231063Y-14119103D01*
X7659634Y-13871484D02*
X7678682Y-13871484D01*
X7678682Y-13871484D02*
X7697729Y-13881008D01*
X7697729Y-13881008D02*
X7707253Y-13890531D01*
X7707253Y-13890531D02*
X7716777Y-13909579D01*
X7716777Y-13909579D02*
X7726301Y-13947674D01*
X7726301Y-13947674D02*
X7726301Y-13995293D01*
X7726301Y-13995293D02*
X7716777Y-14033388D01*
X7716777Y-14033388D02*
X7707253Y-14052436D01*
X7707253Y-14052436D02*
X7697729Y-14061960D01*
X7697729Y-14061960D02*
X7678682Y-14071484D01*
X7678682Y-14071484D02*
X7659634Y-14071484D01*
X7659634Y-14071484D02*
X7640586Y-14061960D01*
X7640586Y-14061960D02*
X7631063Y-14052436D01*
X7631063Y-14052436D02*
X7621539Y-14033388D01*
X7621539Y-14033388D02*
X7612015Y-13995293D01*
X7612015Y-13995293D02*
X7612015Y-13947674D01*
X7612015Y-13947674D02*
X7621539Y-13909579D01*
X7621539Y-13909579D02*
X7631063Y-13890531D01*
X7631063Y-13890531D02*
X7640586Y-13881008D01*
X7640586Y-13881008D02*
X7659634Y-13871484D01*
X7812015Y-14052436D02*
X7821539Y-14061960D01*
X7821539Y-14061960D02*
X7812015Y-14071484D01*
X7812015Y-14071484D02*
X7802491Y-14061960D01*
X7802491Y-14061960D02*
X7812015Y-14052436D01*
X7812015Y-14052436D02*
X7812015Y-14071484D01*
X8012015Y-14071484D02*
X7897729Y-14071484D01*
X7954872Y-14071484D02*
X7954872Y-13871484D01*
X7954872Y-13871484D02*
X7935825Y-13900055D01*
X7935825Y-13900055D02*
X7916777Y-13919103D01*
X7916777Y-13919103D02*
X7897729Y-13928627D01*
X8088206Y-13890531D02*
X8097729Y-13881008D01*
X8097729Y-13881008D02*
X8116777Y-13871484D01*
X8116777Y-13871484D02*
X8164396Y-13871484D01*
X8164396Y-13871484D02*
X8183444Y-13881008D01*
X8183444Y-13881008D02*
X8192967Y-13890531D01*
X8192967Y-13890531D02*
X8202491Y-13909579D01*
X8202491Y-13909579D02*
X8202491Y-13928627D01*
X8202491Y-13928627D02*
X8192967Y-13957198D01*
X8192967Y-13957198D02*
X8078682Y-14071484D01*
X8078682Y-14071484D02*
X8202491Y-14071484D01*
X8373920Y-13871484D02*
X8335825Y-13871484D01*
X8335825Y-13871484D02*
X8316777Y-13881008D01*
X8316777Y-13881008D02*
X8307253Y-13890531D01*
X8307253Y-13890531D02*
X8288206Y-13919103D01*
X8288206Y-13919103D02*
X8278682Y-13957198D01*
X8278682Y-13957198D02*
X8278682Y-14033388D01*
X8278682Y-14033388D02*
X8288206Y-14052436D01*
X8288206Y-14052436D02*
X8297729Y-14061960D01*
X8297729Y-14061960D02*
X8316777Y-14071484D01*
X8316777Y-14071484D02*
X8354872Y-14071484D01*
X8354872Y-14071484D02*
X8373920Y-14061960D01*
X8373920Y-14061960D02*
X8383444Y-14052436D01*
X8383444Y-14052436D02*
X8392968Y-14033388D01*
X8392968Y-14033388D02*
X8392968Y-13985769D01*
X8392968Y-13985769D02*
X8383444Y-13966722D01*
X8383444Y-13966722D02*
X8373920Y-13957198D01*
X8373920Y-13957198D02*
X8354872Y-13947674D01*
X8354872Y-13947674D02*
X8316777Y-13947674D01*
X8316777Y-13947674D02*
X8297729Y-13957198D01*
X8297729Y-13957198D02*
X8288206Y-13966722D01*
X8288206Y-13966722D02*
X8278682Y-13985769D01*
X8516777Y-13871484D02*
X8535825Y-13871484D01*
X8535825Y-13871484D02*
X8554872Y-13881008D01*
X8554872Y-13881008D02*
X8564396Y-13890531D01*
X8564396Y-13890531D02*
X8573920Y-13909579D01*
X8573920Y-13909579D02*
X8583444Y-13947674D01*
X8583444Y-13947674D02*
X8583444Y-13995293D01*
X8583444Y-13995293D02*
X8573920Y-14033388D01*
X8573920Y-14033388D02*
X8564396Y-14052436D01*
X8564396Y-14052436D02*
X8554872Y-14061960D01*
X8554872Y-14061960D02*
X8535825Y-14071484D01*
X8535825Y-14071484D02*
X8516777Y-14071484D01*
X8516777Y-14071484D02*
X8497729Y-14061960D01*
X8497729Y-14061960D02*
X8488206Y-14052436D01*
X8488206Y-14052436D02*
X8478682Y-14033388D01*
X8478682Y-14033388D02*
X8469158Y-13995293D01*
X8469158Y-13995293D02*
X8469158Y-13947674D01*
X8469158Y-13947674D02*
X8478682Y-13909579D01*
X8478682Y-13909579D02*
X8488206Y-13890531D01*
X8488206Y-13890531D02*
X8497729Y-13881008D01*
X8497729Y-13881008D02*
X8516777Y-13871484D01*
X8659634Y-13871484D02*
X8659634Y-13909579D01*
X8735825Y-13871484D02*
X8735825Y-13909579D01*
X9031063Y-14147674D02*
X9021539Y-14138150D01*
X9021539Y-14138150D02*
X9002491Y-14109579D01*
X9002491Y-14109579D02*
X8992968Y-14090531D01*
X8992968Y-14090531D02*
X8983444Y-14061960D01*
X8983444Y-14061960D02*
X8973920Y-14014341D01*
X8973920Y-14014341D02*
X8973920Y-13976246D01*
X8973920Y-13976246D02*
X8983444Y-13928627D01*
X8983444Y-13928627D02*
X8992968Y-13900055D01*
X8992968Y-13900055D02*
X9002491Y-13881008D01*
X9002491Y-13881008D02*
X9021539Y-13852436D01*
X9021539Y-13852436D02*
X9031063Y-13842912D01*
X9192968Y-13938150D02*
X9192968Y-14071484D01*
X9145349Y-13861960D02*
X9097730Y-14004817D01*
X9097730Y-14004817D02*
X9221539Y-14004817D01*
X9450111Y-14071484D02*
X9450111Y-13871484D01*
X9535825Y-14071484D02*
X9535825Y-13966722D01*
X9535825Y-13966722D02*
X9526301Y-13947674D01*
X9526301Y-13947674D02*
X9507253Y-13938150D01*
X9507253Y-13938150D02*
X9478682Y-13938150D01*
X9478682Y-13938150D02*
X9459634Y-13947674D01*
X9459634Y-13947674D02*
X9450111Y-13957198D01*
X9659634Y-14071484D02*
X9640587Y-14061960D01*
X9640587Y-14061960D02*
X9631063Y-14052436D01*
X9631063Y-14052436D02*
X9621539Y-14033388D01*
X9621539Y-14033388D02*
X9621539Y-13976246D01*
X9621539Y-13976246D02*
X9631063Y-13957198D01*
X9631063Y-13957198D02*
X9640587Y-13947674D01*
X9640587Y-13947674D02*
X9659634Y-13938150D01*
X9659634Y-13938150D02*
X9688206Y-13938150D01*
X9688206Y-13938150D02*
X9707253Y-13947674D01*
X9707253Y-13947674D02*
X9716777Y-13957198D01*
X9716777Y-13957198D02*
X9726301Y-13976246D01*
X9726301Y-13976246D02*
X9726301Y-14033388D01*
X9726301Y-14033388D02*
X9716777Y-14052436D01*
X9716777Y-14052436D02*
X9707253Y-14061960D01*
X9707253Y-14061960D02*
X9688206Y-14071484D01*
X9688206Y-14071484D02*
X9659634Y-14071484D01*
X9840587Y-14071484D02*
X9821539Y-14061960D01*
X9821539Y-14061960D02*
X9812015Y-14042912D01*
X9812015Y-14042912D02*
X9812015Y-13871484D01*
X9992968Y-14061960D02*
X9973920Y-14071484D01*
X9973920Y-14071484D02*
X9935825Y-14071484D01*
X9935825Y-14071484D02*
X9916777Y-14061960D01*
X9916777Y-14061960D02*
X9907253Y-14042912D01*
X9907253Y-14042912D02*
X9907253Y-13966722D01*
X9907253Y-13966722D02*
X9916777Y-13947674D01*
X9916777Y-13947674D02*
X9935825Y-13938150D01*
X9935825Y-13938150D02*
X9973920Y-13938150D01*
X9973920Y-13938150D02*
X9992968Y-13947674D01*
X9992968Y-13947674D02*
X10002492Y-13966722D01*
X10002492Y-13966722D02*
X10002492Y-13985769D01*
X10002492Y-13985769D02*
X9907253Y-14004817D01*
X10078682Y-14061960D02*
X10097730Y-14071484D01*
X10097730Y-14071484D02*
X10135825Y-14071484D01*
X10135825Y-14071484D02*
X10154873Y-14061960D01*
X10154873Y-14061960D02*
X10164396Y-14042912D01*
X10164396Y-14042912D02*
X10164396Y-14033388D01*
X10164396Y-14033388D02*
X10154873Y-14014341D01*
X10154873Y-14014341D02*
X10135825Y-14004817D01*
X10135825Y-14004817D02*
X10107253Y-14004817D01*
X10107253Y-14004817D02*
X10088206Y-13995293D01*
X10088206Y-13995293D02*
X10078682Y-13976246D01*
X10078682Y-13976246D02*
X10078682Y-13966722D01*
X10078682Y-13966722D02*
X10088206Y-13947674D01*
X10088206Y-13947674D02*
X10107253Y-13938150D01*
X10107253Y-13938150D02*
X10135825Y-13938150D01*
X10135825Y-13938150D02*
X10154873Y-13947674D01*
X10231063Y-14147674D02*
X10240587Y-14138150D01*
X10240587Y-14138150D02*
X10259634Y-14109579D01*
X10259634Y-14109579D02*
X10269158Y-14090531D01*
X10269158Y-14090531D02*
X10278682Y-14061960D01*
X10278682Y-14061960D02*
X10288206Y-14014341D01*
X10288206Y-14014341D02*
X10288206Y-13976246D01*
X10288206Y-13976246D02*
X10278682Y-13928627D01*
X10278682Y-13928627D02*
X10269158Y-13900055D01*
X10269158Y-13900055D02*
X10259634Y-13881008D01*
X10259634Y-13881008D02*
X10240587Y-13852436D01*
X10240587Y-13852436D02*
X10231063Y-13842912D01*
X10592968Y-14147674D02*
X10583444Y-14138150D01*
X10583444Y-14138150D02*
X10564396Y-14109579D01*
X10564396Y-14109579D02*
X10554873Y-14090531D01*
X10554873Y-14090531D02*
X10545349Y-14061960D01*
X10545349Y-14061960D02*
X10535825Y-14014341D01*
X10535825Y-14014341D02*
X10535825Y-13976246D01*
X10535825Y-13976246D02*
X10545349Y-13928627D01*
X10545349Y-13928627D02*
X10554873Y-13900055D01*
X10554873Y-13900055D02*
X10564396Y-13881008D01*
X10564396Y-13881008D02*
X10583444Y-13852436D01*
X10583444Y-13852436D02*
X10592968Y-13842912D01*
X10669158Y-13938150D02*
X10669158Y-14071484D01*
X10669158Y-13957198D02*
X10678682Y-13947674D01*
X10678682Y-13947674D02*
X10697730Y-13938150D01*
X10697730Y-13938150D02*
X10726301Y-13938150D01*
X10726301Y-13938150D02*
X10745349Y-13947674D01*
X10745349Y-13947674D02*
X10754873Y-13966722D01*
X10754873Y-13966722D02*
X10754873Y-14071484D01*
X10878682Y-14071484D02*
X10859634Y-14061960D01*
X10859634Y-14061960D02*
X10850111Y-14052436D01*
X10850111Y-14052436D02*
X10840587Y-14033388D01*
X10840587Y-14033388D02*
X10840587Y-13976246D01*
X10840587Y-13976246D02*
X10850111Y-13957198D01*
X10850111Y-13957198D02*
X10859634Y-13947674D01*
X10859634Y-13947674D02*
X10878682Y-13938150D01*
X10878682Y-13938150D02*
X10907254Y-13938150D01*
X10907254Y-13938150D02*
X10926301Y-13947674D01*
X10926301Y-13947674D02*
X10935825Y-13957198D01*
X10935825Y-13957198D02*
X10945349Y-13976246D01*
X10945349Y-13976246D02*
X10945349Y-14033388D01*
X10945349Y-14033388D02*
X10935825Y-14052436D01*
X10935825Y-14052436D02*
X10926301Y-14061960D01*
X10926301Y-14061960D02*
X10907254Y-14071484D01*
X10907254Y-14071484D02*
X10878682Y-14071484D01*
X11002492Y-13938150D02*
X11078682Y-13938150D01*
X11031063Y-13871484D02*
X11031063Y-14042912D01*
X11031063Y-14042912D02*
X11040587Y-14061960D01*
X11040587Y-14061960D02*
X11059634Y-14071484D01*
X11059634Y-14071484D02*
X11078682Y-14071484D01*
X11297730Y-13938150D02*
X11297730Y-14138150D01*
X11297730Y-13947674D02*
X11316777Y-13938150D01*
X11316777Y-13938150D02*
X11354873Y-13938150D01*
X11354873Y-13938150D02*
X11373920Y-13947674D01*
X11373920Y-13947674D02*
X11383444Y-13957198D01*
X11383444Y-13957198D02*
X11392968Y-13976246D01*
X11392968Y-13976246D02*
X11392968Y-14033388D01*
X11392968Y-14033388D02*
X11383444Y-14052436D01*
X11383444Y-14052436D02*
X11373920Y-14061960D01*
X11373920Y-14061960D02*
X11354873Y-14071484D01*
X11354873Y-14071484D02*
X11316777Y-14071484D01*
X11316777Y-14071484D02*
X11297730Y-14061960D01*
X11507253Y-14071484D02*
X11488206Y-14061960D01*
X11488206Y-14061960D02*
X11478682Y-14042912D01*
X11478682Y-14042912D02*
X11478682Y-13871484D01*
X11669158Y-14071484D02*
X11669158Y-13966722D01*
X11669158Y-13966722D02*
X11659634Y-13947674D01*
X11659634Y-13947674D02*
X11640587Y-13938150D01*
X11640587Y-13938150D02*
X11602492Y-13938150D01*
X11602492Y-13938150D02*
X11583444Y-13947674D01*
X11669158Y-14061960D02*
X11650111Y-14071484D01*
X11650111Y-14071484D02*
X11602492Y-14071484D01*
X11602492Y-14071484D02*
X11583444Y-14061960D01*
X11583444Y-14061960D02*
X11573920Y-14042912D01*
X11573920Y-14042912D02*
X11573920Y-14023865D01*
X11573920Y-14023865D02*
X11583444Y-14004817D01*
X11583444Y-14004817D02*
X11602492Y-13995293D01*
X11602492Y-13995293D02*
X11650111Y-13995293D01*
X11650111Y-13995293D02*
X11669158Y-13985769D01*
X11735825Y-13938150D02*
X11812015Y-13938150D01*
X11764396Y-13871484D02*
X11764396Y-14042912D01*
X11764396Y-14042912D02*
X11773920Y-14061960D01*
X11773920Y-14061960D02*
X11792968Y-14071484D01*
X11792968Y-14071484D02*
X11812015Y-14071484D01*
X11954873Y-14061960D02*
X11935825Y-14071484D01*
X11935825Y-14071484D02*
X11897730Y-14071484D01*
X11897730Y-14071484D02*
X11878682Y-14061960D01*
X11878682Y-14061960D02*
X11869158Y-14042912D01*
X11869158Y-14042912D02*
X11869158Y-13966722D01*
X11869158Y-13966722D02*
X11878682Y-13947674D01*
X11878682Y-13947674D02*
X11897730Y-13938150D01*
X11897730Y-13938150D02*
X11935825Y-13938150D01*
X11935825Y-13938150D02*
X11954873Y-13947674D01*
X11954873Y-13947674D02*
X11964396Y-13966722D01*
X11964396Y-13966722D02*
X11964396Y-13985769D01*
X11964396Y-13985769D02*
X11869158Y-14004817D01*
X12135825Y-14071484D02*
X12135825Y-13871484D01*
X12135825Y-14061960D02*
X12116777Y-14071484D01*
X12116777Y-14071484D02*
X12078682Y-14071484D01*
X12078682Y-14071484D02*
X12059634Y-14061960D01*
X12059634Y-14061960D02*
X12050111Y-14052436D01*
X12050111Y-14052436D02*
X12040587Y-14033388D01*
X12040587Y-14033388D02*
X12040587Y-13976246D01*
X12040587Y-13976246D02*
X12050111Y-13957198D01*
X12050111Y-13957198D02*
X12059634Y-13947674D01*
X12059634Y-13947674D02*
X12078682Y-13938150D01*
X12078682Y-13938150D02*
X12116777Y-13938150D01*
X12116777Y-13938150D02*
X12135825Y-13947674D01*
X12212015Y-14147674D02*
X12221539Y-14138150D01*
X12221539Y-14138150D02*
X12240587Y-14109579D01*
X12240587Y-14109579D02*
X12250111Y-14090531D01*
X12250111Y-14090531D02*
X12259634Y-14061960D01*
X12259634Y-14061960D02*
X12269158Y-14014341D01*
X12269158Y-14014341D02*
X12269158Y-13976246D01*
X12269158Y-13976246D02*
X12259634Y-13928627D01*
X12259634Y-13928627D02*
X12250111Y-13900055D01*
X12250111Y-13900055D02*
X12240587Y-13881008D01*
X12240587Y-13881008D02*
X12221539Y-13852436D01*
X12221539Y-13852436D02*
X12212015Y-13842912D01*
M02*
